<?xml version="1.0" encoding="UTF-8" standalone="no"?>
<svg
   version="1.1"
   id="svg390"
   sodipodi:docname="vector_shirts.svg"
   inkscape:version="1.1.1 (3bf5ae0d25, 2021-09-20)"
   xmlns:inkscape="http://www.inkscape.org/namespaces/inkscape"
   xmlns:sodipodi="http://sodipodi.sourceforge.net/DTD/sodipodi-0.dtd"
   xmlns="http://www.w3.org/2000/svg"
   xmlns:svg="http://www.w3.org/2000/svg">
  <sodipodi:namedview
     id="namedview392"
     pagecolor="#ffffff"
     bordercolor="#666666"
     borderopacity="1.0"
     inkscape:pageshadow="2"
     inkscape:pageopacity="0.0"
     inkscape:pagecheckerboard="0"
     showgrid="false"
     inkscape:zoom="1.4189276"
     inkscape:cx="-124.74209"
     inkscape:cy="193.45596"
     inkscape:window-width="3840"
     inkscape:window-height="2136"
     inkscape:window-x="0"
     inkscape:window-y="0"
     inkscape:window-maximized="1"
     inkscape:current-layer="svg390" />
  <defs
     id="defs2" />
  <path
     stroke="none"
     fill="#eeeeee"
     d="m 40.9,31.5 q 4.7,3.2 11.3,3.2 6.6,0 11.3,-3.2 3.9,-2.6 4.55,-6.15 l 2.5,0.45 Q 80.2,36.65 76.6,53 73.65,66.2 75.95,81.4 64.35,83.3 52.7,83.25 H 52.2 51.7 Q 40.05,83.3 28.45,81.4 30.75,66.2 27.8,53 24.2,36.65 33.85,25.8 l 2.5,-0.45 Q 37,28.9 40.9,31.5"
     id="path4" />
  <path
     stroke="none"
     fill="#eeeeee"
     d="M 100.65,82.85 88.45,81.4 Q 90.75,66.2 87.8,53 84.2,36.65 93.85,25.8 l 2.5,-0.45 q 0.65,3.55 4.55,6.15 4.7,3.2 11.3,3.2 6.6,0 11.3,-3.2 3.9,-2.6 4.55,-6.15 l 2.5,0.45 q 9.65,10.85 6.05,27.2 -2.95,13.2 -0.65,28.4 l -12.15,1.45 2.4,-11.05 -4.85,-6.15 h -18.3 l -4.85,6.15 2.45,11.05"
     id="path6" />
  <path
     stroke="none"
     fill="#d2d2d2"
     d="M 100.65,82.85 98.2,71.8 l 4.85,-6.15 h 18.3 l 4.85,6.15 -2.4,11.05 -11.1,0.4 h -0.5 -0.5 l -11.05,-0.4"
     id="path8" />
  <path
     stroke="none"
     fill="#eeeeee"
     d="m 172.2,34.7 q 6.6,0 11.3,-3.2 3.9,-2.6 4.55,-6.15 l 2.5,0.45 q 9.65,10.85 6.05,27.2 -2.95,13.2 -0.65,28.4 -11.6,1.9 -23.25,1.85 h -0.5 -0.5 Q 160.05,83.3 148.45,81.4 150.75,66.2 147.8,53 144.2,36.65 153.85,25.8 l 2.5,-0.45 q 0.65,3.55 4.55,6.15 4.7,3.2 11.3,3.2 m 17.65,7.4 -12.05,1.6 0.75,8.5 6.35,2.2 5.55,-4.45 -0.6,-7.85"
     id="path10" />
  <path
     stroke="none"
     fill="#d2d2d2"
     d="m 189.85,42.1 0.6,7.85 -5.55,4.45 -6.35,-2.2 -0.75,-8.5 12.05,-1.6"
     id="path12" />
  <path
     stroke="none"
     fill="#eeeeee"
     d="m 206.85,44 q 0.15,-10.5 7,-18.2 l 2.5,-0.45 q 0.65,3.55 4.55,6.15 4.7,3.2 11.3,3.2 6.6,0 11.3,-3.2 3.9,-2.6 4.55,-6.15 l 2.5,0.45 q 6.8,7.6 7.05,17.95 h -0.05 l -0.25,0.2 -0.9,1 -0.1,0.2 v 0.25 q 0.55,2.05 0.05,4.4 -0.8,3.95 -4.2,6.2 -3.4,2.2 -7.45,1.4 -3.1,-0.6 -5.15,-2.75 l -0.3,-0.15 q -0.25,0 -0.35,0.15 l -0.55,0.5 -0.2,0.3 0.1,0.35 q 2.55,3.45 6.85,4.3 4.7,0.9 8.75,-1.65 l 2.05,-1.7 q -1.95,11.6 0.05,24.65 -11.6,1.9 -23.25,1.85 h -0.5 -0.5 q -11.65,0.05 -23.25,-1.85 2.05,-13.45 -0.05,-25.35 1.1,1.35 2.7,2.4 4,2.55 8.7,1.65 4.3,-0.85 6.85,-4.3 l 0.1,-0.35 -0.15,-0.3 -0.55,-0.5 -0.35,-0.15 q -0.2,0 -0.35,0.15 -2.05,2.15 -5.15,2.75 -4.05,0.8 -7.4,-1.4 -3.45,-2.25 -4.25,-6.2 -0.5,-2.35 0.1,-4.4 v -0.25 l -0.1,-0.2 -0.9,-1 -0.3,-0.2 -0.3,0.05 -0.2,0.2"
     id="path14" />
  <path
     stroke="none"
     fill="#d2d2d2"
     d="m 206.85,44 0.2,-0.2 0.3,-0.05 0.3,0.2 0.9,1 0.1,0.2 v 0.25 q -0.6,2.05 -0.1,4.4 0.8,3.95 4.25,6.2 3.35,2.2 7.4,1.4 3.1,-0.6 5.15,-2.75 0.15,-0.15 0.35,-0.15 l 0.35,0.15 0.55,0.5 0.15,0.3 -0.1,0.35 q -2.55,3.45 -6.85,4.3 -4.7,0.9 -8.7,-1.65 -1.6,-1.05 -2.7,-2.4 -1.75,-2.1 -2.35,-5 -0.8,-3.75 0.75,-7 L 206.85,44 m 49.05,12.75 -2.05,1.7 q -4.05,2.55 -8.75,1.65 -4.3,-0.85 -6.85,-4.3 l -0.1,-0.35 0.2,-0.3 0.55,-0.5 q 0.1,-0.15 0.35,-0.15 l 0.3,0.15 q 2.05,2.15 5.15,2.75 4.05,0.8 7.45,-1.4 3.4,-2.25 4.2,-6.2 0.5,-2.35 -0.05,-4.4 v -0.25 l 0.1,-0.2 0.9,-1 0.25,-0.2 h 0.05 l 0.3,0.05 0.2,0.25 q 1.55,3.25 0.75,7 -0.7,3.35 -2.95,5.7"
     id="path16" />
  <path
     stroke="none"
     fill="#d2d2d2"
     d="m 319.05,68.85 -1.4,-1.7 q 7.95,-6.85 10,-17.65 l 3.5,4.4 q -3.35,8.2 -12.1,14.95"
     id="path18" />
  <path
     stroke="none"
     fill="#ffffff"
     d="m 319.05,68.85 q 8.75,-6.75 12.1,-14.95 l 3.85,5.9 q -3,8.8 -13.35,12.7 l -2.6,-3.65"
     id="path20" />
  <path
     stroke="none"
     fill="#eeeeee"
     d="M 317.65,67.15 Q 306.25,54.05 285.75,52.7 273.9,39.5 280.35,25.35 l 2.55,0.45 q 28.75,5.15 44.75,23.7 -2.05,10.8 -10,17.65"
     id="path22" />
  <path
     stroke="none"
     fill="#eeeeee"
     d="m 297.55,114.65 q -5.5,-1.55 -11.8,-1.95 -11.85,-13.2 -5.4,-27.35 l 2.55,0.45 q 12.7,2.25 22.95,7.2 -0.85,11.8 -8.3,21.65"
     id="path24" />
  <path
     stroke="none"
     fill="#d2d2d2"
     d="m 297.55,114.65 q 7.45,-9.85 8.3,-21.65 2.1,1 4.15,2.15 -3,11.5 -10.5,20.1 l -1.95,-0.6"
     id="path26" />
  <path
     stroke="none"
     fill="#ffffff"
     d="m 310,95.15 q 3.8,2.1 7.25,4.7 -4.3,10.9 -12.5,17.5 -2.5,-1.2 -5.25,-2.1 7.5,-8.6 10.5,-20.1"
     id="path28" />
  <path
     stroke="none"
     fill="#ffffff"
     d="m 294.2,128.5 5.85,2 q 0.2,13.15 -5.85,23.35 l -4,-0.7 q 3.7,-11.85 4,-24.65"
     id="path30" />
  <path
     stroke="none"
     fill="#d2d2d2"
     d="m 294.2,128.5 q -0.3,12.8 -4,24.65 l -1.65,-0.2 q 3.05,-13.05 1.7,-25.55 l 3.95,1.1"
     id="path32" />
  <path
     stroke="none"
     fill="#eeeeee"
     d="m 288.55,152.95 -2.8,-0.25 q -11.85,-13.2 -5.4,-27.35 l 2.55,0.45 7.35,1.6 q 1.35,12.5 -1.7,25.55"
     id="path34" />
  <path
     stroke="none"
     fill="#eeeeee"
     d="m 248.05,95.35 2.5,0.45 q 9.65,10.85 6.05,27.2 -2.95,13.2 -0.65,28.4 -11.6,1.9 -23.25,1.85 h -0.5 -0.5 q -11.65,0.05 -23.25,-1.85 2.3,-15.2 -0.65,-28.4 -3.6,-16.35 6.05,-27.2 l 2.5,-0.45 q 0.65,3.55 4.55,6.15 4.7,3.2 11.3,3.2 6.6,0 11.3,-3.2 3.9,-2.6 4.55,-6.15 m -6.05,31.1 q -2.8,-0.55 -4.55,-2.45 l -0.35,-0.15 q -0.25,0 -0.35,0.15 l -0.5,0.45 -0.2,0.3 0.1,0.35 q 2.3,3.1 6.2,3.9 4.25,0.8 7.9,-1.5 3.6,-2.45 4.5,-6.7 0.75,-3.4 -0.65,-6.35 l -0.2,-0.25 -0.3,-0.05 -0.3,0.15 -0.85,0.9 -0.1,0.25 v 0.25 q 0.5,1.85 0.05,3.95 -0.7,3.55 -3.75,5.55 -3.05,1.95 -6.65,1.25 M 212.6,115.7 v -0.25 l -0.1,-0.25 -0.85,-0.9 -0.3,-0.15 -0.3,0.05 -0.25,0.25 q -1.4,2.95 -0.65,6.35 0.9,4.25 4.55,6.7 3.65,2.3 7.9,1.5 3.85,-0.8 6.15,-3.9 l 0.1,-0.3 -0.15,-0.35 -0.45,-0.45 q -0.15,-0.15 -0.35,-0.15 l -0.35,0.15 q -1.85,1.9 -4.65,2.45 -3.6,0.7 -6.6,-1.25 -3.1,-2 -3.8,-5.55 -0.45,-2.1 0.1,-3.95"
     id="path36" />
  <path
     stroke="none"
     fill="#d2d2d2"
     d="m 212.6,115.7 q -0.55,1.85 -0.1,3.95 0.7,3.55 3.8,5.55 3,1.95 6.6,1.25 2.8,-0.55 4.65,-2.45 l 0.35,-0.15 q 0.2,0 0.35,0.15 l 0.45,0.45 0.15,0.35 -0.1,0.3 q -2.3,3.1 -6.15,3.9 -4.25,0.8 -7.9,-1.5 -3.65,-2.45 -4.55,-6.7 -0.75,-3.4 0.65,-6.35 l 0.25,-0.25 0.3,-0.05 0.3,0.15 0.85,0.9 0.1,0.25 v 0.25 m 29.4,10.75 q 3.6,0.7 6.65,-1.25 3.05,-2 3.75,-5.55 0.45,-2.1 -0.05,-3.95 v -0.25 l 0.1,-0.25 0.85,-0.9 0.3,-0.15 0.3,0.05 0.2,0.25 q 1.4,2.95 0.65,6.35 -0.9,4.25 -4.5,6.7 -3.65,2.3 -7.9,1.5 -3.9,-0.8 -6.2,-3.9 l -0.1,-0.35 0.2,-0.3 0.5,-0.45 q 0.1,-0.15 0.35,-0.15 l 0.35,0.15 q 1.75,1.9 4.55,2.45"
     id="path38" />
  <path
     stroke="none"
     fill="#eeeeee"
     d="m 190.45,119.95 -0.6,-7.85 -12.05,1.6 0.75,8.5 6.35,2.2 5.55,-4.45 M 172.1,104.7 h 0.1 q 6.6,0 11.3,-3.2 3.9,-2.6 4.55,-6.15 l 2.5,0.45 q 9.65,10.85 6.05,27.2 -2.95,13.2 -0.65,28.4 -10.2,1.65 -20.45,1.85 l -3.4,-48.55 m -0.9,48.55 q -11.4,0 -22.75,-1.85 2.3,-15.2 -0.65,-28.4 -3.6,-16.35 6.05,-27.2 l 2.5,-0.45 q 0.65,3.55 4.55,6.15 4,2.75 9.45,3.15 l 0.85,48.6"
     id="path40" />
  <path
     stroke="none"
     fill="#d2d2d2"
     d="m 172.1,104.7 3.4,48.55 h -2.8 -0.5 -0.5 -0.5 l -0.85,-48.6 1.75,0.05 m 18.35,15.25 -5.55,4.45 -6.35,-2.2 -0.75,-8.5 12.05,-1.6 0.6,7.85"
     id="path42" />
  <path
     stroke="none"
     fill="#eeeeee"
     d="m 111.2,153.25 q -11.4,0 -22.75,-1.85 2.3,-15.2 -0.65,-28.4 -3.6,-16.35 6.05,-27.2 l 2.5,-0.45 q 0.65,3.55 4.55,6.15 4,2.75 9.45,3.15 l 0.85,48.6 m 0.9,-48.55 h 0.1 q 6.6,0 11.3,-3.2 3.9,-2.6 4.55,-6.15 l 2.5,0.45 q 9.65,10.85 6.05,27.2 -2.95,13.2 -0.65,28.4 -10.2,1.65 -20.45,1.85 l -3.4,-48.55"
     id="path44" />
  <path
     stroke="none"
     fill="#d2d2d2"
     d="m 112.1,104.7 3.4,48.55 h -2.8 -0.5 -0.5 -0.5 l -0.85,-48.6 1.75,0.05"
     id="path46" />
  <path
     stroke="none"
     fill="#eeeeee"
     d="m 50.55,104.65 1.65,0.05 1.65,-0.05 3.1,6.8 13.1,-12.75 -2,-3.35 2.5,0.45 q 9.65,10.85 6.05,27.2 -2.95,13.2 -0.65,28.4 -11.6,1.9 -23.25,1.85 H 52.2 51.7 Q 40.05,153.3 28.45,151.4 30.75,136.2 27.8,123 24.2,106.65 33.85,95.8 l 2.5,-0.45 -2,3.35 13.1,12.75 3.1,-6.8"
     id="path48" />
  <path
     stroke="none"
     fill="#d2d2d2"
     d="m 68.05,95.35 2,3.35 -13.1,12.75 -3.1,-6.8 q 5.55,-0.35 9.65,-3.15 3.9,-2.6 4.55,-6.15 m -17.5,9.3 -3.1,6.8 -13.1,-12.75 2,-3.35 q 0.65,3.55 4.55,6.15 4.1,2.8 9.65,3.15"
     id="path50" />
  <path
     stroke="none"
     fill="#3498db"
     d="m 370.9,31.5 q 4.7,3.2 11.3,3.2 6.6,0 11.3,-3.2 3.9,-2.6 4.55,-6.15 l 2.5,0.45 q 9.65,10.85 6.05,27.2 -2.95,13.2 -0.65,28.4 -11.6,1.9 -23.25,1.85 h -0.5 -0.5 Q 370.05,83.3 358.45,81.4 360.75,66.2 357.8,53 354.2,36.65 363.85,25.8 l 2.5,-0.45 q 0.65,3.55 4.55,6.15"
     id="path52" />
  <path
     stroke="none"
     fill="#3498db"
     d="m 398.05,95.35 2.5,0.45 q 9.65,10.85 6.05,27.2 -2.95,13.2 -0.65,28.4 -11.6,1.9 -23.25,1.85 h -0.5 -0.5 q -11.65,0.05 -23.25,-1.85 2.3,-15.2 -0.65,-28.4 -3.6,-16.35 6.05,-27.2 l 2.5,-0.45 -2,3.35 13.1,12.75 3.1,-6.8 1.65,0.05 1.65,-0.05 3.1,6.8 13.1,-12.75 -2,-3.35"
     id="path54" />
  <path
     stroke="none"
     fill="#2a81bb"
     d="m 398.05,95.35 2,3.35 -13.1,12.75 -3.1,-6.8 q 5.55,-0.35 9.65,-3.15 3.9,-2.6 4.55,-6.15 m -17.5,9.3 -3.1,6.8 -13.1,-12.75 2,-3.35 q 0.65,3.55 4.55,6.15 4.1,2.8 9.65,3.15"
     id="path56" />
  <path
     stroke="none"
     fill="#3498db"
     d="m 441.2,153.25 q -11.4,0 -22.75,-1.85 2.3,-15.2 -0.65,-28.4 -3.6,-16.35 6.05,-27.2 l 2.5,-0.45 q 0.65,3.55 4.55,6.15 4,2.75 9.45,3.15 l 0.85,48.6 m 0.9,-48.55 h 0.1 q 6.6,0 11.3,-3.2 3.9,-2.6 4.55,-6.15 l 2.5,0.45 q 9.65,10.85 6.05,27.2 -2.95,13.2 -0.65,28.4 -10.2,1.65 -20.45,1.85 l -3.4,-48.55"
     id="path58" />
  <path
     stroke="none"
     fill="#2a81bb"
     d="m 442.1,104.7 3.4,48.55 h -2.8 -0.5 -0.5 -0.5 l -0.85,-48.6 1.75,0.05"
     id="path60" />
  <path
     stroke="none"
     fill="#3498db"
     d="m 502.1,104.7 h 0.1 q 6.6,0 11.3,-3.2 3.9,-2.6 4.55,-6.15 l 2.5,0.45 q 9.65,10.85 6.05,27.2 -2.95,13.2 -0.65,28.4 -10.2,1.65 -20.45,1.85 l -3.4,-48.55 m -0.9,48.55 q -11.4,0 -22.75,-1.85 2.3,-15.2 -0.65,-28.4 -3.6,-16.35 6.05,-27.2 l 2.5,-0.45 q 0.65,3.55 4.55,6.15 4,2.75 9.45,3.15 l 0.85,48.6 m 19.25,-33.3 -0.6,-7.85 -12.05,1.6 0.75,8.5 6.35,2.2 5.55,-4.45"
     id="path62" />
  <path
     stroke="none"
     fill="#2a81bb"
     d="m 520.45,119.95 -5.55,4.45 -6.35,-2.2 -0.75,-8.5 12.05,-1.6 0.6,7.85 m -18.35,-15.25 3.4,48.55 h -2.8 -0.5 -0.5 -0.5 l -0.85,-48.6 1.75,0.05"
     id="path64" />
  <path
     stroke="none"
     fill="#3498db"
     d="m 578.05,95.35 2.5,0.45 q 9.65,10.85 6.05,27.2 -2.95,13.2 -0.65,28.4 -11.6,1.9 -23.25,1.85 h -0.5 -0.5 q -11.65,0.05 -23.25,-1.85 2.3,-15.2 -0.65,-28.4 -3.6,-16.35 6.05,-27.2 l 2.5,-0.45 q 0.65,3.55 4.55,6.15 4.7,3.2 11.3,3.2 6.6,0 11.3,-3.2 3.9,-2.6 4.55,-6.15 m -11.3,28.65 -0.5,0.45 -0.2,0.3 0.1,0.35 q 2.3,3.1 6.2,3.9 4.25,0.8 7.9,-1.5 3.6,-2.45 4.5,-6.7 0.75,-3.4 -0.65,-6.35 l -0.2,-0.25 -0.3,-0.05 -0.3,0.15 -0.85,0.9 -0.1,0.25 v 0.25 q 0.5,1.85 0.05,3.95 -0.7,3.55 -3.75,5.55 -3.05,1.95 -6.65,1.25 -2.8,-0.55 -4.55,-2.45 l -0.35,-0.15 q -0.25,0 -0.35,0.15 m -24.25,-4.35 q -0.45,-2.1 0.1,-3.95 v -0.25 l -0.1,-0.25 -0.85,-0.9 -0.3,-0.15 -0.3,0.05 -0.25,0.25 q -1.4,2.95 -0.65,6.35 0.9,4.25 4.55,6.7 3.65,2.3 7.9,1.5 3.85,-0.8 6.15,-3.9 l 0.1,-0.3 -0.15,-0.35 -0.45,-0.45 q -0.15,-0.15 -0.35,-0.15 -0.2,0 -0.35,0.15 -1.85,1.9 -4.65,2.45 -3.6,0.7 -6.6,-1.25 -3.1,-2 -3.8,-5.55"
     id="path66" />
  <path
     stroke="none"
     fill="#2a81bb"
     d="m 542.5,119.65 q 0.7,3.55 3.8,5.55 3,1.95 6.6,1.25 2.8,-0.55 4.65,-2.45 0.15,-0.15 0.35,-0.15 0.2,0 0.35,0.15 l 0.45,0.45 0.15,0.35 -0.1,0.3 q -2.3,3.1 -6.15,3.9 -4.25,0.8 -7.9,-1.5 -3.65,-2.45 -4.55,-6.7 -0.75,-3.4 0.65,-6.35 l 0.25,-0.25 0.3,-0.05 0.3,0.15 0.85,0.9 0.1,0.25 v 0.25 q -0.55,1.85 -0.1,3.95 m 24.25,4.35 q 0.1,-0.15 0.35,-0.15 l 0.35,0.15 q 1.75,1.9 4.55,2.45 3.6,0.7 6.65,-1.25 3.05,-2 3.75,-5.55 0.45,-2.1 -0.05,-3.95 v -0.25 l 0.1,-0.25 0.85,-0.9 0.3,-0.15 0.3,0.05 0.2,0.25 q 1.4,2.95 0.65,6.35 -0.9,4.25 -4.5,6.7 -3.65,2.3 -7.9,1.5 -3.9,-0.8 -6.2,-3.9 l -0.1,-0.35 0.2,-0.3 0.5,-0.45"
     id="path68" />
  <path
     stroke="none"
     fill="#3498db"
     d="m 536.85,44 q 0.15,-10.5 7,-18.2 l 2.5,-0.45 q 0.65,3.55 4.55,6.15 4.7,3.2 11.3,3.2 6.6,0 11.3,-3.2 3.9,-2.6 4.55,-6.15 l 2.5,0.45 q 6.8,7.6 7.05,17.95 h -0.05 l -0.25,0.2 -0.9,1 -0.1,0.2 v 0.25 q 0.55,2.05 0.05,4.4 -0.8,3.95 -4.2,6.2 -3.4,2.2 -7.45,1.4 -3.1,-0.6 -5.15,-2.75 l -0.3,-0.15 q -0.25,0 -0.35,0.15 l -0.55,0.5 -0.2,0.3 0.1,0.35 q 2.55,3.45 6.85,4.3 4.7,0.9 8.75,-1.65 l 2.05,-1.7 q -1.95,11.6 0.05,24.65 -11.6,1.9 -23.25,1.85 h -0.5 -0.5 q -11.65,0.05 -23.25,-1.85 2.05,-13.45 -0.05,-25.35 1.1,1.35 2.7,2.4 4,2.55 8.7,1.65 4.3,-0.85 6.85,-4.3 l 0.1,-0.35 -0.15,-0.3 -0.55,-0.5 -0.35,-0.15 -0.35,0.15 q -2.05,2.15 -5.15,2.75 -4.05,0.8 -7.4,-1.4 -3.45,-2.25 -4.25,-6.2 -0.5,-2.35 0.1,-4.4 v -0.25 l -0.1,-0.2 -0.9,-1 -0.3,-0.2 -0.3,0.05 -0.2,0.2"
     id="path70" />
  <path
     stroke="none"
     fill="#2a81bb"
     d="m 536.85,44 0.2,-0.2 0.3,-0.05 0.3,0.2 0.9,1 0.1,0.2 v 0.25 q -0.6,2.05 -0.1,4.4 0.8,3.95 4.25,6.2 3.35,2.2 7.4,1.4 3.1,-0.6 5.15,-2.75 l 0.35,-0.15 0.35,0.15 0.55,0.5 0.15,0.3 -0.1,0.35 q -2.55,3.45 -6.85,4.3 -4.7,0.9 -8.7,-1.65 -1.6,-1.05 -2.7,-2.4 -1.75,-2.1 -2.35,-5 -0.8,-3.75 0.75,-7 L 536.85,44 m 49.05,12.75 -2.05,1.7 q -4.05,2.55 -8.75,1.65 -4.3,-0.85 -6.85,-4.3 l -0.1,-0.35 0.2,-0.3 0.55,-0.5 q 0.1,-0.15 0.35,-0.15 l 0.3,0.15 q 2.05,2.15 5.15,2.75 4.05,0.8 7.45,-1.4 3.4,-2.25 4.2,-6.2 0.5,-2.35 -0.05,-4.4 v -0.25 l 0.1,-0.2 0.9,-1 0.25,-0.2 h 0.05 l 0.3,0.05 0.2,0.25 q 1.55,3.25 0.75,7 -0.7,3.35 -2.95,5.7"
     id="path72" />
  <path
     stroke="none"
     fill="#3498db"
     d="m 490.9,31.5 q 4.7,3.2 11.3,3.2 6.6,0 11.3,-3.2 3.9,-2.6 4.55,-6.15 l 2.5,0.45 q 9.65,10.85 6.05,27.2 -2.95,13.2 -0.65,28.4 -11.6,1.9 -23.25,1.85 h -0.5 -0.5 Q 490.05,83.3 478.45,81.4 480.75,66.2 477.8,53 474.2,36.65 483.85,25.8 l 2.5,-0.45 q 0.65,3.55 4.55,6.15 m 28.95,10.6 -12.05,1.6 0.75,8.5 6.35,2.2 5.55,-4.45 -0.6,-7.85"
     id="path74" />
  <path
     stroke="none"
     fill="#2a81bb"
     d="m 519.85,42.1 0.6,7.85 -5.55,4.45 -6.35,-2.2 -0.75,-8.5 12.05,-1.6"
     id="path76" />
  <path
     stroke="none"
     fill="#3498db"
     d="m 430.65,82.85 -12.2,-1.45 q 2.3,-15.2 -0.65,-28.4 -3.6,-16.35 6.05,-27.2 l 2.5,-0.45 q 0.65,3.55 4.55,6.15 4.7,3.2 11.3,3.2 6.6,0 11.3,-3.2 3.9,-2.6 4.55,-6.15 l 2.5,0.45 q 9.65,10.85 6.05,27.2 -2.95,13.2 -0.65,28.4 l -12.15,1.45 2.4,-11.05 -4.85,-6.15 h -18.3 l -4.85,6.15 2.45,11.05"
     id="path78" />
  <path
     stroke="none"
     fill="#2a81bb"
     d="m 430.65,82.85 -2.45,-11.05 4.85,-6.15 h 18.3 l 4.85,6.15 -2.4,11.05 -11.1,0.4 h -0.5 -0.5 l -11.05,-0.4"
     id="path80" />
  <path
     stroke="none"
     fill="#2a81bb"
     d="m 649.05,68.85 -1.4,-1.7 q 7.95,-6.85 10,-17.65 l 3.5,4.4 q -3.35,8.2 -12.1,14.95"
     id="path82" />
  <path
     stroke="none"
     fill="#3ea5e9"
     d="m 649.05,68.85 q 8.75,-6.75 12.1,-14.95 l 3.85,5.9 q -3,8.8 -13.35,12.7 l -2.6,-3.65"
     id="path84" />
  <path
     stroke="none"
     fill="#3498db"
     d="M 647.65,67.15 Q 636.25,54.05 615.75,52.7 603.9,39.5 610.35,25.35 l 2.55,0.45 q 28.75,5.15 44.75,23.7 -2.05,10.8 -10,17.65"
     id="path86" />
  <path
     stroke="none"
     fill="#2a81bb"
     d="m 635.85,93 q 2.1,1 4.15,2.15 -3,11.5 -10.5,20.1 l -1.95,-0.6 Q 635,104.8 635.85,93"
     id="path88" />
  <path
     stroke="none"
     fill="#3498db"
     d="m 635.85,93 q -0.85,11.8 -8.3,21.65 -5.5,-1.55 -11.8,-1.95 -11.85,-13.2 -5.4,-27.35 l 2.55,0.45 q 12.7,2.25 22.95,7.2"
     id="path90" />
  <path
     stroke="none"
     fill="#3ea5e9"
     d="m 640,95.15 q 3.8,2.1 7.25,4.7 -4.3,10.9 -12.5,17.5 -2.5,-1.2 -5.25,-2.1 7.5,-8.6 10.5,-20.1"
     id="path92" />
  <path
     stroke="none"
     fill="#3ea5e9"
     d="m 624.2,128.5 5.85,2 q 0.2,13.15 -5.85,23.35 l -4,-0.7 q 3.7,-11.85 4,-24.65"
     id="path94" />
  <path
     stroke="none"
     fill="#2a81bb"
     d="m 624.2,128.5 q -0.3,12.8 -4,24.65 l -1.65,-0.2 q 3.05,-13.05 1.7,-25.55 l 3.95,1.1"
     id="path96" />
  <path
     stroke="none"
     fill="#3498db"
     d="m 618.55,152.95 -2.8,-0.25 q -11.85,-13.2 -5.4,-27.35 l 2.55,0.45 q 3.8,0.65 7.35,1.6 1.35,12.5 -1.7,25.55"
     id="path98" />
  <path
     stroke="none"
     fill="#63b448"
     d="m 68.05,245.35 2.5,0.45 q 9.65,10.85 6.05,27.2 -2.95,13.2 -0.65,28.4 -11.6,1.9 -23.25,1.85 H 52.2 51.7 Q 40.05,303.3 28.45,301.4 30.75,286.2 27.8,273 24.2,256.65 33.85,245.8 l 2.5,-0.45 -2,3.35 13.1,12.75 3.1,-6.8 1.65,0.05 1.65,-0.05 3.1,6.8 13.1,-12.75 -2,-3.35"
     id="path100" />
  <path
     stroke="none"
     fill="#529c39"
     d="m 68.05,245.35 2,3.35 -13.1,12.75 -3.1,-6.8 q 5.55,-0.35 9.65,-3.15 3.9,-2.6 4.55,-6.15 m -17.5,9.3 -3.1,6.8 -13.1,-12.75 2,-3.35 q 0.65,3.55 4.55,6.15 4.1,2.8 9.65,3.15"
     id="path102" />
  <path
     stroke="none"
     fill="#63b448"
     d="m 112.1,254.7 h 0.1 q 6.6,0 11.3,-3.2 3.9,-2.6 4.55,-6.15 l 2.5,0.45 q 9.65,10.85 6.05,27.2 -2.95,13.2 -0.65,28.4 -10.2,1.65 -20.45,1.85 l -3.4,-48.55 m -0.9,48.55 q -11.4,0 -22.75,-1.85 2.3,-15.2 -0.65,-28.4 -3.6,-16.35 6.05,-27.2 l 2.5,-0.45 q 0.65,3.55 4.55,6.15 4,2.75 9.45,3.15 l 0.85,48.6"
     id="path104" />
  <path
     stroke="none"
     fill="#529c39"
     d="m 112.1,254.7 3.4,48.55 h -2.8 -0.5 -0.5 -0.5 l -0.85,-48.6 1.75,0.05"
     id="path106" />
  <path
     stroke="none"
     fill="#63b448"
     d="m 171.2,303.25 q -11.4,0 -22.75,-1.85 2.3,-15.2 -0.65,-28.4 -3.6,-16.35 6.05,-27.2 l 2.5,-0.45 q 0.65,3.55 4.55,6.15 4,2.75 9.45,3.15 l 0.85,48.6 m 0.9,-48.55 h 0.1 q 6.6,0 11.3,-3.2 3.9,-2.6 4.55,-6.15 l 2.5,0.45 q 9.65,10.85 6.05,27.2 -2.95,13.2 -0.65,28.4 -10.2,1.65 -20.45,1.85 l -3.4,-48.55 m 18.35,15.25 -0.6,-7.85 -12.05,1.6 0.75,8.5 6.35,2.2 5.55,-4.45"
     id="path108" />
  <path
     stroke="none"
     fill="#529c39"
     d="m 190.45,269.95 -5.55,4.45 -6.35,-2.2 -0.75,-8.5 12.05,-1.6 0.6,7.85 m -19.25,33.3 -0.85,-48.6 1.75,0.05 3.4,48.55 h -2.8 -0.5 -0.5 -0.5"
     id="path110" />
  <path
     stroke="none"
     fill="#63b448"
     d="m 212.6,265.7 v -0.25 l -0.1,-0.25 -0.85,-0.9 -0.3,-0.15 -0.3,0.05 -0.25,0.25 q -1.4,2.95 -0.65,6.35 0.9,4.25 4.55,6.7 3.65,2.3 7.9,1.5 3.85,-0.8 6.15,-3.9 l 0.1,-0.3 -0.15,-0.35 -0.45,-0.45 q -0.15,-0.15 -0.35,-0.15 l -0.35,0.15 q -1.85,1.9 -4.65,2.45 -3.6,0.7 -6.6,-1.25 -3.1,-2 -3.8,-5.55 -0.45,-2.1 0.1,-3.95 m 35.45,-20.35 2.5,0.45 q 9.65,10.85 6.05,27.2 -2.95,13.2 -0.65,28.4 -11.6,1.9 -23.25,1.85 h -0.5 -0.5 q -11.65,0.05 -23.25,-1.85 2.3,-15.2 -0.65,-28.4 -3.6,-16.35 6.05,-27.2 l 2.5,-0.45 q 0.65,3.55 4.55,6.15 4.7,3.2 11.3,3.2 6.6,0 11.3,-3.2 3.9,-2.6 4.55,-6.15 m 4.3,20.35 q 0.5,1.85 0.05,3.95 -0.7,3.55 -3.75,5.55 -3.05,1.95 -6.65,1.25 -2.8,-0.55 -4.55,-2.45 l -0.35,-0.15 q -0.25,0 -0.35,0.15 l -0.5,0.45 -0.2,0.3 0.1,0.35 q 2.3,3.1 6.2,3.9 4.25,0.8 7.9,-1.5 3.6,-2.45 4.5,-6.7 0.75,-3.4 -0.65,-6.35 l -0.2,-0.25 -0.3,-0.05 -0.3,0.15 -0.85,0.9 -0.1,0.25 v 0.25"
     id="path112" />
  <path
     stroke="none"
     fill="#529c39"
     d="m 252.35,265.7 v -0.25 l 0.1,-0.25 0.85,-0.9 0.3,-0.15 0.3,0.05 0.2,0.25 q 1.4,2.95 0.65,6.35 -0.9,4.25 -4.5,6.7 -3.65,2.3 -7.9,1.5 -3.9,-0.8 -6.2,-3.9 l -0.1,-0.35 0.2,-0.3 0.5,-0.45 q 0.1,-0.15 0.35,-0.15 l 0.35,0.15 q 1.75,1.9 4.55,2.45 3.6,0.7 6.65,-1.25 3.05,-2 3.75,-5.55 0.45,-2.1 -0.05,-3.95 m -39.75,0 q -0.55,1.85 -0.1,3.95 0.7,3.55 3.8,5.55 3,1.95 6.6,1.25 2.8,-0.55 4.65,-2.45 l 0.35,-0.15 q 0.2,0 0.35,0.15 l 0.45,0.45 0.15,0.35 -0.1,0.3 q -2.3,3.1 -6.15,3.9 -4.25,0.8 -7.9,-1.5 -3.65,-2.45 -4.55,-6.7 -0.75,-3.4 0.65,-6.35 l 0.25,-0.25 0.3,-0.05 0.3,0.15 0.85,0.9 0.1,0.25 v 0.25"
     id="path114" />
  <path
     stroke="none"
     fill="#529c39"
     d="m 305.85,243 q 2.1,1 4.15,2.15 -3,11.5 -10.5,20.1 l -1.95,-0.6 Q 305,254.8 305.85,243"
     id="path116" />
  <path
     stroke="none"
     fill="#63b448"
     d="m 305.85,243 q -0.85,11.8 -8.3,21.65 -5.5,-1.55 -11.8,-1.95 -11.85,-13.2 -5.4,-27.35 l 2.55,0.45 q 12.7,2.25 22.95,7.2"
     id="path118" />
  <path
     stroke="none"
     fill="#77c25e"
     d="m 310,245.15 q 3.8,2.1 7.25,4.7 -4.3,10.9 -12.5,17.5 -2.5,-1.2 -5.25,-2.1 7.5,-8.6 10.5,-20.1"
     id="path120" />
  <path
     stroke="none"
     fill="#63b448"
     d="m 288.55,302.95 -2.8,-0.25 q -11.85,-13.2 -5.4,-27.35 l 2.55,0.45 7.35,1.6 q 1.35,12.5 -1.7,25.55"
     id="path122" />
  <path
     stroke="none"
     fill="#77c25e"
     d="m 294.2,278.5 5.85,2 q 0.2,13.15 -5.85,23.35 l -4,-0.7 q 3.7,-11.85 4,-24.65"
     id="path124" />
  <path
     stroke="none"
     fill="#529c39"
     d="m 294.2,278.5 q -0.3,12.8 -4,24.65 l -1.65,-0.2 q 3.05,-13.05 1.7,-25.55 l 3.95,1.1"
     id="path126" />
  <path
     stroke="none"
     fill="#77c25e"
     d="m 331.15,203.9 3.85,5.9 q -3,8.8 -13.35,12.7 l -2.6,-3.65 q 8.75,-6.75 12.1,-14.95"
     id="path128" />
  <path
     stroke="none"
     fill="#529c39"
     d="m 327.65,199.5 3.5,4.4 q -3.35,8.2 -12.1,14.95 l -1.4,-1.7 q 7.95,-6.85 10,-17.65"
     id="path130" />
  <path
     stroke="none"
     fill="#63b448"
     d="m 327.65,199.5 q -2.05,10.8 -10,17.65 -11.4,-13.1 -31.9,-14.45 -11.85,-13.2 -5.4,-27.35 l 2.55,0.45 q 28.75,5.15 44.75,23.7"
     id="path132" />
  <path
     stroke="none"
     fill="#63b448"
     d="m 206.85,194 q 0.15,-10.5 7,-18.2 l 2.5,-0.45 q 0.65,3.55 4.55,6.15 4.7,3.2 11.3,3.2 6.6,0 11.3,-3.2 3.9,-2.6 4.55,-6.15 l 2.5,0.45 q 6.8,7.6 7.05,17.95 h -0.05 l -0.25,0.2 -0.9,1 -0.1,0.2 v 0.25 q 0.55,2.05 0.05,4.4 -0.8,3.95 -4.2,6.2 -3.4,2.2 -7.45,1.4 -3.1,-0.6 -5.15,-2.75 l -0.3,-0.15 q -0.25,0 -0.35,0.15 l -0.55,0.5 -0.2,0.3 0.1,0.35 q 2.55,3.45 6.85,4.3 4.7,0.9 8.75,-1.65 l 2.05,-1.7 q -1.95,11.6 0.05,24.65 -11.6,1.9 -23.25,1.85 h -0.5 -0.5 q -11.65,0.05 -23.25,-1.85 2.05,-13.45 -0.05,-25.35 1.1,1.35 2.7,2.4 4,2.55 8.7,1.65 4.3,-0.85 6.85,-4.3 l 0.1,-0.35 -0.15,-0.3 -0.55,-0.5 -0.35,-0.15 q -0.2,0 -0.35,0.15 -2.05,2.15 -5.15,2.75 -4.05,0.8 -7.4,-1.4 -3.45,-2.25 -4.25,-6.2 -0.5,-2.35 0.1,-4.4 v -0.25 l -0.1,-0.2 -0.9,-1 -0.3,-0.2 -0.3,0.05 -0.2,0.2"
     id="path134" />
  <path
     stroke="none"
     fill="#529c39"
     d="m 206.85,194 0.2,-0.2 0.3,-0.05 0.3,0.2 0.9,1 0.1,0.2 v 0.25 q -0.6,2.05 -0.1,4.4 0.8,3.95 4.25,6.2 3.35,2.2 7.4,1.4 3.1,-0.6 5.15,-2.75 0.15,-0.15 0.35,-0.15 l 0.35,0.15 0.55,0.5 0.15,0.3 -0.1,0.35 q -2.55,3.45 -6.85,4.3 -4.7,0.9 -8.7,-1.65 -1.6,-1.05 -2.7,-2.4 -1.75,-2.1 -2.35,-5 -0.8,-3.75 0.75,-7 l 0.05,-0.05 m 49.05,12.75 -2.05,1.7 q -4.05,2.55 -8.75,1.65 -4.3,-0.85 -6.85,-4.3 l -0.1,-0.35 0.2,-0.3 0.55,-0.5 q 0.1,-0.15 0.35,-0.15 l 0.3,0.15 q 2.05,2.15 5.15,2.75 4.05,0.8 7.45,-1.4 3.4,-2.25 4.2,-6.2 0.5,-2.35 -0.05,-4.4 v -0.25 l 0.1,-0.2 0.9,-1 0.25,-0.2 h 0.05 l 0.3,0.05 0.2,0.25 q 1.55,3.25 0.75,7 -0.7,3.35 -2.95,5.7"
     id="path136" />
  <path
     stroke="none"
     fill="#63b448"
     d="m 183.5,181.5 q 3.9,-2.6 4.55,-6.15 l 2.5,0.45 q 9.65,10.85 6.05,27.2 -2.95,13.2 -0.65,28.4 -11.6,1.9 -23.25,1.85 h -0.5 -0.5 q -11.65,0.05 -23.25,-1.85 2.3,-15.2 -0.65,-28.4 -3.6,-16.35 6.05,-27.2 l 2.5,-0.45 q 0.65,3.55 4.55,6.15 4.7,3.2 11.3,3.2 6.6,0 11.3,-3.2 m 6.35,10.6 -12.05,1.6 0.75,8.5 6.35,2.2 5.55,-4.45 -0.6,-7.85"
     id="path138" />
  <path
     stroke="none"
     fill="#529c39"
     d="m 189.85,192.1 0.6,7.85 -5.55,4.45 -6.35,-2.2 -0.75,-8.5 12.05,-1.6"
     id="path140" />
  <path
     stroke="none"
     fill="#63b448"
     d="m 100.65,232.85 -12.2,-1.45 q 2.3,-15.2 -0.65,-28.4 -3.6,-16.35 6.05,-27.2 l 2.5,-0.45 q 0.65,3.55 4.55,6.15 4.7,3.2 11.3,3.2 6.6,0 11.3,-3.2 3.9,-2.6 4.55,-6.15 l 2.5,0.45 q 9.65,10.85 6.05,27.2 -2.95,13.2 -0.65,28.4 l -12.15,1.45 2.4,-11.05 -4.85,-6.15 h -18.3 l -4.85,6.15 2.45,11.05"
     id="path142" />
  <path
     stroke="none"
     fill="#529c39"
     d="m 100.65,232.85 -2.45,-11.05 4.85,-6.15 h 18.3 l 4.85,6.15 -2.4,11.05 -11.1,0.4 h -0.5 -0.5 l -11.05,-0.4"
     id="path144" />
  <path
     stroke="none"
     fill="#63b448"
     d="m 33.85,175.8 2.5,-0.45 q 0.65,3.55 4.55,6.15 4.7,3.2 11.3,3.2 6.6,0 11.3,-3.2 3.9,-2.6 4.55,-6.15 l 2.5,0.45 q 9.65,10.85 6.05,27.2 -2.95,13.2 -0.65,28.4 -11.6,1.9 -23.25,1.85 H 52.2 51.7 Q 40.05,233.3 28.45,231.4 30.75,216.2 27.8,203 24.2,186.65 33.85,175.8"
     id="path146" />
  <path
     stroke="none"
     fill="#e05848"
     d="m 370.9,181.5 q 4.7,3.2 11.3,3.2 6.6,0 11.3,-3.2 3.9,-2.6 4.55,-6.15 l 2.5,0.45 q 9.65,10.85 6.05,27.2 -2.95,13.2 -0.65,28.4 -11.6,1.9 -23.25,1.85 h -0.5 -0.5 q -11.65,0.05 -23.25,-1.85 2.3,-15.2 -0.65,-28.4 -3.6,-16.35 6.05,-27.2 l 2.5,-0.45 q 0.65,3.55 4.55,6.15"
     id="path148" />
  <path
     stroke="none"
     fill="#e05848"
     d="m 430.65,232.85 -12.2,-1.45 q 2.3,-15.2 -0.65,-28.4 -3.6,-16.35 6.05,-27.2 l 2.5,-0.45 q 0.65,3.55 4.55,6.15 4.7,3.2 11.3,3.2 6.6,0 11.3,-3.2 3.9,-2.6 4.55,-6.15 l 2.5,0.45 q 9.65,10.85 6.05,27.2 -2.95,13.2 -0.65,28.4 l -12.15,1.45 2.4,-11.05 -4.85,-6.15 h -18.3 l -4.85,6.15 2.45,11.05"
     id="path150" />
  <path
     stroke="none"
     fill="#bf493b"
     d="m 430.65,232.85 -2.45,-11.05 4.85,-6.15 h 18.3 l 4.85,6.15 -2.4,11.05 -11.1,0.4 h -0.5 -0.5 l -11.05,-0.4"
     id="path152" />
  <path
     stroke="none"
     fill="#e05848"
     d="m 490.9,181.5 q 4.7,3.2 11.3,3.2 6.6,0 11.3,-3.2 3.9,-2.6 4.55,-6.15 l 2.5,0.45 q 9.65,10.85 6.05,27.2 -2.95,13.2 -0.65,28.4 -11.6,1.9 -23.25,1.85 h -0.5 -0.5 q -11.65,0.05 -23.25,-1.85 2.3,-15.2 -0.65,-28.4 -3.6,-16.35 6.05,-27.2 l 2.5,-0.45 q 0.65,3.55 4.55,6.15 m 28.95,10.6 -12.05,1.6 0.75,8.5 6.35,2.2 5.55,-4.45 -0.6,-7.85"
     id="path154" />
  <path
     stroke="none"
     fill="#bf493b"
     d="m 519.85,192.1 0.6,7.85 -5.55,4.45 -6.35,-2.2 -0.75,-8.5 12.05,-1.6"
     id="path156" />
  <path
     stroke="none"
     fill="#e05848"
     d="m 536.85,194 q 0.15,-10.5 7,-18.2 l 2.5,-0.45 q 0.65,3.55 4.55,6.15 4.7,3.2 11.3,3.2 6.6,0 11.3,-3.2 3.9,-2.6 4.55,-6.15 l 2.5,0.45 q 6.8,7.6 7.05,17.95 h -0.05 l -0.25,0.2 -0.9,1 -0.1,0.2 v 0.25 q 0.55,2.05 0.05,4.4 -0.8,3.95 -4.2,6.2 -3.4,2.2 -7.45,1.4 -3.1,-0.6 -5.15,-2.75 l -0.3,-0.15 q -0.25,0 -0.35,0.15 l -0.55,0.5 -0.2,0.3 0.1,0.35 q 2.55,3.45 6.85,4.3 4.7,0.9 8.75,-1.65 l 2.05,-1.7 q -1.95,11.6 0.05,24.65 -11.6,1.9 -23.25,1.85 h -0.5 -0.5 q -11.65,0.05 -23.25,-1.85 2.05,-13.45 -0.05,-25.35 1.1,1.35 2.7,2.4 4,2.55 8.7,1.65 4.3,-0.85 6.85,-4.3 l 0.1,-0.35 -0.15,-0.3 -0.55,-0.5 -0.35,-0.15 -0.35,0.15 q -2.05,2.15 -5.15,2.75 -4.05,0.8 -7.4,-1.4 -3.45,-2.25 -4.25,-6.2 -0.5,-2.35 0.1,-4.4 v -0.25 l -0.1,-0.2 -0.9,-1 -0.3,-0.2 -0.3,0.05 -0.2,0.2"
     id="path158" />
  <path
     stroke="none"
     fill="#bf493b"
     d="m 536.85,194 0.2,-0.2 0.3,-0.05 0.3,0.2 0.9,1 0.1,0.2 v 0.25 q -0.6,2.05 -0.1,4.4 0.8,3.95 4.25,6.2 3.35,2.2 7.4,1.4 3.1,-0.6 5.15,-2.75 l 0.35,-0.15 0.35,0.15 0.55,0.5 0.15,0.3 -0.1,0.35 q -2.55,3.45 -6.85,4.3 -4.7,0.9 -8.7,-1.65 -1.6,-1.05 -2.7,-2.4 -1.75,-2.1 -2.35,-5 -0.8,-3.75 0.75,-7 l 0.05,-0.05 m 49.05,12.75 -2.05,1.7 q -4.05,2.55 -8.75,1.65 -4.3,-0.85 -6.85,-4.3 l -0.1,-0.35 0.2,-0.3 0.55,-0.5 q 0.1,-0.15 0.35,-0.15 l 0.3,0.15 q 2.05,2.15 5.15,2.75 4.05,0.8 7.45,-1.4 3.4,-2.25 4.2,-6.2 0.5,-2.35 -0.05,-4.4 v -0.25 l 0.1,-0.2 0.9,-1 0.25,-0.2 h 0.05 l 0.3,0.05 0.2,0.25 q 1.55,3.25 0.75,7 -0.7,3.35 -2.95,5.7"
     id="path160" />
  <path
     stroke="none"
     fill="#bf493b"
     d="m 649.05,218.85 -1.4,-1.7 q 7.95,-6.85 10,-17.65 l 3.5,4.4 q -3.35,8.2 -12.1,14.95"
     id="path162" />
  <path
     stroke="none"
     fill="#ec6656"
     d="m 649.05,218.85 q 8.75,-6.75 12.1,-14.95 l 3.85,5.9 q -3,8.8 -13.35,12.7 l -2.6,-3.65"
     id="path164" />
  <path
     stroke="none"
     fill="#e05848"
     d="m 647.65,217.15 q -11.4,-13.1 -31.9,-14.45 -11.85,-13.2 -5.4,-27.35 l 2.55,0.45 q 28.75,5.15 44.75,23.7 -2.05,10.8 -10,17.65"
     id="path166" />
  <path
     stroke="none"
     fill="#bf493b"
     d="m 635.85,243 q 2.1,1 4.15,2.15 -3,11.5 -10.5,20.1 l -1.95,-0.6 Q 635,254.8 635.85,243"
     id="path168" />
  <path
     stroke="none"
     fill="#e05848"
     d="m 635.85,243 q -0.85,11.8 -8.3,21.65 -5.5,-1.55 -11.8,-1.95 -11.85,-13.2 -5.4,-27.35 l 2.55,0.45 q 12.7,2.25 22.95,7.2"
     id="path170" />
  <path
     stroke="none"
     fill="#ec6656"
     d="m 640,245.15 q 3.8,2.1 7.25,4.7 -4.3,10.9 -12.5,17.5 -2.5,-1.2 -5.25,-2.1 7.5,-8.6 10.5,-20.1"
     id="path172" />
  <path
     stroke="none"
     fill="#ec6656"
     d="m 624.2,278.5 5.85,2 q 0.2,13.15 -5.85,23.35 l -4,-0.7 q 3.7,-11.85 4,-24.65"
     id="path174" />
  <path
     stroke="none"
     fill="#bf493b"
     d="m 624.2,278.5 q -0.3,12.8 -4,24.65 l -1.65,-0.2 q 3.05,-13.05 1.7,-25.55 l 3.95,1.1"
     id="path176" />
  <path
     stroke="none"
     fill="#e05848"
     d="m 618.55,302.95 -2.8,-0.25 q -11.85,-13.2 -5.4,-27.35 l 2.55,0.45 q 3.8,0.65 7.35,1.6 1.35,12.5 -1.7,25.55"
     id="path178" />
  <path
     stroke="none"
     fill="#e05848"
     d="m 578.05,245.35 2.5,0.45 q 9.65,10.85 6.05,27.2 -2.95,13.2 -0.65,28.4 -11.6,1.9 -23.25,1.85 h -0.5 -0.5 q -11.65,0.05 -23.25,-1.85 2.3,-15.2 -0.65,-28.4 -3.6,-16.35 6.05,-27.2 l 2.5,-0.45 q 0.65,3.55 4.55,6.15 4.7,3.2 11.3,3.2 6.6,0 11.3,-3.2 3.9,-2.6 4.55,-6.15 m -37,18.85 -0.25,0.25 q -1.4,2.95 -0.65,6.35 0.9,4.25 4.55,6.7 3.65,2.3 7.9,1.5 3.85,-0.8 6.15,-3.9 l 0.1,-0.3 -0.15,-0.35 -0.45,-0.45 q -0.15,-0.15 -0.35,-0.15 -0.2,0 -0.35,0.15 -1.85,1.9 -4.65,2.45 -3.6,0.7 -6.6,-1.25 -3.1,-2 -3.8,-5.55 -0.45,-2.1 0.1,-3.95 v -0.25 l -0.1,-0.25 -0.85,-0.9 -0.3,-0.15 -0.3,0.05 m 43.7,6.6 q 0.75,-3.4 -0.65,-6.35 l -0.2,-0.25 -0.3,-0.05 -0.3,0.15 -0.85,0.9 -0.1,0.25 v 0.25 q 0.5,1.85 0.05,3.95 -0.7,3.55 -3.75,5.55 -3.05,1.95 -6.65,1.25 -2.8,-0.55 -4.55,-2.45 l -0.35,-0.15 q -0.25,0 -0.35,0.15 l -0.5,0.45 -0.2,0.3 0.1,0.35 q 2.3,3.1 6.2,3.9 4.25,0.8 7.9,-1.5 3.6,-2.45 4.5,-6.7"
     id="path180" />
  <path
     stroke="none"
     fill="#bf493b"
     d="m 584.75,270.8 q -0.9,4.25 -4.5,6.7 -3.65,2.3 -7.9,1.5 -3.9,-0.8 -6.2,-3.9 l -0.1,-0.35 0.2,-0.3 0.5,-0.45 q 0.1,-0.15 0.35,-0.15 l 0.35,0.15 q 1.75,1.9 4.55,2.45 3.6,0.7 6.65,-1.25 3.05,-2 3.75,-5.55 0.45,-2.1 -0.05,-3.95 v -0.25 l 0.1,-0.25 0.85,-0.9 0.3,-0.15 0.3,0.05 0.2,0.25 q 1.4,2.95 0.65,6.35 m -43.7,-6.6 0.3,-0.05 0.3,0.15 0.85,0.9 0.1,0.25 v 0.25 q -0.55,1.85 -0.1,3.95 0.7,3.55 3.8,5.55 3,1.95 6.6,1.25 2.8,-0.55 4.65,-2.45 0.15,-0.15 0.35,-0.15 0.2,0 0.35,0.15 l 0.45,0.45 0.15,0.35 -0.1,0.3 q -2.3,3.1 -6.15,3.9 -4.25,0.8 -7.9,-1.5 -3.65,-2.45 -4.55,-6.7 -0.75,-3.4 0.65,-6.35 l 0.25,-0.25"
     id="path182" />
  <path
     stroke="none"
     fill="#e05848"
     d="m 520.45,269.95 -0.6,-7.85 -12.05,1.6 0.75,8.5 6.35,2.2 5.55,-4.45 m -19.25,33.3 q -11.4,0 -22.75,-1.85 2.3,-15.2 -0.65,-28.4 -3.6,-16.35 6.05,-27.2 l 2.5,-0.45 q 0.65,3.55 4.55,6.15 4,2.75 9.45,3.15 l 0.85,48.6 m 0.9,-48.55 h 0.1 q 6.6,0 11.3,-3.2 3.9,-2.6 4.55,-6.15 l 2.5,0.45 q 9.65,10.85 6.05,27.2 -2.95,13.2 -0.65,28.4 -10.2,1.65 -20.45,1.85 l -3.4,-48.55"
     id="path184" />
  <path
     stroke="none"
     fill="#bf493b"
     d="m 501.2,303.25 -0.85,-48.6 1.75,0.05 3.4,48.55 h -2.8 -0.5 -0.5 -0.5 m 19.25,-33.3 -5.55,4.45 -6.35,-2.2 -0.75,-8.5 12.05,-1.6 0.6,7.85"
     id="path186" />
  <path
     stroke="none"
     fill="#e05848"
     d="m 442.1,254.7 h 0.1 q 6.6,0 11.3,-3.2 3.9,-2.6 4.55,-6.15 l 2.5,0.45 q 9.65,10.85 6.05,27.2 -2.95,13.2 -0.65,28.4 -10.2,1.65 -20.45,1.85 l -3.4,-48.55 m -0.9,48.55 q -11.4,0 -22.75,-1.85 2.3,-15.2 -0.65,-28.4 -3.6,-16.35 6.05,-27.2 l 2.5,-0.45 q 0.65,3.55 4.55,6.15 4,2.75 9.45,3.15 l 0.85,48.6"
     id="path188" />
  <path
     stroke="none"
     fill="#bf493b"
     d="m 441.2,303.25 -0.85,-48.6 1.75,0.05 3.4,48.55 h -2.8 -0.5 -0.5 -0.5"
     id="path190" />
  <path
     stroke="none"
     fill="#e05848"
     d="m 380.55,254.65 1.65,0.05 1.65,-0.05 3.1,6.8 13.1,-12.75 -2,-3.35 2.5,0.45 q 9.65,10.85 6.05,27.2 -2.95,13.2 -0.65,28.4 -11.6,1.9 -23.25,1.85 h -0.5 -0.5 q -11.65,0.05 -23.25,-1.85 2.3,-15.2 -0.65,-28.4 -3.6,-16.35 6.05,-27.2 l 2.5,-0.45 -2,3.35 13.1,12.75 3.1,-6.8"
     id="path192" />
  <path
     stroke="none"
     fill="#bf493b"
     d="m 398.05,245.35 2,3.35 -13.1,12.75 -3.1,-6.8 q 5.55,-0.35 9.65,-3.15 3.9,-2.6 4.55,-6.15 m -17.5,9.3 -3.1,6.8 -13.1,-12.75 2,-3.35 q 0.65,3.55 4.55,6.15 4.1,2.8 9.65,3.15"
     id="path194" />
  <path
     stroke="none"
     fill="#95a5a6"
     d="m 398.05,395.35 2.5,0.45 q 9.65,10.85 6.05,27.2 -2.95,13.2 -0.65,28.4 l -7.5,1.05 -15.75,0.8 h -0.5 -0.5 q -11.65,0.05 -23.25,-1.85 2.3,-15.2 -0.65,-28.4 -3.6,-16.35 6.05,-27.2 l 2.5,-0.45 -2,3.35 13.1,12.75 3.1,-6.8 1.65,0.05 1.65,-0.05 3.1,6.8 13.1,-12.75 -2,-3.35"
     id="path196" />
  <path
     stroke="none"
     fill="#7b8f91"
     d="m 398.05,395.35 2,3.35 -13.1,12.75 -3.1,-6.8 q 5.55,-0.35 9.65,-3.15 3.9,-2.6 4.55,-6.15 m -17.5,9.3 -3.1,6.8 -13.1,-12.75 2,-3.35 q 0.65,3.55 4.55,6.15 4.1,2.8 9.65,3.15"
     id="path198" />
  <path
     stroke="none"
     fill="#95a5a6"
     d="m 441.2,453.25 q -11.4,0 -22.75,-1.85 2.3,-15.2 -0.65,-28.4 -3.6,-16.35 6.05,-27.2 l 2.5,-0.45 q 0.65,3.55 4.55,6.15 4,2.75 9.45,3.15 l 0.85,48.6 m 0.9,-48.55 h 0.1 q 6.6,0 11.3,-3.2 3.9,-2.6 4.55,-6.15 l 2.5,0.45 q 9.65,10.85 6.05,27.2 -2.95,13.2 -0.65,28.4 -10.2,1.65 -20.45,1.85 l -3.4,-48.55"
     id="path200" />
  <path
     stroke="none"
     fill="#7b8f91"
     d="m 441.2,453.25 -0.85,-48.6 1.75,0.05 3.4,48.55 h -2.8 -0.5 -0.5 -0.5"
     id="path202" />
  <path
     stroke="none"
     fill="#95a5a6"
     d="m 502.1,404.7 h 0.1 q 6.6,0 11.3,-3.2 3.9,-2.6 4.55,-6.15 l 2.5,0.45 q 9.65,10.85 6.05,27.2 -2.95,13.2 -0.65,28.4 -10.2,1.65 -20.45,1.85 l -3.4,-48.55 m -0.9,48.55 q -11.4,0 -22.75,-1.85 2.3,-15.2 -0.65,-28.4 -3.6,-16.35 6.05,-27.2 l 2.5,-0.45 q 0.65,3.55 4.55,6.15 4,2.75 9.45,3.15 l 0.85,48.6 m 18.65,-41.15 -12.05,1.6 0.75,8.5 6.35,2.2 5.55,-4.45 -0.6,-7.85"
     id="path204" />
  <path
     stroke="none"
     fill="#7b8f91"
     d="m 519.85,412.1 0.6,7.85 -5.55,4.45 -6.35,-2.2 -0.75,-8.5 12.05,-1.6 m -17.75,-7.4 3.4,48.55 h -2.8 -0.5 -0.5 -0.5 l -0.85,-48.6 1.75,0.05"
     id="path206" />
  <path
     stroke="none"
     fill="#95a5a6"
     d="m 542.6,415.7 v -0.25 l -0.1,-0.25 -0.85,-0.9 -0.3,-0.15 -0.3,0.05 -0.25,0.25 q -1.4,2.95 -0.65,6.35 0.9,4.25 4.55,6.7 3.65,2.3 7.9,1.5 3.85,-0.8 6.15,-3.9 l 0.1,-0.3 -0.15,-0.35 -0.45,-0.45 q -0.15,-0.15 -0.35,-0.15 -0.2,0 -0.35,0.15 -1.85,1.9 -4.65,2.45 -3.6,0.7 -6.6,-1.25 -3.1,-2 -3.8,-5.55 -0.45,-2.1 0.1,-3.95 m 1.25,-19.9 2.5,-0.45 q 0.65,3.55 4.55,6.15 4.7,3.2 11.3,3.2 6.6,0 11.3,-3.2 3.9,-2.6 4.55,-6.15 l 2.5,0.45 q 9.65,10.85 6.05,27.2 -2.95,13.2 -0.65,28.4 -11.6,1.9 -23.25,1.85 h -0.5 -0.5 q -11.65,0.05 -23.25,-1.85 2.3,-15.2 -0.65,-28.4 -3.6,-16.35 6.05,-27.2 m 38.5,19.9 q 0.5,1.85 0.05,3.95 -0.7,3.55 -3.75,5.55 -3.05,1.95 -6.65,1.25 -2.8,-0.55 -4.55,-2.45 l -0.35,-0.15 q -0.25,0 -0.35,0.15 l -0.5,0.45 -0.2,0.3 0.1,0.35 q 2.3,3.1 6.2,3.9 4.25,0.8 7.9,-1.5 3.6,-2.45 4.5,-6.7 0.75,-3.4 -0.65,-6.35 l -0.2,-0.25 -0.3,-0.05 -0.3,0.15 -0.85,0.9 -0.1,0.25 v 0.25"
     id="path208" />
  <path
     stroke="none"
     fill="#7b8f91"
     d="m 582.35,415.7 v -0.25 l 0.1,-0.25 0.85,-0.9 0.3,-0.15 0.3,0.05 0.2,0.25 q 1.4,2.95 0.65,6.35 -0.9,4.25 -4.5,6.7 -3.65,2.3 -7.9,1.5 -3.9,-0.8 -6.2,-3.9 l -0.1,-0.35 0.2,-0.3 0.5,-0.45 q 0.1,-0.15 0.35,-0.15 l 0.35,0.15 q 1.75,1.9 4.55,2.45 3.6,0.7 6.65,-1.25 3.05,-2 3.75,-5.55 0.45,-2.1 -0.05,-3.95 m -39.75,0 q -0.55,1.85 -0.1,3.95 0.7,3.55 3.8,5.55 3,1.95 6.6,1.25 2.8,-0.55 4.65,-2.45 0.15,-0.15 0.35,-0.15 0.2,0 0.35,0.15 l 0.45,0.45 0.15,0.35 -0.1,0.3 q -2.3,3.1 -6.15,3.9 -4.25,0.8 -7.9,-1.5 -3.65,-2.45 -4.55,-6.7 -0.75,-3.4 0.65,-6.35 l 0.25,-0.25 0.3,-0.05 0.3,0.15 0.85,0.9 0.1,0.25 v 0.25"
     id="path210" />
  <path
     stroke="none"
     fill="#aab3b4"
     d="m 624.2,428.5 5.85,2 q 0.2,13.15 -5.85,23.35 l -4,-0.7 q 3.7,-11.85 4,-24.65"
     id="path212" />
  <path
     stroke="none"
     fill="#7b8f91"
     d="m 624.2,428.5 q -0.3,12.8 -4,24.65 l -1.65,-0.2 q 3.05,-13.05 1.7,-25.55 l 3.95,1.1"
     id="path214" />
  <path
     stroke="none"
     fill="#95a5a6"
     d="m 618.55,452.95 -2.8,-0.25 q -11.85,-13.2 -5.4,-27.35 l 2.55,0.45 q 3.8,0.65 7.35,1.6 1.35,12.5 -1.7,25.55"
     id="path216" />
  <path
     stroke="none"
     fill="#7b8f91"
     d="m 635.85,393 q 2.1,1 4.15,2.15 -3,11.5 -10.5,20.1 l -1.95,-0.6 Q 635,404.8 635.85,393"
     id="path218" />
  <path
     stroke="none"
     fill="#95a5a6"
     d="m 635.85,393 q -0.85,11.8 -8.3,21.65 -5.5,-1.55 -11.8,-1.95 -11.85,-13.2 -5.4,-27.35 l 2.55,0.45 q 12.7,2.25 22.95,7.2"
     id="path220" />
  <path
     stroke="none"
     fill="#aab3b4"
     d="m 640,395.15 q 3.8,2.1 7.25,4.7 -4.3,10.9 -12.5,17.5 -2.5,-1.2 -5.25,-2.1 7.5,-8.6 10.5,-20.1"
     id="path222" />
  <path
     stroke="none"
     fill="#7b8f91"
     d="m 647.65,367.15 q 7.95,-6.85 10,-17.65 l 3.5,4.4 q -3.35,8.2 -12.1,14.95 l -1.4,-1.7"
     id="path224" />
  <path
     stroke="none"
     fill="#aab3b4"
     d="m 661.15,353.9 3.85,5.9 q -3,8.8 -13.35,12.7 l -2.6,-3.65 q 8.75,-6.75 12.1,-14.95"
     id="path226" />
  <path
     stroke="none"
     fill="#95a5a6"
     d="m 647.65,367.15 q -11.4,-13.1 -31.9,-14.45 -11.85,-13.2 -5.4,-27.35 l 2.55,0.45 q 28.75,5.15 44.75,23.7 -2.05,10.8 -10,17.65"
     id="path228" />
  <path
     stroke="none"
     fill="#95a5a6"
     d="m 536.85,344 q 0.15,-10.5 7,-18.2 l 2.5,-0.45 q 0.65,3.55 4.55,6.15 4.7,3.2 11.3,3.2 6.6,0 11.3,-3.2 3.9,-2.6 4.55,-6.15 l 2.5,0.45 q 6.8,7.6 7.05,17.95 h -0.05 l -0.25,0.2 -0.9,1 -0.1,0.2 v 0.25 q 0.55,2.05 0.05,4.4 -0.8,3.95 -4.2,6.2 -3.4,2.2 -7.45,1.4 -3.1,-0.6 -5.15,-2.75 l -0.3,-0.15 q -0.25,0 -0.35,0.15 l -0.55,0.5 -0.2,0.3 0.1,0.35 q 2.55,3.45 6.85,4.3 4.7,0.9 8.75,-1.65 l 2.05,-1.7 q -1.95,11.6 0.05,24.65 -11.6,1.9 -23.25,1.85 h -0.5 -0.5 q -11.65,0.05 -23.25,-1.85 2.05,-13.45 -0.05,-25.35 1.1,1.35 2.7,2.4 4,2.55 8.7,1.65 4.3,-0.85 6.85,-4.3 l 0.1,-0.35 -0.15,-0.3 -0.55,-0.5 -0.35,-0.15 -0.35,0.15 q -2.05,2.15 -5.15,2.75 -4.05,0.8 -7.4,-1.4 -3.45,-2.25 -4.25,-6.2 -0.5,-2.35 0.1,-4.4 v -0.25 l -0.1,-0.2 -0.9,-1 -0.3,-0.2 -0.3,0.05 -0.2,0.2"
     id="path230" />
  <path
     stroke="none"
     fill="#7b8f91"
     d="m 536.85,344 0.2,-0.2 0.3,-0.05 0.3,0.2 0.9,1 0.1,0.2 v 0.25 q -0.6,2.05 -0.1,4.4 0.8,3.95 4.25,6.2 3.35,2.2 7.4,1.4 3.1,-0.6 5.15,-2.75 l 0.35,-0.15 0.35,0.15 0.55,0.5 0.15,0.3 -0.1,0.35 q -2.55,3.45 -6.85,4.3 -4.7,0.9 -8.7,-1.65 -1.6,-1.05 -2.7,-2.4 -1.75,-2.1 -2.35,-5 -0.8,-3.75 0.75,-7 l 0.05,-0.05 m 49.05,12.75 -2.05,1.7 q -4.05,2.55 -8.75,1.65 -4.3,-0.85 -6.85,-4.3 l -0.1,-0.35 0.2,-0.3 0.55,-0.5 q 0.1,-0.15 0.35,-0.15 l 0.3,0.15 q 2.05,2.15 5.15,2.75 4.05,0.8 7.45,-1.4 3.4,-2.25 4.2,-6.2 0.5,-2.35 -0.05,-4.4 v -0.25 l 0.1,-0.2 0.9,-1 0.25,-0.2 h 0.05 l 0.3,0.05 0.2,0.25 q 1.55,3.25 0.75,7 -0.7,3.35 -2.95,5.7"
     id="path232" />
  <path
     stroke="none"
     fill="#95a5a6"
     d="m 478.45,381.4 q 2.3,-15.2 -0.65,-28.4 -3.6,-16.35 6.05,-27.2 l 2.5,-0.45 q 0.65,3.55 4.55,6.15 4.7,3.2 11.3,3.2 6.6,0 11.3,-3.2 3.9,-2.6 4.55,-6.15 l 2.5,0.45 q 9.65,10.85 6.05,27.2 -2.95,13.2 -0.65,28.4 -11.6,1.9 -23.25,1.85 h -0.5 -0.5 q -11.65,0.05 -23.25,-1.85 m 41.4,-39.3 -12.05,1.6 0.75,8.5 6.35,2.2 5.55,-4.45 -0.6,-7.85"
     id="path234" />
  <path
     stroke="none"
     fill="#7b8f91"
     d="m 519.85,342.1 0.6,7.85 -5.55,4.45 -6.35,-2.2 -0.75,-8.5 12.05,-1.6"
     id="path236" />
  <path
     stroke="none"
     fill="#95a5a6"
     d="m 430.65,382.85 -12.2,-1.45 q 2.3,-15.2 -0.65,-28.4 -3.6,-16.35 6.05,-27.2 l 2.5,-0.45 q 0.65,3.55 4.55,6.15 4.7,3.2 11.3,3.2 6.6,0 11.3,-3.2 3.9,-2.6 4.55,-6.15 l 2.5,0.45 q 9.65,10.85 6.05,27.2 -2.95,13.2 -0.65,28.4 l -12.15,1.45 2.4,-11.05 -4.85,-6.15 h -18.3 l -4.85,6.15 2.45,11.05"
     id="path238" />
  <path
     stroke="none"
     fill="#7b8f91"
     d="m 430.65,382.85 -2.45,-11.05 4.85,-6.15 h 18.3 l 4.85,6.15 -2.4,11.05 -11.1,0.4 h -0.5 -0.5 l -11.05,-0.4"
     id="path240" />
  <path
     stroke="none"
     fill="#95a5a6"
     d="m 370.9,331.5 q 4.7,3.2 11.3,3.2 6.6,0 11.3,-3.2 3.9,-2.6 4.55,-6.15 l 2.5,0.45 q 9.65,10.85 6.05,27.2 -2.95,13.2 -0.65,28.4 l -14.3,1.6 -8.95,0.25 h -0.5 -0.5 l -8.95,-0.25 -14.3,-1.6 q 2.3,-15.2 -0.65,-28.4 -3.6,-16.35 6.05,-27.2 l 2.5,-0.45 q 0.65,3.55 4.55,6.15"
     id="path242" />
  <path
     stroke="none"
     fill="#16a085"
     d="m 40.9,331.5 q 4.7,3.2 11.3,3.2 6.6,0 11.3,-3.2 3.9,-2.6 4.55,-6.15 l 2.5,0.45 q 9.65,10.85 6.05,27.2 -2.95,13.2 -0.65,28.4 -11.6,1.9 -23.25,1.85 H 52.2 51.7 Q 40.05,383.3 28.45,381.4 30.75,366.2 27.8,353 24.2,336.65 33.85,325.8 l 2.5,-0.45 q 0.65,3.55 4.55,6.15"
     id="path244" />
  <path
     stroke="none"
     fill="#16a085"
     d="m 100.65,382.85 -12.2,-1.45 q 2.3,-15.2 -0.65,-28.4 -3.6,-16.35 6.05,-27.2 l 2.5,-0.45 q 0.65,3.55 4.55,6.15 4.7,3.2 11.3,3.2 6.6,0 11.3,-3.2 3.9,-2.6 4.55,-6.15 l 2.5,0.45 q 9.65,10.85 6.05,27.2 -2.95,13.2 -0.65,28.4 l -12.15,1.45 2.4,-11.05 -4.85,-6.15 h -18.3 l -4.85,6.15 2.45,11.05"
     id="path246" />
  <path
     stroke="none"
     fill="#108a72"
     d="m 100.65,382.85 -2.45,-11.05 4.85,-6.15 h 18.3 l 4.85,6.15 -2.4,11.05 -11.1,0.4 h -0.5 -0.5 l -11.05,-0.4"
     id="path248" />
  <path
     stroke="none"
     fill="#16a085"
     d="m 156.35,325.35 q 0.65,3.55 4.55,6.15 4.7,3.2 11.3,3.2 6.6,0 11.3,-3.2 3.9,-2.6 4.55,-6.15 l 2.5,0.45 q 9.65,10.85 6.05,27.2 -2.95,13.2 -0.65,28.4 -11.6,1.9 -23.25,1.85 h -0.5 -0.5 q -11.65,0.05 -23.25,-1.85 2.3,-15.2 -0.65,-28.4 -3.6,-16.35 6.05,-27.2 l 2.5,-0.45 m 33.5,16.75 -12.05,1.6 0.75,8.5 6.35,2.2 5.55,-4.45 -0.6,-7.85"
     id="path250" />
  <path
     stroke="none"
     fill="#108a72"
     d="m 189.85,342.1 0.6,7.85 -5.55,4.45 -6.35,-2.2 -0.75,-8.5 12.05,-1.6"
     id="path252" />
  <path
     stroke="none"
     fill="#16a085"
     d="m 206.85,344 q 0.15,-10.5 7,-18.2 l 2.5,-0.45 q 0.65,3.55 4.55,6.15 4.7,3.2 11.3,3.2 6.6,0 11.3,-3.2 3.9,-2.6 4.55,-6.15 l 2.5,0.45 q 6.8,7.6 7.05,17.95 h -0.05 l -0.25,0.2 -0.9,1 -0.1,0.2 v 0.25 q 0.55,2.05 0.05,4.4 -0.8,3.95 -4.2,6.2 -3.4,2.2 -7.45,1.4 -3.1,-0.6 -5.15,-2.75 l -0.3,-0.15 q -0.25,0 -0.35,0.15 l -0.55,0.5 -0.2,0.3 0.1,0.35 q 2.55,3.45 6.85,4.3 4.7,0.9 8.75,-1.65 l 2.05,-1.7 q -1.95,11.6 0.05,24.65 -11.6,1.9 -23.25,1.85 h -0.5 -0.5 q -11.65,0.05 -23.25,-1.85 2.05,-13.45 -0.05,-25.35 1.1,1.35 2.7,2.4 4,2.55 8.7,1.65 4.3,-0.85 6.85,-4.3 l 0.1,-0.35 -0.15,-0.3 -0.55,-0.5 -0.35,-0.15 q -0.2,0 -0.35,0.15 -2.05,2.15 -5.15,2.75 -4.05,0.8 -7.4,-1.4 -3.45,-2.25 -4.25,-6.2 -0.5,-2.35 0.1,-4.4 v -0.25 l -0.1,-0.2 -0.9,-1 -0.3,-0.2 -0.3,0.05 -0.2,0.2"
     id="path254" />
  <path
     stroke="none"
     fill="#108a72"
     d="m 206.85,344 0.2,-0.2 0.3,-0.05 0.3,0.2 0.9,1 0.1,0.2 v 0.25 q -0.6,2.05 -0.1,4.4 0.8,3.95 4.25,6.2 3.35,2.2 7.4,1.4 3.1,-0.6 5.15,-2.75 0.15,-0.15 0.35,-0.15 l 0.35,0.15 0.55,0.5 0.15,0.3 -0.1,0.35 q -2.55,3.45 -6.85,4.3 -4.7,0.9 -8.7,-1.65 -1.6,-1.05 -2.7,-2.4 -1.75,-2.1 -2.35,-5 -0.8,-3.75 0.75,-7 l 0.05,-0.05 m 49.05,12.75 -2.05,1.7 q -4.05,2.55 -8.75,1.65 -4.3,-0.85 -6.85,-4.3 l -0.1,-0.35 0.2,-0.3 0.55,-0.5 q 0.1,-0.15 0.35,-0.15 l 0.3,0.15 q 2.05,2.15 5.15,2.75 4.05,0.8 7.45,-1.4 3.4,-2.25 4.2,-6.2 0.5,-2.35 -0.05,-4.4 v -0.25 l 0.1,-0.2 0.9,-1 0.25,-0.2 h 0.05 l 0.3,0.05 0.2,0.25 q 1.55,3.25 0.75,7 -0.7,3.35 -2.95,5.7"
     id="path256" />
  <path
     stroke="none"
     fill="#16a085"
     d="m 213.85,395.8 2.5,-0.45 q 0.65,3.55 4.55,6.15 4.7,3.2 11.3,3.2 6.6,0 11.3,-3.2 3.9,-2.6 4.55,-6.15 l 2.5,0.45 q 9.65,10.85 6.05,27.2 -2.95,13.2 -0.65,28.4 -11.6,1.9 -23.25,1.85 h -0.5 -0.5 q -11.65,0.05 -23.25,-1.85 2.3,-15.2 -0.65,-28.4 -3.6,-16.35 6.05,-27.2 m -1.25,19.65 -0.1,-0.25 -0.85,-0.9 -0.3,-0.15 -0.3,0.05 -0.25,0.25 q -1.4,2.95 -0.65,6.35 0.9,4.25 4.55,6.7 3.65,2.3 7.9,1.5 3.85,-0.8 6.15,-3.9 l 0.1,-0.3 -0.15,-0.35 -0.45,-0.45 q -0.15,-0.15 -0.35,-0.15 l -0.35,0.15 q -1.85,1.9 -4.65,2.45 -3.6,0.7 -6.6,-1.25 -3.1,-2 -3.8,-5.55 -0.45,-2.1 0.1,-3.95 v -0.25 m 40.7,-1.15 -0.85,0.9 -0.1,0.25 v 0.25 q 0.5,1.85 0.05,3.95 -0.7,3.55 -3.75,5.55 -3.05,1.95 -6.65,1.25 -2.8,-0.55 -4.55,-2.45 l -0.35,-0.15 q -0.25,0 -0.35,0.15 l -0.5,0.45 -0.2,0.3 0.1,0.35 q 2.3,3.1 6.2,3.9 4.25,0.8 7.9,-1.5 3.6,-2.45 4.5,-6.7 0.75,-3.4 -0.65,-6.35 l -0.2,-0.25 -0.3,-0.05 -0.3,0.15"
     id="path258" />
  <path
     stroke="none"
     fill="#108a72"
     d="m 253.3,414.3 0.3,-0.15 0.3,0.05 0.2,0.25 q 1.4,2.95 0.65,6.35 -0.9,4.25 -4.5,6.7 -3.65,2.3 -7.9,1.5 -3.9,-0.8 -6.2,-3.9 l -0.1,-0.35 0.2,-0.3 0.5,-0.45 q 0.1,-0.15 0.35,-0.15 l 0.35,0.15 q 1.75,1.9 4.55,2.45 3.6,0.7 6.65,-1.25 3.05,-2 3.75,-5.55 0.45,-2.1 -0.05,-3.95 v -0.25 l 0.1,-0.25 0.85,-0.9 m -40.7,1.15 v 0.25 q -0.55,1.85 -0.1,3.95 0.7,3.55 3.8,5.55 3,1.95 6.6,1.25 2.8,-0.55 4.65,-2.45 l 0.35,-0.15 q 0.2,0 0.35,0.15 l 0.45,0.45 0.15,0.35 -0.1,0.3 q -2.3,3.1 -6.15,3.9 -4.25,0.8 -7.9,-1.5 -3.65,-2.45 -4.55,-6.7 -0.75,-3.4 0.65,-6.35 l 0.25,-0.25 0.3,-0.05 0.3,0.15 0.85,0.9 0.1,0.25"
     id="path260" />
  <path
     stroke="none"
     fill="#16a085"
     d="m 171.2,453.25 q -11.4,0 -22.75,-1.85 2.3,-15.2 -0.65,-28.4 -3.6,-16.35 6.05,-27.2 l 2.5,-0.45 q 0.65,3.55 4.55,6.15 4,2.75 9.45,3.15 l 0.85,48.6 m 0.9,-48.55 h 0.1 q 6.6,0 11.3,-3.2 3.9,-2.6 4.55,-6.15 l 2.5,0.45 q 9.65,10.85 6.05,27.2 -2.95,13.2 -0.65,28.4 -10.2,1.65 -20.45,1.85 l -3.4,-48.55 m 18.35,15.25 -0.6,-7.85 -12.05,1.6 0.75,8.5 6.35,2.2 5.55,-4.45"
     id="path262" />
  <path
     stroke="none"
     fill="#108a72"
     d="m 190.45,419.95 -5.55,4.45 -6.35,-2.2 -0.75,-8.5 12.05,-1.6 0.6,7.85 m -19.25,33.3 -0.85,-48.6 1.75,0.05 3.4,48.55 h -2.8 -0.5 -0.5 -0.5"
     id="path264" />
  <path
     stroke="none"
     fill="#16a085"
     d="m 111.2,453.25 q -11.4,0 -22.75,-1.85 2.3,-15.2 -0.65,-28.4 -3.6,-16.35 6.05,-27.2 l 2.5,-0.45 q 0.65,3.55 4.55,6.15 4,2.75 9.45,3.15 l 0.85,48.6 m 0.9,-48.55 h 0.1 q 6.6,0 11.3,-3.2 3.9,-2.6 4.55,-6.15 l 2.5,0.45 q 9.65,10.85 6.05,27.2 -2.95,13.2 -0.65,28.4 -10.2,1.65 -20.45,1.85 l -3.4,-48.55"
     id="path266" />
  <path
     stroke="none"
     fill="#108a72"
     d="m 112.1,404.7 3.4,48.55 h -2.8 -0.5 -0.5 -0.5 l -0.85,-48.6 1.75,0.05"
     id="path268" />
  <path
     stroke="none"
     fill="#16a085"
     d="m 68.05,395.35 2.5,0.45 q 9.65,10.85 6.05,27.2 -2.95,13.2 -0.65,28.4 -11.6,1.9 -23.25,1.85 H 52.2 51.7 Q 40.05,453.3 28.45,451.4 30.75,436.2 27.8,423 24.2,406.65 33.85,395.8 l 2.5,-0.45 -2,3.35 13.1,12.75 3.1,-6.8 1.65,0.05 1.65,-0.05 3.1,6.8 13.1,-12.75 -2,-3.35"
     id="path270" />
  <path
     stroke="none"
     fill="#108a72"
     d="m 68.05,395.35 2,3.35 -13.1,12.75 -3.1,-6.8 q 5.55,-0.35 9.65,-3.15 3.9,-2.6 4.55,-6.15 m -17.5,9.3 -3.1,6.8 -13.1,-12.75 2,-3.35 q 0.65,3.55 4.55,6.15 4.1,2.8 9.65,3.15"
     id="path272" />
  <path
     stroke="none"
     fill="#108a72"
     d="m 290.2,453.15 -1.65,-0.2 q 3.05,-13.05 1.7,-25.55 l 3.95,1.1 q -0.3,12.8 -4,24.65"
     id="path274" />
  <path
     stroke="none"
     fill="#26af94"
     d="m 290.2,453.15 q 3.7,-11.85 4,-24.65 l 5.85,2 q 0.2,13.15 -5.85,23.35 l -4,-0.7"
     id="path276" />
  <path
     stroke="none"
     fill="#16a085"
     d="m 288.55,452.95 -2.8,-0.25 q -11.85,-13.2 -5.4,-27.35 l 2.55,0.45 7.35,1.6 q 1.35,12.5 -1.7,25.55"
     id="path278" />
  <path
     stroke="none"
     fill="#16a085"
     d="m 297.55,414.65 q -5.5,-1.55 -11.8,-1.95 -11.85,-13.2 -5.4,-27.35 l 2.55,0.45 q 12.7,2.25 22.95,7.2 -0.85,11.8 -8.3,21.65"
     id="path280" />
  <path
     stroke="none"
     fill="#108a72"
     d="m 297.55,414.65 q 7.45,-9.85 8.3,-21.65 2.1,1 4.15,2.15 -3,11.5 -10.5,20.1 l -1.95,-0.6"
     id="path282" />
  <path
     stroke="none"
     fill="#26af94"
     d="m 310,395.15 q 3.8,2.1 7.25,4.7 -4.3,10.9 -12.5,17.5 -2.5,-1.2 -5.25,-2.1 7.5,-8.6 10.5,-20.1"
     id="path284" />
  <path
     stroke="none"
     fill="#26af94"
     d="m 331.15,353.9 3.85,5.9 q -3,8.8 -13.35,12.7 l -2.6,-3.65 q 8.75,-6.75 12.1,-14.95"
     id="path286" />
  <path
     stroke="none"
     fill="#108a72"
     d="m 331.15,353.9 q -3.35,8.2 -12.1,14.95 l -1.4,-1.7 q 7.95,-6.85 10,-17.65 l 3.5,4.4"
     id="path288" />
  <path
     stroke="none"
     fill="#16a085"
     d="m 317.65,367.15 q -11.4,-13.1 -31.9,-14.45 -11.85,-13.2 -5.4,-27.35 l 2.55,0.45 q 28.75,5.15 44.75,23.7 -2.05,10.8 -10,17.65"
     id="path290" />
  <path
     stroke="none"
     fill="#34495e"
     d="m 33.85,475.8 2.5,-0.45 q 0.65,3.55 4.55,6.15 4.7,3.2 11.3,3.2 6.6,0 11.3,-3.2 3.9,-2.6 4.55,-6.15 l 2.5,0.45 q 9.65,10.85 6.05,27.2 -2.95,13.2 -0.65,28.4 -11.6,1.9 -23.25,1.85 H 52.2 51.7 Q 40.05,533.3 28.45,531.4 30.75,516.2 27.8,503 24.2,486.65 33.85,475.8"
     id="path292" />
  <path
     stroke="none"
     fill="#34495e"
     d="m 100.65,532.85 -12.2,-1.45 q 2.3,-15.2 -0.65,-28.4 -3.6,-16.35 6.05,-27.2 l 2.5,-0.45 q 0.65,3.55 4.55,6.15 4.7,3.2 11.3,3.2 6.6,0 11.3,-3.2 3.9,-2.6 4.55,-6.15 l 2.5,0.45 q 9.65,10.85 6.05,27.2 -2.95,13.2 -0.65,28.4 l -12.15,1.45 2.4,-11.05 -4.85,-6.15 h -18.3 l -4.85,6.15 2.45,11.05"
     id="path294" />
  <path
     stroke="none"
     fill="#2a3c4f"
     d="m 100.65,532.85 -2.45,-11.05 4.85,-6.15 h 18.3 l 4.85,6.15 -2.4,11.05 -11.1,0.4 h -0.5 -0.5 l -11.05,-0.4"
     id="path296" />
  <path
     stroke="none"
     fill="#34495e"
     d="m 183.5,481.5 q 3.9,-2.6 4.55,-6.15 l 2.5,0.45 q 9.65,10.85 6.05,27.2 -2.95,13.2 -0.65,28.4 -11.6,1.9 -23.25,1.85 h -0.5 -0.5 q -11.65,0.05 -23.25,-1.85 2.3,-15.2 -0.65,-28.4 -3.6,-16.35 6.05,-27.2 l 2.5,-0.45 q 0.65,3.55 4.55,6.15 4.7,3.2 11.3,3.2 6.6,0 11.3,-3.2 m 6.35,10.6 -12.05,1.6 0.75,8.5 6.35,2.2 5.55,-4.45 -0.6,-7.85"
     id="path298" />
  <path
     stroke="none"
     fill="#2a3c4f"
     d="m 189.85,492.1 0.6,7.85 -5.55,4.45 -6.35,-2.2 -0.75,-8.5 12.05,-1.6"
     id="path300" />
  <path
     stroke="none"
     fill="#2a3c4f"
     d="m 206.85,494 0.2,-0.2 0.3,-0.05 0.3,0.2 0.9,1 0.1,0.2 v 0.25 q -0.6,2.05 -0.1,4.4 0.8,3.95 4.25,6.2 3.35,2.2 7.4,1.4 3.1,-0.6 5.15,-2.75 0.15,-0.15 0.35,-0.15 l 0.35,0.15 0.55,0.5 0.15,0.3 -0.1,0.35 q -2.55,3.45 -6.85,4.3 -4.7,0.9 -8.7,-1.65 -1.6,-1.05 -2.7,-2.4 -1.75,-2.1 -2.35,-5 -0.8,-3.75 0.75,-7 l 0.05,-0.05 m 49.05,12.75 -2.05,1.7 q -4.05,2.55 -8.75,1.65 -4.3,-0.85 -6.85,-4.3 l -0.1,-0.35 0.2,-0.3 0.55,-0.5 q 0.1,-0.15 0.35,-0.15 l 0.3,0.15 q 2.05,2.15 5.15,2.75 4.05,0.8 7.45,-1.4 3.4,-2.25 4.2,-6.2 0.5,-2.35 -0.05,-4.4 v -0.25 l 0.1,-0.2 0.9,-1 0.25,-0.2 h 0.05 l 0.3,0.05 0.2,0.25 q 1.55,3.25 0.75,7 -0.7,3.35 -2.95,5.7"
     id="path302" />
  <path
     stroke="none"
     fill="#34495e"
     d="m 255.9,506.75 q -1.95,11.6 0.05,24.65 -11.6,1.9 -23.25,1.85 h -0.5 -0.5 q -11.65,0.05 -23.25,-1.85 2.05,-13.45 -0.05,-25.35 1.1,1.35 2.7,2.4 4,2.55 8.7,1.65 4.3,-0.85 6.85,-4.3 l 0.1,-0.35 -0.15,-0.3 -0.55,-0.5 -0.35,-0.15 q -0.2,0 -0.35,0.15 -2.05,2.15 -5.15,2.75 -4.05,0.8 -7.4,-1.4 -3.45,-2.25 -4.25,-6.2 -0.5,-2.35 0.1,-4.4 v -0.25 l -0.1,-0.2 -0.9,-1 -0.3,-0.2 -0.3,0.05 -0.2,0.2 q 0.15,-10.5 7,-18.2 l 2.5,-0.45 q 0.65,3.55 4.55,6.15 4.7,3.2 11.3,3.2 6.6,0 11.3,-3.2 3.9,-2.6 4.55,-6.15 l 2.5,0.45 q 6.8,7.6 7.05,17.95 h -0.05 l -0.25,0.2 -0.9,1 -0.1,0.2 v 0.25 q 0.55,2.05 0.05,4.4 -0.8,3.95 -4.2,6.2 -3.4,2.2 -7.45,1.4 -3.1,-0.6 -5.15,-2.75 l -0.3,-0.15 q -0.25,0 -0.35,0.15 l -0.55,0.5 -0.2,0.3 0.1,0.35 q 2.55,3.45 6.85,4.3 4.7,0.9 8.75,-1.65 l 2.05,-1.7"
     id="path304" />
  <path
     stroke="none"
     fill="#34495e"
     d="m 212.6,565.7 v -0.25 l -0.1,-0.25 -0.85,-0.9 -0.3,-0.15 -0.3,0.05 -0.25,0.25 q -1.4,2.95 -0.65,6.35 0.9,4.25 4.55,6.7 3.65,2.3 7.9,1.5 3.85,-0.8 6.15,-3.9 l 0.1,-0.3 -0.15,-0.35 -0.45,-0.45 q -0.15,-0.15 -0.35,-0.15 l -0.35,0.15 q -1.85,1.9 -4.65,2.45 -3.6,0.7 -6.6,-1.25 -3.1,-2 -3.8,-5.55 -0.45,-2.1 0.1,-3.95 m 3.75,-20.35 q 0.65,3.55 4.55,6.15 4.7,3.2 11.3,3.2 6.6,0 11.3,-3.2 3.9,-2.6 4.55,-6.15 l 2.5,0.45 q 9.65,10.85 6.05,27.2 -2.95,13.2 -0.65,28.4 -11.6,1.9 -23.25,1.85 h -0.5 -0.5 q -11.65,0.05 -23.25,-1.85 2.3,-15.2 -0.65,-28.4 -3.6,-16.35 6.05,-27.2 l 2.5,-0.45 m 25.65,31.1 q -2.8,-0.55 -4.55,-2.45 l -0.35,-0.15 q -0.25,0 -0.35,0.15 l -0.5,0.45 -0.2,0.3 0.1,0.35 q 2.3,3.1 6.2,3.9 4.25,0.8 7.9,-1.5 3.6,-2.45 4.5,-6.7 0.75,-3.4 -0.65,-6.35 l -0.2,-0.25 -0.3,-0.05 -0.3,0.15 -0.85,0.9 -0.1,0.25 v 0.25 q 0.5,1.85 0.05,3.95 -0.7,3.55 -3.75,5.55 -3.05,1.95 -6.65,1.25"
     id="path306" />
  <path
     stroke="none"
     fill="#2a3c4f"
     d="m 242,576.45 q 3.6,0.7 6.65,-1.25 3.05,-2 3.75,-5.55 0.45,-2.1 -0.05,-3.95 v -0.25 l 0.1,-0.25 0.85,-0.9 0.3,-0.15 0.3,0.05 0.2,0.25 q 1.4,2.95 0.65,6.35 -0.9,4.25 -4.5,6.7 -3.65,2.3 -7.9,1.5 -3.9,-0.8 -6.2,-3.9 l -0.1,-0.35 0.2,-0.3 0.5,-0.45 q 0.1,-0.15 0.35,-0.15 l 0.35,0.15 q 1.75,1.9 4.55,2.45 M 212.6,565.7 q -0.55,1.85 -0.1,3.95 0.7,3.55 3.8,5.55 3,1.95 6.6,1.25 2.8,-0.55 4.65,-2.45 l 0.35,-0.15 q 0.2,0 0.35,0.15 l 0.45,0.45 0.15,0.35 -0.1,0.3 q -2.3,3.1 -6.15,3.9 -4.25,0.8 -7.9,-1.5 -3.65,-2.45 -4.55,-6.7 -0.75,-3.4 0.65,-6.35 l 0.25,-0.25 0.3,-0.05 0.3,0.15 0.85,0.9 0.1,0.25 v 0.25"
     id="path308" />
  <path
     stroke="none"
     fill="#34495e"
     d="m 172.1,554.7 h 0.1 q 6.6,0 11.3,-3.2 3.9,-2.6 4.55,-6.15 l 2.5,0.45 q 9.65,10.85 6.05,27.2 -2.95,13.2 -0.65,28.4 -10.2,1.65 -20.45,1.85 l -3.4,-48.55 m -0.9,48.55 q -11.4,0 -22.75,-1.85 2.3,-15.2 -0.65,-28.4 -3.6,-16.35 6.05,-27.2 l 2.5,-0.45 q 0.65,3.55 4.55,6.15 4,2.75 9.45,3.15 l 0.85,48.6 m 13.7,-28.85 5.55,-4.45 -0.6,-7.85 -12.05,1.6 0.75,8.5 6.35,2.2"
     id="path310" />
  <path
     stroke="none"
     fill="#2a3c4f"
     d="m 184.9,574.4 -6.35,-2.2 -0.75,-8.5 12.05,-1.6 0.6,7.85 -5.55,4.45 m -12.8,-19.7 3.4,48.55 h -2.8 -0.5 -0.5 -0.5 l -0.85,-48.6 1.75,0.05"
     id="path312" />
  <path
     stroke="none"
     fill="#34495e"
     d="m 111.2,603.25 q -11.4,0 -22.75,-1.85 2.3,-15.2 -0.65,-28.4 -3.6,-16.35 6.05,-27.2 l 2.5,-0.45 q 0.65,3.55 4.55,6.15 4,2.75 9.45,3.15 l 0.85,48.6 m 0.9,-48.55 h 0.1 q 6.6,0 11.3,-3.2 3.9,-2.6 4.55,-6.15 l 2.5,0.45 q 9.65,10.85 6.05,27.2 -2.95,13.2 -0.65,28.4 -10.2,1.65 -20.45,1.85 l -3.4,-48.55"
     id="path314" />
  <path
     stroke="none"
     fill="#2a3c4f"
     d="m 112.1,554.7 3.4,48.55 h -2.8 -0.5 -0.5 -0.5 l -0.85,-48.6 1.75,0.05"
     id="path316" />
  <path
     stroke="none"
     fill="#34495e"
     d="m 68.05,545.35 2.5,0.45 q 9.65,10.85 6.05,27.2 -2.95,13.2 -0.65,28.4 -11.6,1.9 -23.25,1.85 H 52.2 51.7 Q 40.05,603.3 28.45,601.4 30.75,586.2 27.8,573 24.2,556.65 33.85,545.8 l 2.5,-0.45 -2,3.35 13.1,12.75 3.1,-6.8 1.65,0.05 1.65,-0.05 3.1,6.8 13.1,-12.75 -2,-3.35"
     id="path318" />
  <path
     stroke="none"
     fill="#2a3c4f"
     d="m 68.05,545.35 2,3.35 -13.1,12.75 -3.1,-6.8 q 5.55,-0.35 9.65,-3.15 3.9,-2.6 4.55,-6.15 m -17.5,9.3 -3.1,6.8 -13.1,-12.75 2,-3.35 q 0.65,3.55 4.55,6.15 4.1,2.8 9.65,3.15"
     id="path320" />
  <path
     stroke="none"
     fill="#34495e"
     d="m 288.55,602.95 -2.8,-0.25 q -11.85,-13.2 -5.4,-27.35 l 2.55,0.45 7.35,1.6 q 1.35,12.5 -1.7,25.55"
     id="path322" />
  <path
     stroke="none"
     fill="#455a70"
     d="m 294.2,578.5 5.85,2 q 0.2,13.15 -5.85,23.35 l -4,-0.7 q 3.7,-11.85 4,-24.65"
     id="path324" />
  <path
     stroke="none"
     fill="#2a3c4f"
     d="m 294.2,578.5 q -0.3,12.8 -4,24.65 l -1.65,-0.2 q 3.05,-13.05 1.7,-25.55 l 3.95,1.1"
     id="path326" />
  <path
     stroke="none"
     fill="#34495e"
     d="m 297.55,564.65 q -5.5,-1.55 -11.8,-1.95 -11.85,-13.2 -5.4,-27.35 l 2.55,0.45 q 12.7,2.25 22.95,7.2 -0.85,11.8 -8.3,21.65"
     id="path328" />
  <path
     stroke="none"
     fill="#2a3c4f"
     d="m 297.55,564.65 q 7.45,-9.85 8.3,-21.65 2.1,1 4.15,2.15 -3,11.5 -10.5,20.1 l -1.95,-0.6"
     id="path330" />
  <path
     stroke="none"
     fill="#455a70"
     d="m 310,545.15 q 3.8,2.1 7.25,4.7 -4.3,10.9 -12.5,17.5 -2.5,-1.2 -5.25,-2.1 7.5,-8.6 10.5,-20.1"
     id="path332" />
  <path
     stroke="none"
     fill="#34495e"
     d="m 317.65,517.15 q -11.4,-13.1 -31.9,-14.45 -11.85,-13.2 -5.4,-27.35 l 2.55,0.45 q 28.75,5.15 44.75,23.7 -2.05,10.8 -10,17.65"
     id="path334" />
  <path
     stroke="none"
     fill="#2a3c4f"
     d="m 317.65,517.15 q 7.95,-6.85 10,-17.65 l 3.5,4.4 q -3.35,8.2 -12.1,14.95 l -1.4,-1.7"
     id="path336" />
  <path
     stroke="none"
     fill="#455a70"
     d="m 331.15,503.9 3.85,5.9 q -3,8.8 -13.35,12.7 l -2.6,-3.65 q 8.75,-6.75 12.1,-14.95"
     id="path338" />
  <path
     stroke="none"
     fill="#ffcc00"
     d="m 370.9,481.5 q 4.7,3.2 11.3,3.2 6.6,0 11.3,-3.2 3.9,-2.6 4.55,-6.15 l 2.5,0.45 q 9.65,10.85 6.05,27.2 -2.95,13.2 -0.65,28.4 -11.6,1.9 -23.25,1.85 h -0.5 -0.5 q -11.65,0.05 -23.25,-1.85 2.3,-15.2 -0.65,-28.4 -3.6,-16.35 6.05,-27.2 l 2.5,-0.45 q 0.65,3.55 4.55,6.15"
     id="path340" />
  <path
     stroke="none"
     fill="#ffcc00"
     d="m 398.05,545.35 2.5,0.45 q 9.65,10.85 6.05,27.2 -2.95,13.2 -0.65,28.4 -11.6,1.9 -23.25,1.85 h -0.5 -0.5 q -11.65,0.05 -23.25,-1.85 2.3,-15.2 -0.65,-28.4 -3.6,-16.35 6.05,-27.2 l 2.5,-0.45 -2,3.35 13.1,12.75 3.1,-6.8 1.65,0.05 1.65,-0.05 3.1,6.8 13.1,-12.75 -2,-3.35"
     id="path342" />
  <path
     stroke="none"
     fill="#e7b900"
     d="m 398.05,545.35 2,3.35 -13.1,12.75 -3.1,-6.8 q 5.55,-0.35 9.65,-3.15 3.9,-2.6 4.55,-6.15 m -17.5,9.3 -3.1,6.8 -13.1,-12.75 2,-3.35 q 0.65,3.55 4.55,6.15 4.1,2.8 9.65,3.15"
     id="path344" />
  <path
     stroke="none"
     fill="#e7b900"
     d="m 441.2,603.25 -0.85,-48.6 1.75,0.05 3.4,48.55 h -2.8 -0.5 -0.5 -0.5"
     id="path346" />
  <path
     stroke="none"
     fill="#ffcc00"
     d="m 441.2,603.25 q -11.4,0 -22.75,-1.85 2.3,-15.2 -0.65,-28.4 -3.6,-16.35 6.05,-27.2 l 2.5,-0.45 q 0.65,3.55 4.55,6.15 4,2.75 9.45,3.15 l 0.85,48.6 m 0.9,-48.55 h 0.1 q 6.6,0 11.3,-3.2 3.9,-2.6 4.55,-6.15 l 2.5,0.45 q 9.65,10.85 6.05,27.2 -2.95,13.2 -0.65,28.4 -10.2,1.65 -20.45,1.85 l -3.4,-48.55"
     id="path348" />
  <path
     stroke="none"
     fill="#ffcc00"
     d="m 502.1,554.7 h 0.1 q 6.6,0 11.3,-3.2 3.9,-2.6 4.55,-6.15 l 2.5,0.45 q 9.65,10.85 6.05,27.2 -2.95,13.2 -0.65,28.4 -10.2,1.65 -20.45,1.85 l -3.4,-48.55 m -0.9,48.55 q -11.4,0 -22.75,-1.85 2.3,-15.2 -0.65,-28.4 -3.6,-16.35 6.05,-27.2 l 2.5,-0.45 q 0.65,3.55 4.55,6.15 4,2.75 9.45,3.15 l 0.85,48.6 m 18.65,-41.15 -12.05,1.6 0.75,8.5 6.35,2.2 5.55,-4.45 -0.6,-7.85"
     id="path350" />
  <path
     stroke="none"
     fill="#e7b900"
     d="m 519.85,562.1 0.6,7.85 -5.55,4.45 -6.35,-2.2 -0.75,-8.5 12.05,-1.6 m -17.75,-7.4 3.4,48.55 h -2.8 -0.5 -0.5 -0.5 l -0.85,-48.6 1.75,0.05"
     id="path352" />
  <path
     stroke="none"
     fill="#ffcc00"
     d="m 550.9,551.5 q 4.7,3.2 11.3,3.2 6.6,0 11.3,-3.2 3.9,-2.6 4.55,-6.15 l 2.5,0.45 q 9.65,10.85 6.05,27.2 -2.95,13.2 -0.65,28.4 -11.6,1.9 -23.25,1.85 h -0.5 -0.5 q -11.65,0.05 -23.25,-1.85 2.3,-15.2 -0.65,-28.4 -3.6,-16.35 6.05,-27.2 l 2.5,-0.45 q 0.65,3.55 4.55,6.15 m 15.85,22.5 -0.5,0.45 -0.2,0.3 0.1,0.35 q 2.3,3.1 6.2,3.9 4.25,0.8 7.9,-1.5 3.6,-2.45 4.5,-6.7 0.75,-3.4 -0.65,-6.35 l -0.2,-0.25 -0.3,-0.05 -0.3,0.15 -0.85,0.9 -0.1,0.25 v 0.25 q 0.5,1.85 0.05,3.95 -0.7,3.55 -3.75,5.55 -3.05,1.95 -6.65,1.25 -2.8,-0.55 -4.55,-2.45 l -0.35,-0.15 q -0.25,0 -0.35,0.15 m -24.15,-8.3 v -0.25 l -0.1,-0.25 -0.85,-0.9 -0.3,-0.15 -0.3,0.05 -0.25,0.25 q -1.4,2.95 -0.65,6.35 0.9,4.25 4.55,6.7 3.65,2.3 7.9,1.5 3.85,-0.8 6.15,-3.9 l 0.1,-0.3 -0.15,-0.35 -0.45,-0.45 q -0.15,-0.15 -0.35,-0.15 -0.2,0 -0.35,0.15 -1.85,1.9 -4.65,2.45 -3.6,0.7 -6.6,-1.25 -3.1,-2 -3.8,-5.55 -0.45,-2.1 0.1,-3.95"
     id="path354" />
  <path
     stroke="none"
     fill="#e7b900"
     d="m 542.6,565.7 q -0.55,1.85 -0.1,3.95 0.7,3.55 3.8,5.55 3,1.95 6.6,1.25 2.8,-0.55 4.65,-2.45 0.15,-0.15 0.35,-0.15 0.2,0 0.35,0.15 l 0.45,0.45 0.15,0.35 -0.1,0.3 q -2.3,3.1 -6.15,3.9 -4.25,0.8 -7.9,-1.5 -3.65,-2.45 -4.55,-6.7 -0.75,-3.4 0.65,-6.35 l 0.25,-0.25 0.3,-0.05 0.3,0.15 0.85,0.9 0.1,0.25 v 0.25 m 24.15,8.3 q 0.1,-0.15 0.35,-0.15 l 0.35,0.15 q 1.75,1.9 4.55,2.45 3.6,0.7 6.65,-1.25 3.05,-2 3.75,-5.55 0.45,-2.1 -0.05,-3.95 v -0.25 l 0.1,-0.25 0.85,-0.9 0.3,-0.15 0.3,0.05 0.2,0.25 q 1.4,2.95 0.65,6.35 -0.9,4.25 -4.5,6.7 -3.65,2.3 -7.9,1.5 -3.9,-0.8 -6.2,-3.9 l -0.1,-0.35 0.2,-0.3 0.5,-0.45"
     id="path356" />
  <path
     stroke="none"
     fill="#e7b900"
     d="m 536.85,494 0.2,-0.2 0.3,-0.05 0.3,0.2 0.9,1 0.1,0.2 v 0.25 q -0.6,2.05 -0.1,4.4 0.8,3.95 4.25,6.2 3.35,2.2 7.4,1.4 3.1,-0.6 5.15,-2.75 l 0.35,-0.15 0.35,0.15 0.55,0.5 0.15,0.3 -0.1,0.35 q -2.55,3.45 -6.85,4.3 -4.7,0.9 -8.7,-1.65 -1.6,-1.05 -2.7,-2.4 -1.75,-2.1 -2.35,-5 -0.8,-3.75 0.75,-7 l 0.05,-0.05 m 49.05,12.75 -2.05,1.7 q -4.05,2.55 -8.75,1.65 -4.3,-0.85 -6.85,-4.3 l -0.1,-0.35 0.2,-0.3 0.55,-0.5 q 0.1,-0.15 0.35,-0.15 l 0.3,0.15 q 2.05,2.15 5.15,2.75 4.05,0.8 7.45,-1.4 3.4,-2.25 4.2,-6.2 0.5,-2.35 -0.05,-4.4 v -0.25 l 0.1,-0.2 0.9,-1 0.25,-0.2 h 0.05 l 0.3,0.05 0.2,0.25 q 1.55,3.25 0.75,7 -0.7,3.35 -2.95,5.7"
     id="path358" />
  <path
     stroke="none"
     fill="#ffcc00"
     d="m 585.9,506.75 q -1.95,11.6 0.05,24.65 -11.6,1.9 -23.25,1.85 h -0.5 -0.5 q -11.65,0.05 -23.25,-1.85 2.05,-13.45 -0.05,-25.35 1.1,1.35 2.7,2.4 4,2.55 8.7,1.65 4.3,-0.85 6.85,-4.3 l 0.1,-0.35 -0.15,-0.3 -0.55,-0.5 -0.35,-0.15 -0.35,0.15 q -2.05,2.15 -5.15,2.75 -4.05,0.8 -7.4,-1.4 -3.45,-2.25 -4.25,-6.2 -0.5,-2.35 0.1,-4.4 v -0.25 l -0.1,-0.2 -0.9,-1 -0.3,-0.2 -0.3,0.05 -0.2,0.2 q 0.15,-10.5 7,-18.2 l 2.5,-0.45 q 0.65,3.55 4.55,6.15 4.7,3.2 11.3,3.2 6.6,0 11.3,-3.2 3.9,-2.6 4.55,-6.15 l 2.5,0.45 q 6.8,7.6 7.05,17.95 h -0.05 l -0.25,0.2 -0.9,1 -0.1,0.2 v 0.25 q 0.55,2.05 0.05,4.4 -0.8,3.95 -4.2,6.2 -3.4,2.2 -7.45,1.4 -3.1,-0.6 -5.15,-2.75 l -0.3,-0.15 q -0.25,0 -0.35,0.15 l -0.55,0.5 -0.2,0.3 0.1,0.35 q 2.55,3.45 6.85,4.3 4.7,0.9 8.75,-1.65 l 2.05,-1.7"
     id="path360" />
  <path
     stroke="none"
     fill="#ffcc00"
     d="m 490.9,481.5 q 4.7,3.2 11.3,3.2 6.6,0 11.3,-3.2 3.9,-2.6 4.55,-6.15 l 2.5,0.45 q 9.65,10.85 6.05,27.2 -2.95,13.2 -0.65,28.4 -11.6,1.9 -23.25,1.85 h -0.5 -0.5 q -11.65,0.05 -23.25,-1.85 2.3,-15.2 -0.65,-28.4 -3.6,-16.35 6.05,-27.2 l 2.5,-0.45 q 0.65,3.55 4.55,6.15 m 28.95,10.6 -12.05,1.6 0.75,8.5 6.35,2.2 5.55,-4.45 -0.6,-7.85"
     id="path362" />
  <path
     stroke="none"
     fill="#e7b900"
     d="m 519.85,492.1 0.6,7.85 -5.55,4.45 -6.35,-2.2 -0.75,-8.5 12.05,-1.6"
     id="path364" />
  <path
     stroke="none"
     fill="#ffcc00"
     d="m 430.65,532.85 -12.2,-1.45 q 2.3,-15.2 -0.65,-28.4 -3.6,-16.35 6.05,-27.2 l 2.5,-0.45 q 0.65,3.55 4.55,6.15 4.7,3.2 11.3,3.2 6.6,0 11.3,-3.2 3.9,-2.6 4.55,-6.15 l 2.5,0.45 q 9.65,10.85 6.05,27.2 -2.95,13.2 -0.65,28.4 l -12.15,1.45 2.4,-11.05 -4.85,-6.15 h -18.3 l -4.85,6.15 2.45,11.05"
     id="path366" />
  <path
     stroke="none"
     fill="#e7b900"
     d="m 430.65,532.85 -2.45,-11.05 4.85,-6.15 h 18.3 l 4.85,6.15 -2.4,11.05 -11.1,0.4 h -0.5 -0.5 l -11.05,-0.4"
     id="path368" />
  <path
     stroke="none"
     fill="#e7b900"
     d="m 649.05,518.85 -1.4,-1.7 q 7.95,-6.85 10,-17.65 l 3.5,4.4 q -3.35,8.2 -12.1,14.95"
     id="path370" />
  <path
     stroke="none"
     fill="#ffdb4f"
     d="m 649.05,518.85 q 8.75,-6.75 12.1,-14.95 l 3.85,5.9 q -3,8.8 -13.35,12.7 l -2.6,-3.65"
     id="path372" />
  <path
     stroke="none"
     fill="#ffcc00"
     d="m 647.65,517.15 q -11.4,-13.1 -31.9,-14.45 -11.85,-13.2 -5.4,-27.35 l 2.55,0.45 q 28.75,5.15 44.75,23.7 -2.05,10.8 -10,17.65"
     id="path374" />
  <path
     stroke="none"
     fill="#ffcc00"
     d="m 627.55,564.65 q -5.5,-1.55 -11.8,-1.95 -11.85,-13.2 -5.4,-27.35 l 2.55,0.45 q 12.7,2.25 22.95,7.2 -0.85,11.8 -8.3,21.65"
     id="path376" />
  <path
     stroke="none"
     fill="#e7b900"
     d="m 627.55,564.65 q 7.45,-9.85 8.3,-21.65 2.1,1 4.15,2.15 -3,11.5 -10.5,20.1 l -1.95,-0.6"
     id="path378" />
  <path
     stroke="none"
     fill="#ffdb4f"
     d="m 640,545.15 q 3.8,2.1 7.25,4.7 -4.3,10.9 -12.5,17.5 -2.5,-1.2 -5.25,-2.1 7.5,-8.6 10.5,-20.1"
     id="path380" />
  <path
     stroke="none"
     fill="#ffdb4f"
     d="m 624.2,578.5 5.85,2 q 0.2,13.15 -5.85,23.35 l -4,-0.7 q 3.7,-11.85 4,-24.65"
     id="path382" />
  <path
     stroke="none"
     fill="#e7b900"
     d="m 624.2,578.5 q -0.3,12.8 -4,24.65 l -1.65,-0.2 q 3.05,-13.05 1.7,-25.55 l 3.95,1.1"
     id="path384" />
  <path
     stroke="none"
     fill="#ffcc00"
     d="m 618.55,602.95 -2.8,-0.25 q -11.85,-13.2 -5.4,-27.35 l 2.55,0.45 q 3.8,0.65 7.35,1.6 1.35,12.5 -1.7,25.55"
     id="path386" />
</svg>
