<?xml version="1.0" encoding="UTF-8" standalone="no"?>
<svg
   version="1.1"
   id="svg22"
   sodipodi:docname="vector_hair.svg"
   inkscape:version="1.1.1 (3bf5ae0d25, 2021-09-20)"
   xmlns:inkscape="http://www.inkscape.org/namespaces/inkscape"
   xmlns:sodipodi="http://sodipodi.sourceforge.net/DTD/sodipodi-0.dtd"
   xmlns="http://www.w3.org/2000/svg"
   xmlns:svg="http://www.w3.org/2000/svg">
  <sodipodi:namedview
     id="namedview24"
     pagecolor="#ffffff"
     bordercolor="#666666"
     borderopacity="1.0"
     inkscape:pageshadow="2"
     inkscape:pageopacity="0.0"
     inkscape:pagecheckerboard="0"
     showgrid="false"
     inkscape:zoom="8.0266667"
     inkscape:cx="312.08472"
     inkscape:cy="273.02741"
     inkscape:window-width="3840"
     inkscape:window-height="2136"
     inkscape:window-x="0"
     inkscape:window-y="0"
     inkscape:window-maximized="1"
     inkscape:current-layer="svg22" />
  <defs
     id="defs2" />
  <path
     stroke="none"
     fill="#d4946b"
     d="m 879.7,42.5 q 3.85,7.65 2.6,16.1 -1.15,5.75 -3.25,10.9 l -2.5,-1.5 q 1.75,-7.2 -1.25,-13.55 -12.6,3.45 -26.15,-10.55 -4.05,0.75 -7.75,2.2 -5.25,2.1 -5.85,7.85 l -0.9,8.8 -2.85,1.85 q -0.9,-2.9 -1.5,-6 -1.25,-8.45 2.6,-16.1 6.05,-12.05 23.4,-12.5 17.35,0.45 23.4,12.5 m -37.95,37.85 h 2.95 l 3.95,-6.6 5.8,3.95 2.3,-1.25 q 0.55,3.45 3.3,3.8 14.3,1.55 19.65,12.25 3.85,7.65 2.6,16.1 -1.15,5.75 -3.25,10.9 l -4,-2.5 1,-5 -1.25,-1 0.5,-6.9 q 1,-5.2 -2.95,-7.45 l 0.2,3.2 -7.1,-4.5 -1.45,1.2 -4.45,-3.25 -3.25,-0.25 q -8.05,0.35 -14.9,3.05 -5.25,2.1 -4.1,8 l 0.5,6.9 -1.25,1 1,5 -4,2.5 q -2.1,-5.15 -3.25,-10.9 -1.25,-8.45 2.6,-16.1 2.6,-5.2 7.3,-8.2 1.8,-1.45 1.55,-3.95 m 18.1,43.9 1.55,1.75 4.25,-0.7 q 5,1.4 8.55,4.3 l 2.85,6.5 2.65,0.4 q 3.85,7.65 2.6,16.1 -1.15,5.75 -3.25,10.9 l -4,-2.5 1,-5 -1.25,-1 0.5,-6.9 q 1.15,-5.9 -4.1,-8 -6.85,-2.7 -14.9,-3.05 -8.05,0.35 -14.9,3.05 -5.25,2.1 -4.1,8 l 0.5,6.9 -1.25,1 1,5 -4,2.5 q -2.1,-5.15 -3.25,-10.9 -1.25,-8.45 2.6,-16.1 1.3,-2.55 3.1,-4.6 l 8.05,-3.05 1.2,-3 q 4.8,-1.7 11.05,-1.85 l 3.55,0.25 m -22.55,71.85 0.5,6.9 -1.25,1 1,5 -4,2.5 q -2.1,-5.15 -3.25,-10.9 -1.25,-8.45 2.6,-16.1 6.05,-12.05 23.4,-12.5 6.7,0.15 11.75,2.1 l 0.75,3 3.8,-0.7 q 4.55,3 7.1,8.1 3.85,7.65 2.6,16.1 -1.15,5.75 -3.25,10.9 l -4,-2.5 1,-5 -1.25,-1 0.5,-6.9 q 1.15,-5.9 -4.1,-8 -6.85,-2.7 -14.9,-3.05 -8.05,0.35 -14.9,3.05 -5.25,2.1 -4.1,8 M 809.7,42.5 q 3.85,7.65 2.6,16.1 -1.15,5.75 -3.25,10.9 l -2.5,-1.5 q 1.75,-7.2 -1.25,-13.55 -12.6,3.45 -26.15,-10.55 -4.05,0.75 -7.75,2.2 -5.25,2.1 -5.85,7.85 l -0.9,8.8 -2.85,1.85 q -0.9,-2.9 -1.5,-6 -1.25,-8.45 2.6,-16.1 6.05,-12.05 23.4,-12.5 17.35,0.45 23.4,12.5 m -70.65,27 -2.5,-1.5 q 1.75,-7.2 -1.25,-13.55 -12.6,3.45 -26.15,-10.55 -4.05,0.75 -7.75,2.2 -5.25,2.1 -5.85,7.85 l -0.9,8.8 -2.85,1.85 q -0.9,-2.9 -1.5,-6 -1.25,-8.45 2.6,-16.1 6.05,-12.05 23.4,-12.5 17.35,0.45 23.4,12.5 3.85,7.65 2.6,16.1 -1.15,5.75 -3.25,10.9 m 67.25,5.25 q 8.7,16.85 6.55,30.75 -10.2,-1.4 -18.4,-7.15 3.6,-4.8 3.5,-12.9 5.1,-3.9 8.35,-10.7 m -98.9,13.2 q -0.15,13.5 -4.6,20.65 l -10.25,16.25 q -1.4,-23.45 1.25,-55.75 4,13.4 13.6,18.85 m 8.9,41.85 q 17.35,0.45 23.4,12.5 3.85,7.65 2.6,16.1 -1.15,5.75 -3.25,10.9 l -2.5,-1.5 q 1.75,-7.2 -1.25,-13.55 -12.6,3.45 -26.15,-10.55 -4.05,0.75 -7.75,2.2 -5.25,2.1 -5.85,7.85 l -0.9,8.8 -2.85,1.85 q -0.9,-2.9 -1.5,-6 -1.25,-8.45 2.6,-16.1 6.05,-12.05 23.4,-12.5 m -8.9,58.15 q -0.15,13.5 -4.6,20.65 l -10.25,16.25 q -1.4,-23.45 1.25,-55.75 4,13.4 13.6,18.85 M 809.7,142.5 q 3.85,7.65 2.6,16.1 -1.15,5.75 -3.25,10.9 l -2.5,-1.5 q 1.75,-7.2 -1.25,-13.55 -12.6,3.45 -26.15,-10.55 -4.05,0.75 -7.75,2.2 -5.25,2.1 -5.85,7.85 l -0.9,8.8 -2.85,1.85 q -0.9,-2.9 -1.5,-6 -1.25,-8.45 2.6,-16.1 6.05,-12.05 23.4,-12.5 17.35,0.45 23.4,12.5 m -3.4,32.25 q 8.7,16.85 6.55,30.75 -10.2,-1.4 -18.4,-7.15 3.6,-4.8 3.5,-12.9 5.1,-3.9 8.35,-10.7 m -81.7,13.2 q 9.6,-5.45 13.6,-18.85 2.65,32.3 1.25,55.75 L 729.2,208.6 q -4.45,-7.15 -4.6,-20.65 m 40.8,-13.2 q 3.25,6.8 8.35,10.7 -0.1,8.1 3.5,12.9 -8.2,5.75 -18.4,7.15 -2.15,-13.9 6.55,-30.75 m 44.3,67.75 q 3.85,7.65 2.6,16.1 -1.15,5.75 -3.25,10.9 l -2.5,-1.5 q 1.75,-7.2 -1.25,-13.55 -12.6,3.45 -26.15,-10.55 -4.05,0.75 -7.75,2.2 -5.25,2.1 -5.85,7.85 l -0.9,8.8 -2.85,1.85 q -0.9,-2.9 -1.5,-6 -1.25,-8.45 2.6,-16.1 6.05,-12.05 23.4,-12.5 17.35,0.45 23.4,12.5 m -40.3,38.4 q 1.1,8.65 5.6,18.5 -7.8,2.6 -16.3,0.35 -2.45,-12.15 7.1,-24.75 l 3.6,5.9 m 2,55.2 q -5.25,2.1 -5.85,7.85 l -0.9,8.8 -2.85,1.85 q -0.9,-2.9 -1.5,-6 -1.25,-8.45 2.6,-16.1 6.05,-12.05 23.4,-12.5 17.35,0.45 23.4,12.5 3.85,7.65 2.6,16.1 -1.15,5.75 -3.25,10.9 l -2.5,-1.5 q 1.75,-7.2 -1.25,-13.55 -12.6,3.45 -26.15,-10.55 -4.05,0.75 -7.75,2.2 m -5.6,28.9 3.6,5.9 q 1.1,8.65 5.6,18.5 -7.8,2.6 -16.3,0.35 -2.45,-12.15 7.1,-24.75 m 37,5.9 3.6,-5.9 q 9.55,12.6 7.1,24.75 -8.5,2.25 -16.3,-0.35 4.5,-9.85 5.6,-18.5 m 79.75,-145.55 -0.25,2.25 q -1.15,5.75 -3.25,10.9 l -4,-2.5 1,-5 -1.25,-1 0.5,-6.9 7.25,2.25 m -46,5.65 1,5 -4,2.5 q -2.1,-5.15 -3.25,-10.9 l -0.25,-2.25 7.25,-2.25 0.5,6.9 -1.25,1 m -3,59.5 q -2.1,-5.15 -3.25,-10.9 -0.35,-2.35 -0.3,-4.65 0.25,-25.3 25.65,-27.7 l -1.05,3.85 0.25,-0.05 q 7.15,-4.9 18.05,-2.8 l -3.15,5.55 q 8.55,-3.25 17.05,3.55 l -8.2,4.15 q 5.05,0.95 6.3,7.1 l -3.15,0.2 q 1.35,5.25 0.55,10.8 -1.15,5.75 -3.25,10.9 l -4,-2.5 1,-5 -1.25,-1 0.5,-6.9 q 1.15,-5.9 -4.1,-8 -6.85,-2.7 -14.9,-3.05 -8.05,0.35 -14.9,3.05 -5.25,2.1 -4.1,8 l 0.5,6.9 -1.25,1 1,5 -4,2.5 m 41.5,47.5 1,-5 -1.25,-1 0.5,-6.9 q 1.15,-5.9 -4.1,-8 -6.45,-2.55 -14,-3 -6.35,11.35 -20.05,9.95 l 0.15,1.05 0.5,6.9 -1.25,1 1,5 -4,2.5 q -2.1,-5.15 -3.25,-10.9 -1.25,-8.45 2.6,-16.1 6.05,-12.05 23.4,-12.5 17.35,0.45 23.4,12.5 3.85,7.65 2.6,16.1 -1.15,5.75 -3.25,10.9 l -4,-2.5 m -41.5,52.5 q -2.1,-5.15 -3.25,-10.9 -1.25,-8.45 2.6,-16.1 6.05,-12.05 23.4,-12.5 17.35,0.45 23.4,12.5 3.85,7.65 2.6,16.1 -1.15,5.75 -3.25,10.9 l -4,-2.5 1,-5 -1.25,-1 0.5,-6.9 q 1.15,-5.9 -4.1,-8 -6.85,-2.7 -14.9,-3.05 -8.05,0.35 -14.9,3.05 -5.25,2.1 -4.1,8 l 0.5,6.9 -1.25,1 1,5 -4,2.5"
     id="path4" />
  <path
     stroke="none"
     fill="#d7bf94"
     d="m 659.05,69.5 -2.5,-1.5 q 1.75,-7.2 -1.25,-13.55 -12.6,3.45 -26.15,-10.55 -4.05,0.75 -7.75,2.2 -5.25,2.1 -5.85,7.85 l -0.9,8.8 -2.85,1.85 q -0.9,-2.9 -1.5,-6 -1.25,-8.45 2.6,-16.1 6.05,-12.05 23.4,-12.5 17.35,0.45 23.4,12.5 3.85,7.65 2.6,16.1 -1.15,5.75 -3.25,10.9 m -4.25,41.5 0.5,-6.9 q 1,-5.2 -2.95,-7.45 l 0.2,3.2 -7.1,-4.5 -1.45,1.2 -4.45,-3.25 -3.25,-0.25 q -8.05,0.35 -14.9,3.05 -5.25,2.1 -4.1,8 l 0.5,6.9 -1.25,1 1,5 -4,2.5 q -2.1,-5.15 -3.25,-10.9 -1.25,-8.45 2.6,-16.1 2.6,-5.2 7.3,-8.2 1.8,-1.45 1.55,-3.95 h 2.95 l 3.95,-6.6 5.8,3.95 2.3,-1.25 q 0.55,3.45 3.3,3.8 14.3,1.55 19.65,12.25 3.85,7.65 2.6,16.1 -1.15,5.75 -3.25,10.9 l -4,-2.5 1,-5 -1.25,-1 m 2.25,25.1 2.65,0.4 q 3.85,7.65 2.6,16.1 -1.15,5.75 -3.25,10.9 l -4,-2.5 1,-5 -1.25,-1 0.5,-6.9 q 1.15,-5.9 -4.1,-8 -6.85,-2.7 -14.9,-3.05 -8.05,0.35 -14.9,3.05 -5.25,2.1 -4.1,8 l 0.5,6.9 -1.25,1 1,5 -4,2.5 q -2.1,-5.15 -3.25,-10.9 -1.25,-8.45 2.6,-16.1 1.3,-2.55 3.1,-4.6 l 8.05,-3.05 1.2,-3 q 4.8,-1.7 11.05,-1.85 l 3.55,0.25 1.55,1.75 4.25,-0.7 q 5,1.4 8.55,4.3 l 2.85,6.5 m -5.85,52 q -6.85,-2.7 -14.9,-3.05 -8.05,0.35 -14.9,3.05 -5.25,2.1 -4.1,8 l 0.5,6.9 -1.25,1 1,5 -4,2.5 q -2.1,-5.15 -3.25,-10.9 -1.25,-8.45 2.6,-16.1 6.05,-12.05 23.4,-12.5 6.7,0.15 11.75,2.1 l 0.75,3 3.8,-0.7 q 4.55,3 7.1,8.1 3.85,7.65 2.6,16.1 -1.15,5.75 -3.25,10.9 l -4,-2.5 1,-5 -1.25,-1 0.5,-6.9 q 1.15,-5.9 -4.1,-8 m 4.1,35 7.25,2.25 -0.25,2.25 q -1.15,5.75 -3.25,10.9 l -4,-2.5 1,-5 -1.25,-1 0.5,-6.9 m -5.55,30.7 q 8.55,-3.25 17.05,3.55 l -8.2,4.15 q 5.05,0.95 6.3,7.1 l -3.15,0.2 q 1.35,5.25 0.55,10.8 -1.15,5.75 -3.25,10.9 l -4,-2.5 1,-5 -1.25,-1 0.5,-6.9 q 1.15,-5.9 -4.1,-8 -6.85,-2.7 -14.9,-3.05 -8.05,0.35 -14.9,3.05 -5.25,2.1 -4.1,8 l 0.5,6.9 -1.25,1 1,5 -4,2.5 q -2.1,-5.15 -3.25,-10.9 -0.35,-2.35 -0.3,-4.65 0.25,-25.3 25.65,-27.7 l -1.05,3.85 0.25,-0.05 q 7.15,-4.9 18.05,-2.8 l -3.15,5.55 m 9.3,86.7 -4,-2.5 1,-5 -1.25,-1 0.5,-6.9 q 1.15,-5.9 -4.1,-8 -6.45,-2.55 -14,-3 -6.35,11.35 -20.05,9.95 l 0.15,1.05 0.5,6.9 -1.25,1 1,5 -4,2.5 q -2.1,-5.15 -3.25,-10.9 -1.25,-8.45 2.6,-16.1 6.05,-12.05 23.4,-12.5 17.35,0.45 23.4,12.5 3.85,7.65 2.6,16.1 -1.15,5.75 -3.25,10.9 m -4.25,41.5 0.5,-6.9 q 1.15,-5.9 -4.1,-8 -6.85,-2.7 -14.9,-3.05 -8.05,0.35 -14.9,3.05 -5.25,2.1 -4.1,8 l 0.5,6.9 -1.25,1 1,5 -4,2.5 q -2.1,-5.15 -3.25,-10.9 -1.25,-8.45 2.6,-16.1 6.05,-12.05 23.4,-12.5 17.35,0.45 23.4,12.5 3.85,7.65 2.6,16.1 -1.15,5.75 -3.25,10.9 l -4,-2.5 1,-5 -1.25,-1 M 586.3,74.75 q 8.7,16.85 6.55,30.75 -10.2,-1.4 -18.4,-7.15 3.6,-4.8 3.5,-12.9 5.1,-3.9 8.35,-10.7 m 2.75,-5.25 -2.5,-1.5 q 1.75,-7.2 -1.25,-13.55 -12.6,3.45 -26.15,-10.55 -4.05,0.75 -7.75,2.2 -5.25,2.1 -5.85,7.85 l -0.9,8.8 -2.85,1.85 q -0.9,-2.9 -1.5,-6 -1.25,-8.45 2.6,-16.1 6.05,-12.05 23.4,-12.5 17.35,0.45 23.4,12.5 3.85,7.65 2.6,16.1 -1.15,5.75 -3.25,10.9 m -69.35,-27 q 3.85,7.65 2.6,16.1 -1.15,5.75 -3.25,10.9 l -2.5,-1.5 q 1.75,-7.2 -1.25,-13.55 -12.6,3.45 -26.15,-10.55 -4.05,0.75 -7.75,2.2 -5.25,2.1 -5.85,7.85 l -0.9,8.8 -2.85,1.85 q -0.9,-2.9 -1.5,-6 -1.25,-8.45 2.6,-16.1 6.05,-12.05 23.4,-12.5 17.35,0.45 23.4,12.5 m 46.6,87.5 q 17.35,0.45 23.4,12.5 3.85,7.65 2.6,16.1 -1.15,5.75 -3.25,10.9 l -2.5,-1.5 q 1.75,-7.2 -1.25,-13.55 -12.6,3.45 -26.15,-10.55 -4.05,0.75 -7.75,2.2 -5.25,2.1 -5.85,7.85 l -0.9,8.8 -2.85,1.85 q -0.9,-2.9 -1.5,-6 -1.25,-8.45 2.6,-16.1 6.05,-12.05 23.4,-12.5 m -46.6,12.3 q 3.85,7.65 2.6,16.1 -1.15,5.75 -3.25,10.9 l -2.5,-1.5 q 1.75,-7.2 -1.25,-13.55 -12.6,3.45 -26.15,-10.55 -4.05,0.75 -7.75,2.2 -5.25,2.1 -5.85,7.85 l -0.9,8.8 -2.85,1.85 q -0.9,-2.9 -1.5,-6 -1.25,-8.45 2.6,-16.1 6.05,-12.05 23.4,-12.5 17.35,0.45 23.4,12.5 m 25.7,32.45 q 3.25,6.8 8.35,10.7 -0.1,8.1 3.5,12.9 -8.2,5.75 -18.4,7.15 -2.15,-13.9 6.55,-30.75 m -40.8,13.2 q 9.6,-5.45 13.6,-18.85 2.65,32.3 1.25,55.75 L 509.2,208.6 q -4.45,-7.15 -4.6,-20.65 m 81.7,-13.2 q 8.7,16.85 6.55,30.75 -10.2,-1.4 -18.4,-7.15 3.6,-4.8 3.5,-12.9 5.1,-3.9 8.35,-10.7 m -113.75,-49.9 q -1.4,-23.45 1.25,-55.75 4,13.4 13.6,18.85 -0.15,13.5 -4.6,20.65 l -10.25,16.25 m 0,100 q -1.4,-23.45 1.25,-55.75 4,13.4 13.6,18.85 -0.15,13.5 -4.6,20.65 l -10.25,16.25 m 137.5,0.5 7.25,-2.25 0.5,6.9 -1.25,1 1,5 -4,2.5 q -2.1,-5.15 -3.25,-10.9 l -0.25,-2.25 m -24.75,29.1 q -12.6,3.45 -26.15,-10.55 -4.05,0.75 -7.75,2.2 -5.25,2.1 -5.85,7.85 l -0.9,8.8 -2.85,1.85 q -0.9,-2.9 -1.5,-6 -1.25,-8.45 2.6,-16.1 6.05,-12.05 23.4,-12.5 17.35,0.45 23.4,12.5 3.85,7.65 2.6,16.1 -1.15,5.75 -3.25,10.9 l -2.5,-1.5 q 1.75,-7.2 -1.25,-13.55 m -35.9,26.45 q 1.1,8.65 5.6,18.5 -7.8,2.6 -16.3,0.35 -2.45,-12.15 7.1,-24.75 l 3.6,5.9 m 2,55.2 q -5.25,2.1 -5.85,7.85 l -0.9,8.8 -2.85,1.85 q -0.9,-2.9 -1.5,-6 -1.25,-8.45 2.6,-16.1 6.05,-12.05 23.4,-12.5 17.35,0.45 23.4,12.5 3.85,7.65 2.6,16.1 -1.15,5.75 -3.25,10.9 l -2.5,-1.5 q 1.75,-7.2 -1.25,-13.55 -12.6,3.45 -26.15,-10.55 -4.05,0.75 -7.75,2.2 m -5.6,28.9 3.6,5.9 q 1.1,8.65 5.6,18.5 -7.8,2.6 -16.3,0.35 -2.45,-12.15 7.1,-24.75 m 37,5.9 3.6,-5.9 q 9.55,12.6 7.1,24.75 -8.5,2.25 -16.3,-0.35 4.5,-9.85 5.6,-18.5"
     id="path6" />
  <path
     stroke="none"
     fill="#d4cbb9"
     d="m 439.7,42.5 q 3.85,7.65 2.6,16.1 -1.15,5.75 -3.25,10.9 l -2.5,-1.5 q 1.75,-7.2 -1.25,-13.55 -12.6,3.45 -26.15,-10.55 -4.05,0.75 -7.75,2.2 -5.25,2.1 -5.85,7.85 l -0.9,8.8 -2.85,1.85 q -0.9,-2.9 -1.5,-6 -1.25,-8.45 2.6,-16.1 6.05,-12.05 23.4,-12.5 17.35,0.45 23.4,12.5 m -22.95,33.95 q 0.55,3.45 3.3,3.8 14.3,1.55 19.65,12.25 3.85,7.65 2.6,16.1 -1.15,5.75 -3.25,10.9 l -4,-2.5 1,-5 -1.25,-1 0.5,-6.9 q 1,-5.2 -2.95,-7.45 l 0.2,3.2 -7.1,-4.5 -1.45,1.2 -4.45,-3.25 -3.25,-0.25 q -8.05,0.35 -14.9,3.05 -5.25,2.1 -4.1,8 l 0.5,6.9 -1.25,1 1,5 -4,2.5 q -2.1,-5.15 -3.25,-10.9 -1.25,-8.45 2.6,-16.1 2.6,-5.2 7.3,-8.2 1.8,-1.45 1.55,-3.95 h 2.95 l 3.95,-6.6 5.8,3.95 2.3,-1.25 M 331.4,46.1 q -5.25,2.1 -5.85,7.85 l -0.9,8.8 -2.85,1.85 q -0.9,-2.9 -1.5,-6 -1.25,-8.45 2.6,-16.1 6.05,-12.05 23.4,-12.5 17.35,0.45 23.4,12.5 3.85,7.65 2.6,16.1 -1.15,5.75 -3.25,10.9 l -2.5,-1.5 q 1.75,-7.2 -1.25,-13.55 -12.6,3.45 -26.15,-10.55 -4.05,0.75 -7.75,2.2 m 26.55,39.35 q 5.1,-3.9 8.35,-10.7 8.7,16.85 6.55,30.75 -10.2,-1.4 -18.4,-7.15 3.6,-4.8 3.5,-12.9 m 46.1,43.4 1.2,-3 q 4.8,-1.7 11.05,-1.85 l 3.55,0.25 1.55,1.75 4.25,-0.7 q 5,1.4 8.55,4.3 l 2.85,6.5 2.65,0.4 q 3.85,7.65 2.6,16.1 -1.15,5.75 -3.25,10.9 l -4,-2.5 1,-5 -1.25,-1 0.5,-6.9 q 1.15,-5.9 -4.1,-8 -6.85,-2.7 -14.9,-3.05 -8.05,0.35 -14.9,3.05 -5.25,2.1 -4.1,8 l 0.5,6.9 -1.25,1 1,5 -4,2.5 q -2.1,-5.15 -3.25,-10.9 -1.25,-8.45 2.6,-16.1 1.3,-2.55 3.1,-4.6 l 8.05,-3.05 M 331.4,146.1 q -5.25,2.1 -5.85,7.85 l -0.9,8.8 -2.85,1.85 q -0.9,-2.9 -1.5,-6 -1.25,-8.45 2.6,-16.1 6.05,-12.05 23.4,-12.5 17.35,0.45 23.4,12.5 3.85,7.65 2.6,16.1 -1.15,5.75 -3.25,10.9 l -2.5,-1.5 q 1.75,-7.2 -1.25,-13.55 -12.6,3.45 -26.15,-10.55 -4.05,0.75 -7.75,2.2 m -6,28.65 q 3.25,6.8 8.35,10.7 -0.1,8.1 3.5,12.9 -8.2,5.75 -18.4,7.15 -2.15,-13.9 6.55,-30.75 m 71.9,21.35 0.5,6.9 -1.25,1 1,5 -4,2.5 q -2.1,-5.15 -3.25,-10.9 -1.25,-8.45 2.6,-16.1 6.05,-12.05 23.4,-12.5 6.7,0.15 11.75,2.1 l 0.75,3 3.8,-0.7 q 4.55,3 7.1,8.1 3.85,7.65 2.6,16.1 -1.15,5.75 -3.25,10.9 l -4,-2.5 1,-5 -1.25,-1 0.5,-6.9 q 1.15,-5.9 -4.1,-8 -6.85,-2.7 -14.9,-3.05 -8.05,0.35 -14.9,3.05 -5.25,2.1 -4.1,8 m -31,-21.35 q 8.7,16.85 6.55,30.75 -10.2,-1.4 -18.4,-7.15 3.6,-4.8 3.5,-12.9 5.1,-3.9 8.35,-10.7 m 76,52.85 q -1.15,5.75 -3.25,10.9 l -4,-2.5 1,-5 -1.25,-1 0.5,-6.9 7.25,2.25 -0.25,2.25 m -12.55,26.2 q 8.55,-3.25 17.05,3.55 -4.1,2.1 -8.2,4.15 5.05,0.95 6.3,7.1 l -3.15,0.2 q 1.35,5.25 0.55,10.8 -1.15,5.75 -3.25,10.9 l -4,-2.5 1,-5 -1.25,-1 0.5,-6.9 q 1.15,-5.9 -4.1,-8 -6.85,-2.7 -14.9,-3.05 -8.05,0.35 -14.9,3.05 -5.25,2.1 -4.1,8 l 0.5,6.9 -1.25,1 1,5 -4,2.5 q -2.1,-5.15 -3.25,-10.9 -0.35,-2.35 -0.3,-4.65 0.25,-25.3 25.65,-27.7 l -1.05,3.85 0.25,-0.05 q 7.15,-4.9 18.05,-2.8 l -3.15,5.55 M 397.8,230 l -1.25,1 1,5 -4,2.5 q -2.1,-5.15 -3.25,-10.9 l -0.25,-2.25 7.25,-2.25 0.5,6.9 m -66.4,16.1 q -5.25,2.1 -5.85,7.85 l -0.9,8.8 -2.85,1.85 q -0.9,-2.9 -1.5,-6 -1.25,-8.45 2.6,-16.1 6.05,-12.05 23.4,-12.5 17.35,0.45 23.4,12.5 3.85,7.65 2.6,16.1 -1.15,5.75 -3.25,10.9 l -2.5,-1.5 q 1.75,-7.2 -1.25,-13.55 -12.6,3.45 -26.15,-10.55 -4.05,0.75 -7.75,2.2 m -2,34.8 q 1.1,8.65 5.6,18.5 -7.8,2.6 -16.3,0.35 -2.45,-12.15 7.1,-24.75 l 3.6,5.9 m 68.4,51.1 -1.25,1 1,5 -4,2.5 q -2.1,-5.15 -3.25,-10.9 -1.25,-8.45 2.6,-16.1 6.05,-12.05 23.4,-12.5 17.35,0.45 23.4,12.5 3.85,7.65 2.6,16.1 -1.15,5.75 -3.25,10.9 l -4,-2.5 1,-5 -1.25,-1 0.5,-6.9 q 1.15,-5.9 -4.1,-8 -6.45,-2.55 -14,-3 -6.35,11.35 -20.05,9.95 l 0.15,1.05 0.5,6.9 m -72.25,11.95 -0.9,8.8 -2.85,1.85 q -0.9,-2.9 -1.5,-6 -1.25,-8.45 2.6,-16.1 6.05,-12.05 23.4,-12.5 17.35,0.45 23.4,12.5 3.85,7.65 2.6,16.1 -1.15,5.75 -3.25,10.9 l -2.5,-1.5 q 1.75,-7.2 -1.25,-13.55 -12.6,3.45 -26.15,-10.55 -4.05,0.75 -7.75,2.2 -5.25,2.1 -5.85,7.85 M 335,389.4 q -7.8,2.6 -16.3,0.35 -2.45,-12.15 7.1,-24.75 l 3.6,5.9 q 1.1,8.65 5.6,18.5 m 22.2,0 q 4.5,-9.85 5.6,-18.5 l 3.6,-5.9 q 9.55,12.6 7.1,24.75 -8.5,2.25 -16.3,-0.35 m 40.6,-7.4 -1.25,1 1,5 -4,2.5 q -2.1,-5.15 -3.25,-10.9 -1.25,-8.45 2.6,-16.1 6.05,-12.05 23.4,-12.5 17.35,0.45 23.4,12.5 3.85,7.65 2.6,16.1 -1.15,5.75 -3.25,10.9 l -4,-2.5 1,-5 -1.25,-1 0.5,-6.9 q 1.15,-5.9 -4.1,-8 -6.85,-2.7 -14.9,-3.05 -8.05,0.35 -14.9,3.05 -5.25,2.1 -4.1,8 l 0.5,6.9 M 276.3,30 q 17.35,0.45 23.4,12.5 3.85,7.65 2.6,16.1 -1.15,5.75 -3.25,10.9 l -2.5,-1.5 q 1.75,-7.2 -1.25,-13.55 -12.6,3.45 -26.15,-10.55 -4.05,0.75 -7.75,2.2 -5.25,2.1 -5.85,7.85 l -0.9,8.8 -2.85,1.85 q -0.9,-2.9 -1.5,-6 -1.25,-8.45 2.6,-16.1 6.05,-12.05 23.4,-12.5 m -8.9,57.95 q -0.15,13.5 -4.6,20.65 l -10.25,16.25 q -1.4,-23.45 1.25,-55.75 4,13.4 13.6,18.85 m 8.9,41.85 q 17.35,0.45 23.4,12.5 3.85,7.65 2.6,16.1 -1.15,5.75 -3.25,10.9 l -2.5,-1.5 q 1.75,-7.2 -1.25,-13.55 -12.6,3.45 -26.15,-10.55 -4.05,0.75 -7.75,2.2 -5.25,2.1 -5.85,7.85 l -0.9,8.8 -2.85,1.85 q -0.9,-2.9 -1.5,-6 -1.25,-8.45 2.6,-16.1 6.05,-12.05 23.4,-12.5 m -8.9,58.15 q -0.15,13.5 -4.6,20.65 l -10.25,16.25 q -1.4,-23.45 1.25,-55.75 4,13.4 13.6,18.85 m 17.2,0 q 9.6,-5.45 13.6,-18.85 2.65,32.3 1.25,55.75 L 289.2,208.6 q -4.45,-7.15 -4.6,-20.65"
     id="path8" />
  <path
     stroke="none"
     fill="#3c3c3c"
     d="m 196.3,30 c 11.56667,0.3 19.36667,4.466667 23.4,12.5 2.56667,5.1 3.43333,10.466667 2.6,16.1 -0.76667,3.833333 -1.85,7.466667 -3.25,10.9 l -2.5,-1.5 c 1.16667,-4.8 0.75,-9.316667 -1.25,-13.55 -8.4,2.3 -17.11667,-1.216667 -26.15,-10.55 -2.7,0.5 -5.28333,1.233333 -7.75,2.2 -3.5,1.4 -5.45,4.016667 -5.85,7.85 l -0.9,8.8 -2.85,1.85 c -0.6,-1.933333 -1.1,-3.933333 -1.5,-6 -0.83333,-5.633333 0.0333,-11 2.6,-16.1 4.03333,-8.033333 11.83333,-12.2 23.4,-12.5 m -14.55,50.35 h 2.95 l 3.95,-6.6 5.8,3.95 2.3,-1.25 c 0.36667,2.3 1.46667,3.566667 3.3,3.8 9.53333,1.033333 16.08333,5.116667 19.65,12.25 2.56667,5.1 3.43333,10.46667 2.6,16.1 -0.76667,3.83333 -1.85,7.46667 -3.25,10.9 l -4,-2.5 1,-5 -1.25,-1 0.5,-6.9 c 0.66667,-3.46667 -0.31667,-5.95 -2.95,-7.45 l 0.2,3.2 -7.1,-4.5 -1.45,1.2 -4.45,-3.25 -3.25,-0.25 c -5.36667,0.233333 -10.33333,1.25 -14.9,3.05 -3.5,1.4 -4.86667,4.06667 -4.1,8 l 0.5,6.9 -1.25,1 1,5 -4,2.5 c -1.4,-3.43333 -2.48333,-7.06667 -3.25,-10.9 -0.83333,-5.63333 0.0333,-11 2.6,-16.1 1.73333,-3.466667 4.16667,-6.2 7.3,-8.2 1.2,-0.966667 1.71667,-2.283333 1.55,-3.95 m 32.45,49.25 2.85,6.5 2.65,0.4 c 2.56667,5.1 3.43333,10.46667 2.6,16.1 -0.76667,3.83333 -1.85,7.46667 -3.25,10.9 l -4,-2.5 1,-5 -1.25,-1 0.5,-6.9 c 0.76667,-3.93333 -0.6,-6.6 -4.1,-8 -4.56667,-1.8 -9.53333,-2.81667 -14.9,-3.05 -5.36667,0.23333 -10.33333,1.25 -14.9,3.05 -3.5,1.4 -4.86667,4.06667 -4.1,8 l 0.5,6.9 -1.25,1 1,5 -4,2.5 c -1.4,-3.43333 -2.48333,-7.06667 -3.25,-10.9 -0.83333,-5.63333 0.0333,-11 2.6,-16.1 0.86667,-1.7 1.9,-3.23333 3.1,-4.6 l 8.05,-3.05 1.2,-3 c 3.2,-1.13333 6.88333,-1.75 11.05,-1.85 l 3.55,0.25 1.55,1.75 4.25,-0.7 c 3.33333,0.93333 6.18333,2.36667 8.55,4.3 m -36.9,66.5 0.5,6.9 -1.25,1 1,5 -4,2.5 c -1.4,-3.43333 -2.48333,-7.06667 -3.25,-10.9 -0.83333,-5.63333 0.0333,-11 2.6,-16.1 4.03333,-8.03333 11.83333,-12.2 23.4,-12.5 4.46667,0.1 8.38333,0.8 11.75,2.1 l 0.75,3 3.8,-0.7 c 3.03333,2 5.4,4.7 7.1,8.1 2.56667,5.1 3.43333,10.46667 2.6,16.1 -0.76667,3.83333 -1.85,7.46667 -3.25,10.9 l -4,-2.5 1,-5 -1.25,-1 0.5,-6.9 c 0.76667,-3.93333 -0.6,-6.6 -4.1,-8 -4.56667,-1.8 -9.53333,-2.81667 -14.9,-3.05 -5.36667,0.23333 -10.33333,1.25 -14.9,3.05 -3.5,1.4 -4.86667,4.06667 -4.1,8 M 149.7,42.5 c 2.56667,5.1 3.43333,10.466667 2.6,16.1 -0.76667,3.833333 -1.85,7.466667 -3.25,10.9 l -2.5,-1.5 c 1.16667,-4.8 0.75,-9.316667 -1.25,-13.55 -8.4,2.3 -17.11667,-1.216667 -26.15,-10.55 -2.7,0.5 -5.28333,1.233333 -7.75,2.2 -3.5,1.4 -5.45,4.016667 -5.85,7.85 l -0.9,8.8 -2.85,1.85 c -0.6,-1.933333 -1.1,-3.933333 -1.5,-6 -0.833333,-5.633333 0.0333,-11 2.6,-16.1 4.03333,-8.033333 11.83333,-12.2 23.4,-12.5 11.56667,0.3 19.36667,4.466667 23.4,12.5 m -3.4,32.25 c 5.8,11.233333 7.98333,21.483333 6.55,30.75 -6.8,-0.93333 -12.93333,-3.31667 -18.4,-7.15 2.4,-3.2 3.56667,-7.5 3.5,-12.9 3.4,-2.6 6.18333,-6.166667 8.35,-10.7 M 79.7,42.5 c 2.566667,5.1 3.433333,10.466667 2.6,16.1 -0.766667,3.833333 -1.85,7.466667 -3.25,10.9 L 76.55,68 C 77.716667,63.2 77.3,58.683333 75.3,54.45 66.9,56.75 58.183333,53.233333 49.15,43.9 c -2.7,0.5 -5.283333,1.233333 -7.75,2.2 -3.5,1.4 -5.45,4.016667 -5.85,7.85 l -0.9,8.8 -2.85,1.85 c -0.6,-1.933333 -1.1,-3.933333 -1.5,-6 -0.833333,-5.633333 0.03333,-11 2.6,-16.1 4.033333,-8.033333 11.833333,-12.2 23.4,-12.5 11.566667,0.3 19.366667,4.466667 23.4,12.5 M 47.4,87.95 c -0.1,9 -1.633333,15.88333 -4.6,20.65 L 32.55,124.85 C 31.616667,109.21667 32.033333,90.633333 33.8,69.1 36.466667,78.033333 41,84.316667 47.4,87.95 m 32.3,54.35 c 2.566667,5.1 3.433333,10.46667 2.6,16.1 -0.766667,3.83333 -1.85,7.46667 -3.25,10.9 l -2.5,-1.5 c 1.166667,-4.8 0.75,-9.31667 -1.25,-13.55 -8.4,2.3 -17.116667,-1.21667 -26.15,-10.55 -2.7,0.5 -5.283333,1.23333 -7.75,2.2 -3.5,1.4 -5.45,4.01667 -5.85,7.85 l -0.9,8.8 -2.85,1.85 c -0.6,-1.93333 -1.1,-3.93333 -1.5,-6 -0.833333,-5.63333 0.03333,-11 2.6,-16.1 4.033333,-8.03333 11.833333,-12.2 23.4,-12.5 11.566667,0.3 19.366667,4.46667 23.4,12.5 m -15.1,45.65 c 6.4,-3.63333 10.933333,-9.91667 13.6,-18.85 1.766667,21.53333 2.183333,40.11667 1.25,55.75 L 69.2,208.6 c -2.966667,-4.76667 -4.5,-11.65 -4.6,-20.65 m -17.2,0 c -0.1,9 -1.633333,15.88333 -4.6,20.65 l -10.25,16.25 c -0.933333,-15.63333 -0.516667,-34.21667 1.25,-55.75 2.666667,8.93333 7.2,15.21667 13.6,18.85 M 149.7,142.5 c 2.56667,5.1 3.43333,10.46667 2.6,16.1 -0.76667,3.83333 -1.85,7.46667 -3.25,10.9 l -2.5,-1.5 c 1.16667,-4.8 0.75,-9.31667 -1.25,-13.55 -8.4,2.3 -17.11667,-1.21667 -26.15,-10.55 -2.7,0.5 -5.28333,1.23333 -7.75,2.2 -3.5,1.4 -5.45,4.01667 -5.85,7.85 l -0.9,8.8 -2.85,1.85 c -0.6,-1.93333 -1.1,-3.93333 -1.5,-6 -0.833333,-5.63333 0.0333,-11 2.6,-16.1 4.03333,-8.03333 11.83333,-12.2 23.4,-12.5 11.56667,0.3 19.36667,4.46667 23.4,12.5 m -44.3,32.25 c 2.16667,4.53333 4.95,8.1 8.35,10.7 -0.0667,5.4 1.1,9.7 3.5,12.9 -5.46667,3.83333 -11.6,6.21667 -18.4,7.15 -1.433333,-9.26667 0.75,-19.51667 6.55,-30.75 m 40.9,0 c 5.8,11.23333 7.98333,21.48333 6.55,30.75 -6.8,-0.93333 -12.93333,-3.31667 -18.4,-7.15 2.4,-3.2 3.56667,-7.5 3.5,-12.9 3.4,-2.6 6.18333,-6.16667 8.35,-10.7 m 3.4,67.75 c 2.56667,5.1 3.43333,10.46667 2.6,16.1 -0.76667,3.83333 -1.85,7.46667 -3.25,10.9 l -2.5,-1.5 c 1.16667,-4.8 0.75,-9.31667 -1.25,-13.55 -8.4,2.3 -17.11667,-1.21667 -26.15,-10.55 -2.7,0.5 -5.28333,1.23333 -7.75,2.2 -3.5,1.4 -5.45,4.01667 -5.85,7.85 l -0.9,8.8 -2.85,1.85 c -0.6,-1.93333 -1.1,-3.93333 -1.5,-6 -0.833333,-5.63333 0.0333,-11 2.6,-16.1 4.03333,-8.03333 11.83333,-12.2 23.4,-12.5 11.56667,0.3 19.36667,4.46667 23.4,12.5 m -40.3,38.4 c 0.73333,5.76667 2.6,11.93333 5.6,18.5 -5.2,1.73333 -10.63333,1.85 -16.3,0.35 -1.633333,-8.1 0.733333,-16.35 7.1,-24.75 l 3.6,5.9 m 40.3,51.6 c 2.56667,5.1 3.43333,10.46667 2.6,16.1 -0.76667,3.83333 -1.85,7.46667 -3.25,10.9 l -2.5,-1.5 c 1.16667,-4.8 0.75,-9.31667 -1.25,-13.55 -8.4,2.3 -17.11667,-1.21667 -26.15,-10.55 -2.7,0.5 -5.28333,1.23333 -7.75,2.2 -3.5,1.4 -5.45,4.01667 -5.85,7.85 l -0.9,8.8 -2.85,1.85 c -0.6,-1.93333 -1.1,-3.93333 -1.5,-6 -0.833333,-5.63333 0.0333,-11 2.6,-16.1 4.03333,-8.03333 11.83333,-12.2 23.4,-12.5 11.56667,0.3 19.36667,4.46667 23.4,12.5 m -43.9,32.5 3.6,5.9 c 0.73333,5.76667 2.6,11.93333 5.6,18.5 -5.2,1.73333 -10.63333,1.85 -16.3,0.35 -1.633333,-8.1 0.733333,-16.35 7.1,-24.75 m 40.6,0 c 6.36667,8.4 8.73333,16.65 7.1,24.75 -5.66667,1.5 -11.1,1.38333 -16.3,-0.35 3,-6.56667 4.86667,-12.73333 5.6,-18.5 l 3.6,-5.9 m 68.4,-135 0.5,-6.9 7.25,2.25 -0.25,2.25 c -0.76667,3.83333 -1.85,7.46667 -3.25,10.9 l -4,-2.5 1,-5 -1.25,-1 m -44.5,-2.4 -0.25,-2.25 7.25,-2.25 0.5,6.9 -1.25,1 1,5 -4,2.5 c -1.4,-3.43333 -2.48333,-7.06667 -3.25,-10.9 m 24.55,23.45 c 4.76667,-3.26667 10.78333,-4.2 18.05,-2.8 l -3.15,5.55 c 5.7,-2.16667 11.38333,-0.98333 17.05,3.55 l -8.2,4.15 c 3.36667,0.63333 5.46667,3 6.3,7.1 l -3.15,0.2 c 0.9,3.5 1.08333,7.1 0.55,10.8 -0.76667,3.83333 -1.85,7.46667 -3.25,10.9 l -4,-2.5 1,-5 -1.25,-1 0.5,-6.9 c 0.76667,-3.93333 -0.6,-6.6 -4.1,-8 -4.56667,-1.8 -9.53333,-2.81667 -14.9,-3.05 -5.36667,0.23333 -10.33333,1.25 -14.9,3.05 -3.5,1.4 -4.86667,4.06667 -4.1,8 l 0.5,6.9 -1.25,1 1,5 -4,2.5 c -1.4,-3.43333 -2.48333,-7.06667 -3.25,-10.9 -0.23333,-1.56667 -0.33333,-3.11667 -0.3,-4.65 0.16667,-16.86667 8.71667,-26.1 25.65,-27.7 l -1.05,3.85 0.25,-0.05 m 24.85,62.45 c 2.56667,5.1 3.43333,10.46667 2.6,16.1 -0.76667,3.83333 -1.85,7.46667 -3.25,10.9 l -4,-2.5 1,-5 -1.25,-1 0.5,-6.9 c 0.76667,-3.93333 -0.6,-6.6 -4.1,-8 -4.3,-1.7 -8.96667,-2.7 -14,-3 -4.23333,7.56667 -10.91667,10.88333 -20.05,9.95 l 0.15,1.05 0.5,6.9 -1.25,1 1,5 -4,2.5 c -1.4,-3.43333 -2.48333,-7.06667 -3.25,-10.9 -0.83333,-5.63333 0.0333,-11 2.6,-16.1 4.03333,-8.03333 11.83333,-12.2 23.4,-12.5 11.56667,0.3 19.36667,4.46667 23.4,12.5 m -42.15,74.5 -4,2.5 c -1.4,-3.43333 -2.48333,-7.06667 -3.25,-10.9 -0.83333,-5.63333 0.0333,-11 2.6,-16.1 4.03333,-8.03333 11.83333,-12.2 23.4,-12.5 11.56667,0.3 19.36667,4.46667 23.4,12.5 2.56667,5.1 3.43333,10.46667 2.6,16.1 -0.76667,3.83333 -1.85,7.46667 -3.25,10.9 l -4,-2.5 1,-5 -1.25,-1 0.5,-6.9 c 0.76667,-3.93333 -0.6,-6.6 -4.1,-8 -4.56667,-1.8 -9.53333,-2.81667 -14.9,-3.05 -5.36667,0.23333 -10.33333,1.25 -14.9,3.05 -3.5,1.4 -4.86667,4.06667 -4.1,8 l 0.5,6.9 -1.25,1 1,5"
     id="path10"
     sodipodi:nodetypes="ccccccccccccccccccccccccccccccccccccccccccccccccccccccccccccccccccccccccccccccccccccccccccccccccccccccccccccccccccccccccccccccccccccccccccccccccccccccccccccccccccccccccccccccccccccccccccccccccccccccccccccccccccccccccccccccccccccccccccccccccccccccccccccccccccccccccccccccccccccccccccccccccccccccccccccc" />
  <path
     stroke="none"
     fill="#694c39"
     d="m 222.3,438.6 q -1.15,5.75 -3.25,10.9 l -2.5,-1.5 q 1.75,-7.2 -1.25,-13.55 -12.6,3.45 -26.15,-10.55 -4.05,0.75 -7.75,2.2 -5.25,2.1 -5.85,7.85 l -0.9,8.8 -2.85,1.85 q -0.9,-2.9 -1.5,-6 -1.25,-8.45 2.6,-16.1 6.05,-12.05 23.4,-12.5 17.35,0.45 23.4,12.5 3.85,7.65 2.6,16.1 m -33.65,15.15 5.8,3.95 2.3,-1.25 q 0.55,3.45 3.3,3.8 14.3,1.55 19.65,12.25 3.85,7.65 2.6,16.1 -1.15,5.75 -3.25,10.9 l -4,-2.5 1,-5 -1.25,-1 0.5,-6.9 q 1,-5.2 -2.95,-7.45 l 0.2,3.2 -7.1,-4.5 -1.45,1.2 -4.45,-3.25 -3.25,-0.25 q -8.05,0.35 -14.9,3.05 -5.25,2.1 -4.1,8 l 0.5,6.9 -1.25,1 1,5 -4,2.5 q -2.1,-5.15 -3.25,-10.9 -1.25,-8.45 2.6,-16.1 2.6,-5.2 7.3,-8.2 1.8,-1.45 1.55,-3.95 h 2.95 l 3.95,-6.6 m 25.55,55.85 2.85,6.5 2.65,0.4 q 3.85,7.65 2.6,16.1 -1.15,5.75 -3.25,10.9 l -4,-2.5 1,-5 -1.25,-1 0.5,-6.9 q 1.15,-5.9 -4.1,-8 -6.85,-2.7 -14.9,-3.05 -8.05,0.35 -14.9,3.05 -5.25,2.1 -4.1,8 l 0.5,6.9 -1.25,1 1,5 -4,2.5 q -2.1,-5.15 -3.25,-10.9 -1.25,-8.45 2.6,-16.1 1.3,-2.55 3.1,-4.6 l 8.05,-3.05 1.2,-3 q 4.8,-1.7 11.05,-1.85 l 3.55,0.25 1.55,1.75 4.25,-0.7 q 5,1.4 8.55,4.3 m -43.9,71 q -1.25,-8.45 2.6,-16.1 6.05,-12.05 23.4,-12.5 6.7,0.15 11.75,2.1 l 0.75,3 3.8,-0.7 q 4.55,3 7.1,8.1 3.85,7.65 2.6,16.1 -1.15,5.75 -3.25,10.9 l -4,-2.5 1,-5 -1.25,-1 0.5,-6.9 q 1.15,-5.9 -4.1,-8 -6.85,-2.7 -14.9,-3.05 -8.05,0.35 -14.9,3.05 -5.25,2.1 -4.1,8 l 0.5,6.9 -1.25,1 1,5 -4,2.5 q -2.1,-5.15 -3.25,-10.9 m -18,-142 q -1.15,5.75 -3.25,10.9 l -2.5,-1.5 q 1.75,-7.2 -1.25,-13.55 -12.6,3.45 -26.15,-10.55 -4.05,0.75 -7.75,2.2 -5.25,2.1 -5.85,7.85 l -0.9,8.8 -2.85,1.85 q -0.9,-2.9 -1.5,-6 -1.25,-8.45 2.6,-16.1 6.05,-12.05 23.4,-12.5 17.35,0.45 23.4,12.5 3.85,7.65 2.6,16.1 m -17.85,39.75 q 3.6,-4.8 3.5,-12.9 5.1,-3.9 8.35,-10.7 8.7,16.85 6.55,30.75 -10.2,-1.4 -18.4,-7.15 M 41.4,426.1 q -5.25,2.1 -5.85,7.85 l -0.9,8.8 -2.85,1.85 q -0.9,-2.9 -1.5,-6 -1.25,-8.45 2.6,-16.1 6.05,-12.05 23.4,-12.5 17.35,0.45 23.4,12.5 3.85,7.65 2.6,16.1 -1.15,5.75 -3.25,10.9 l -2.5,-1.5 q 1.75,-7.2 -1.25,-13.55 -12.6,3.45 -26.15,-10.55 -4.05,0.75 -7.75,2.2 m 1.4,62.5 -10.25,16.25 q -1.4,-23.45 1.25,-55.75 4,13.4 13.6,18.85 -0.15,13.5 -4.6,20.65 m 36.9,33.7 q 3.85,7.65 2.6,16.1 -1.15,5.75 -3.25,10.9 l -2.5,-1.5 q 1.75,-7.2 -1.25,-13.55 -12.6,3.45 -26.15,-10.55 -4.05,0.75 -7.75,2.2 -5.25,2.1 -5.85,7.85 l -0.9,8.8 -2.85,1.85 q -0.9,-2.9 -1.5,-6 -1.25,-8.45 2.6,-16.1 6.05,-12.05 23.4,-12.5 17.35,0.45 23.4,12.5 m -10.5,66.3 q -4.45,-7.15 -4.6,-20.65 9.6,-5.45 13.6,-18.85 2.65,32.3 1.25,55.75 L 69.2,588.6 m -26.4,0 -10.25,16.25 q -1.4,-23.45 1.25,-55.75 4,13.4 13.6,18.85 -0.15,13.5 -4.6,20.65 m 109.5,-50 q -1.15,5.75 -3.25,10.9 l -2.5,-1.5 q 1.75,-7.2 -1.25,-13.55 -12.6,3.45 -26.15,-10.55 -4.05,0.75 -7.75,2.2 -5.25,2.1 -5.85,7.85 l -0.9,8.8 -2.85,1.85 q -0.9,-2.9 -1.5,-6 -1.25,-8.45 2.6,-16.1 6.05,-12.05 23.4,-12.5 17.35,0.45 23.4,12.5 3.85,7.65 2.6,16.1 m -53.45,46.9 q -2.15,-13.9 6.55,-30.75 3.25,6.8 8.35,10.7 -0.1,8.1 3.5,12.9 -8.2,5.75 -18.4,7.15 m 35.6,-7.15 q 3.6,-4.8 3.5,-12.9 5.1,-3.9 8.35,-10.7 8.7,16.85 6.55,30.75 -10.2,-1.4 -18.4,-7.15 m 17.85,60.25 q -1.15,5.75 -3.25,10.9 l -2.5,-1.5 q 1.75,-7.2 -1.25,-13.55 -12.6,3.45 -26.15,-10.55 -4.05,0.75 -7.75,2.2 -5.25,2.1 -5.85,7.85 l -0.9,8.8 -2.85,1.85 q -0.9,-2.9 -1.5,-6 -1.25,-8.45 2.6,-16.1 6.05,-12.05 23.4,-12.5 17.35,0.45 23.4,12.5 3.85,7.65 2.6,16.1 m -46.5,16.4 3.6,5.9 q 1.1,8.65 5.6,18.5 -7.8,2.6 -16.3,0.35 -2.45,-12.15 7.1,-24.75 m 43.25,84.5 -2.5,-1.5 q 1.75,-7.2 -1.25,-13.55 -12.6,3.45 -26.15,-10.55 -4.05,0.75 -7.75,2.2 -5.25,2.1 -5.85,7.85 l -0.9,8.8 -2.85,1.85 q -0.9,-2.9 -1.5,-6 -1.25,-8.45 2.6,-16.1 6.05,-12.05 23.4,-12.5 17.35,0.45 23.4,12.5 3.85,7.65 2.6,16.1 -1.15,5.75 -3.25,10.9 m -39.65,11.4 q 1.1,8.65 5.6,18.5 -7.8,2.6 -16.3,0.35 -2.45,-12.15 7.1,-24.75 l 3.6,5.9 m 44.1,18.85 q -8.5,2.25 -16.3,-0.35 4.5,-9.85 5.6,-18.5 l 3.6,-5.9 q 9.55,12.6 7.1,24.75 M 215.05,616 l 1,-5 -1.25,-1 0.5,-6.9 7.25,2.25 -0.25,2.25 q -1.15,5.75 -3.25,10.9 l -4,-2.5 m -5.3,17.8 q 8.55,-3.25 17.05,3.55 l -8.2,4.15 q 5.05,0.95 6.3,7.1 l -3.15,0.2 q 1.35,5.25 0.55,10.8 -1.15,5.75 -3.25,10.9 l -4,-2.5 1,-5 -1.25,-1 0.5,-6.9 q 1.15,-5.9 -4.1,-8 -6.85,-2.7 -14.9,-3.05 -8.05,0.35 -14.9,3.05 -5.25,2.1 -4.1,8 l 0.5,6.9 -1.25,1 1,5 -4,2.5 q -2.1,-5.15 -3.25,-10.9 -0.35,-2.35 -0.3,-4.65 0.25,-25.3 25.65,-27.7 l -1.05,3.85 0.25,-0.05 q 7.15,-4.9 18.05,-2.8 l -3.15,5.55 m -39.45,-26.2 -0.25,-2.25 7.25,-2.25 0.5,6.9 -1.25,1 1,5 -4,2.5 q -2.1,-5.15 -3.25,-10.9 m 45.75,105.4 -1.25,-1 0.5,-6.9 q 1.15,-5.9 -4.1,-8 -6.45,-2.55 -14,-3 -6.35,11.35 -20.05,9.95 l 0.15,1.05 0.5,6.9 -1.25,1 1,5 -4,2.5 q -2.1,-5.15 -3.25,-10.9 -1.25,-8.45 2.6,-16.1 6.05,-12.05 23.4,-12.5 17.35,0.45 23.4,12.5 3.85,7.65 2.6,16.1 -1.15,5.75 -3.25,10.9 l -4,-2.5 1,-5 m -42.5,57.5 q -2.1,-5.15 -3.25,-10.9 -1.25,-8.45 2.6,-16.1 6.05,-12.05 23.4,-12.5 17.35,0.45 23.4,12.5 3.85,7.65 2.6,16.1 -1.15,5.75 -3.25,10.9 l -4,-2.5 1,-5 -1.25,-1 0.5,-6.9 q 1.15,-5.9 -4.1,-8 -6.85,-2.7 -14.9,-3.05 -8.05,0.35 -14.9,3.05 -5.25,2.1 -4.1,8 l 0.5,6.9 -1.25,1 1,5 -4,2.5"
     id="path12" />
  <path
     stroke="none"
     fill="#5d544e"
     d="m 302.3,438.6 q -1.15,5.75 -3.25,10.9 l -2.5,-1.5 q 1.75,-7.2 -1.25,-13.55 -12.6,3.45 -26.15,-10.55 -4.05,0.75 -7.75,2.2 -5.25,2.1 -5.85,7.85 l -0.9,8.8 -2.85,1.85 q -0.9,-2.9 -1.5,-6 -1.25,-8.45 2.6,-16.1 6.05,-12.05 23.4,-12.5 17.35,0.45 23.4,12.5 3.85,7.65 2.6,16.1 m 18,0 q -1.25,-8.45 2.6,-16.1 6.05,-12.05 23.4,-12.5 17.35,0.45 23.4,12.5 3.85,7.65 2.6,16.1 -1.15,5.75 -3.25,10.9 l -2.5,-1.5 q 1.75,-7.2 -1.25,-13.55 -12.6,3.45 -26.15,-10.55 -4.05,0.75 -7.75,2.2 -5.25,2.1 -5.85,7.85 l -0.9,8.8 -2.85,1.85 q -0.9,-2.9 -1.5,-6 m -52.9,29.35 q -0.15,13.5 -4.6,20.65 l -10.25,16.25 q -1.4,-23.45 1.25,-55.75 4,13.4 13.6,18.85 m 34.9,70.45 q -1.15,5.75 -3.25,10.9 l -2.5,-1.5 q 1.75,-7.2 -1.25,-13.55 -12.6,3.45 -26.15,-10.55 -4.05,0.75 -7.75,2.2 -5.25,2.1 -5.85,7.85 l -0.9,8.8 -2.85,1.85 q -0.9,-2.9 -1.5,-6 -1.25,-8.45 2.6,-16.1 6.05,-12.05 23.4,-12.5 17.35,0.45 23.4,12.5 3.85,7.65 2.6,16.1 m 20.6,-15.9 q 6.05,-12.05 23.4,-12.5 17.35,0.45 23.4,12.5 3.85,7.65 2.6,16.1 -1.15,5.75 -3.25,10.9 l -2.5,-1.5 q 1.75,-7.2 -1.25,-13.55 -12.6,3.45 -26.15,-10.55 -4.05,0.75 -7.75,2.2 -5.25,2.1 -5.85,7.85 l -0.9,8.8 -2.85,1.85 q -0.9,-2.9 -1.5,-6 -1.25,-8.45 2.6,-16.1 m -55.5,45.45 q -0.15,13.5 -4.6,20.65 l -10.25,16.25 q -1.4,-23.45 1.25,-55.75 4,13.4 13.6,18.85 m 17.2,0 q 9.6,-5.45 13.6,-18.85 2.65,32.3 1.25,55.75 L 289.2,588.6 q -4.45,-7.15 -4.6,-20.65 m 38.3,54.55 q 6.05,-12.05 23.4,-12.5 17.35,0.45 23.4,12.5 3.85,7.65 2.6,16.1 -1.15,5.75 -3.25,10.9 l -2.5,-1.5 q 1.75,-7.2 -1.25,-13.55 -12.6,3.45 -26.15,-10.55 -4.05,0.75 -7.75,2.2 -5.25,2.1 -5.85,7.85 l -0.9,8.8 -2.85,1.85 q -0.9,-2.9 -1.5,-6 -1.25,-8.45 2.6,-16.1 m -2.6,106.1 q -1.25,-8.45 2.6,-16.1 6.05,-12.05 23.4,-12.5 17.35,0.45 23.4,12.5 3.85,7.65 2.6,16.1 -1.15,5.75 -3.25,10.9 l -2.5,-1.5 q 1.75,-7.2 -1.25,-13.55 -12.6,3.45 -26.15,-10.55 -4.05,0.75 -7.75,2.2 -5.25,2.1 -5.85,7.85 l -0.9,8.8 -2.85,1.85 q -0.9,-2.9 -1.5,-6 m 88.85,-304.7 q -4.05,0.75 -7.75,2.2 -5.25,2.1 -5.85,7.85 l -0.9,8.8 -2.85,1.85 q -0.9,-2.9 -1.5,-6 -1.25,-8.45 2.6,-16.1 6.05,-12.05 23.4,-12.5 17.35,0.45 23.4,12.5 3.85,7.65 2.6,16.1 -1.15,5.75 -3.25,10.9 l -2.5,-1.5 q 1.75,-7.2 -1.25,-13.55 -12.6,3.45 -26.15,-10.55 m 7.6,32.55 q 0.55,3.45 3.3,3.8 14.3,1.55 19.65,12.25 3.85,7.65 2.6,16.1 -1.15,5.75 -3.25,10.9 l -4,-2.5 1,-5 -1.25,-1 0.5,-6.9 q 1,-5.2 -2.95,-7.45 l 0.2,3.2 -7.1,-4.5 -1.45,1.2 -4.45,-3.25 -3.25,-0.25 q -8.05,0.35 -14.9,3.05 -5.25,2.1 -4.1,8 l 0.5,6.9 -1.25,1 1,5 -4,2.5 q -2.1,-5.15 -3.25,-10.9 -1.25,-8.45 2.6,-16.1 2.6,-5.2 7.3,-8.2 1.8,-1.45 1.55,-3.95 h 2.95 l 3.95,-6.6 5.8,3.95 2.3,-1.25 m -58.8,9 q 5.1,-3.9 8.35,-10.7 8.7,16.85 6.55,30.75 -10.2,-1.4 -18.4,-7.15 3.6,-4.8 3.5,-12.9 m 46.1,43.4 1.2,-3 q 4.8,-1.7 11.05,-1.85 l 3.55,0.25 1.55,1.75 4.25,-0.7 q 5,1.4 8.55,4.3 l 2.85,6.5 2.65,0.4 q 3.85,7.65 2.6,16.1 -1.15,5.75 -3.25,10.9 l -4,-2.5 1,-5 -1.25,-1 0.5,-6.9 q 1.15,-5.9 -4.1,-8 -6.85,-2.7 -14.9,-3.05 -8.05,0.35 -14.9,3.05 -5.25,2.1 -4.1,8 l 0.5,6.9 -1.25,1 1,5 -4,2.5 q -2.1,-5.15 -3.25,-10.9 -1.25,-8.45 2.6,-16.1 1.3,-2.55 3.1,-4.6 l 8.05,-3.05 m -46.1,56.6 q 5.1,-3.9 8.35,-10.7 8.7,16.85 6.55,30.75 -10.2,-1.4 -18.4,-7.15 3.6,-4.8 3.5,-12.9 m -32.55,-10.7 q 3.25,6.8 8.35,10.7 -0.1,8.1 3.5,12.9 -8.2,5.75 -18.4,7.15 -2.15,-13.9 6.55,-30.75 m 68.15,36.75 q -2.1,-5.15 -3.25,-10.9 -1.25,-8.45 2.6,-16.1 6.05,-12.05 23.4,-12.5 6.7,0.15 11.75,2.1 l 0.75,3 3.8,-0.7 q 4.55,3 7.1,8.1 3.85,7.65 2.6,16.1 -1.15,5.75 -3.25,10.9 l -4,-2.5 1,-5 -1.25,-1 0.5,-6.9 q 1.15,-5.9 -4.1,-8 -6.85,-2.7 -14.9,-3.05 -8.05,0.35 -14.9,3.05 -5.25,2.1 -4.1,8 l 0.5,6.9 -1.25,1 1,5 -4,2.5 m 48.75,16.1 q -1.15,5.75 -3.25,10.9 l -4,-2.5 1,-5 -1.25,-1 0.5,-6.9 7.25,2.25 -0.25,2.25 m -27.7,23.5 0.25,-0.05 q 7.15,-4.9 18.05,-2.8 l -3.15,5.55 q 8.55,-3.25 17.05,3.55 -4.1,2.1 -8.2,4.15 5.05,0.95 6.3,7.1 l -3.15,0.2 q 1.35,5.25 0.55,10.8 -1.15,5.75 -3.25,10.9 l -4,-2.5 1,-5 -1.25,-1 0.5,-6.9 q 1.15,-5.9 -4.1,-8 -6.85,-2.7 -14.9,-3.05 -8.05,0.35 -14.9,3.05 -5.25,2.1 -4.1,8 l 0.5,6.9 -1.25,1 1,5 -4,2.5 q -2.1,-5.15 -3.25,-10.9 -0.35,-2.35 -0.3,-4.65 0.25,-25.3 25.65,-27.7 l -1.05,3.85 m -24.55,-25.75 7.25,-2.25 0.5,6.9 -1.25,1 1,5 -4,2.5 q -2.1,-5.15 -3.25,-10.9 l -0.25,-2.25 M 329.4,660.9 q 1.1,8.65 5.6,18.5 -7.8,2.6 -16.3,0.35 -2.45,-12.15 7.1,-24.75 l 3.6,5.9 m 27.8,108.5 q 4.5,-9.85 5.6,-18.5 l 3.6,-5.9 q 9.55,12.6 7.1,24.75 -8.5,2.25 -16.3,-0.35 m 33.1,-59.8 q -1.25,-8.45 2.6,-16.1 6.05,-12.05 23.4,-12.5 17.35,0.45 23.4,12.5 3.85,7.65 2.6,16.1 -1.15,5.75 -3.25,10.9 l -4,-2.5 1,-5 -1.25,-1 0.5,-6.9 q 1.15,-5.9 -4.1,-8 -6.45,-2.55 -14,-3 -6.35,11.35 -20.05,9.95 l 0.15,1.05 0.5,6.9 -1.25,1 1,5 -4,2.5 q -2.1,-5.15 -3.25,-10.9 M 335,769.4 q -7.8,2.6 -16.3,0.35 -2.45,-12.15 7.1,-24.75 l 3.6,5.9 q 1.1,8.65 5.6,18.5 m 61.55,-6.4 1,5 -4,2.5 q -2.1,-5.15 -3.25,-10.9 -1.25,-8.45 2.6,-16.1 6.05,-12.05 23.4,-12.5 17.35,0.45 23.4,12.5 3.85,7.65 2.6,16.1 -1.15,5.75 -3.25,10.9 l -4,-2.5 1,-5 -1.25,-1 0.5,-6.9 q 1.15,-5.9 -4.1,-8 -6.85,-2.7 -14.9,-3.05 -8.05,0.35 -14.9,3.05 -5.25,2.1 -4.1,8 l 0.5,6.9 -1.25,1"
     id="path14" />
  <path
     stroke="none"
     fill="#989898"
     d="m 662.3,438.6 q -1.15,5.75 -3.25,10.9 l -2.5,-1.5 q 1.75,-7.2 -1.25,-13.55 -12.6,3.45 -26.15,-10.55 -4.05,0.75 -7.75,2.2 -5.25,2.1 -5.85,7.85 l -0.9,8.8 -2.85,1.85 q -0.9,-2.9 -1.5,-6 -1.25,-8.45 2.6,-16.1 6.05,-12.05 23.4,-12.5 17.35,0.45 23.4,12.5 3.85,7.65 2.6,16.1 m -9.95,38.05 0.2,3.2 -7.1,-4.5 -1.45,1.2 -4.45,-3.25 -3.25,-0.25 q -8.05,0.35 -14.9,3.05 -5.25,2.1 -4.1,8 l 0.5,6.9 -1.25,1 1,5 -4,2.5 q -2.1,-5.15 -3.25,-10.9 -1.25,-8.45 2.6,-16.1 2.6,-5.2 7.3,-8.2 1.8,-1.45 1.55,-3.95 h 2.95 l 3.95,-6.6 5.8,3.95 2.3,-1.25 q 0.55,3.45 3.3,3.8 14.3,1.55 19.65,12.25 3.85,7.65 2.6,16.1 -1.15,5.75 -3.25,10.9 l -4,-2.5 1,-5 -1.25,-1 0.5,-6.9 q 1,-5.2 -2.95,-7.45 m 4.7,39.45 2.65,0.4 q 3.85,7.65 2.6,16.1 -1.15,5.75 -3.25,10.9 l -4,-2.5 1,-5 -1.25,-1 0.5,-6.9 q 1.15,-5.9 -4.1,-8 -6.85,-2.7 -14.9,-3.05 -8.05,0.35 -14.9,3.05 -5.25,2.1 -4.1,8 l 0.5,6.9 -1.25,1 1,5 -4,2.5 q -2.1,-5.15 -3.25,-10.9 -1.25,-8.45 2.6,-16.1 1.3,-2.55 3.1,-4.6 l 8.05,-3.05 1.2,-3 q 4.8,-1.7 11.05,-1.85 l 3.55,0.25 1.55,1.75 4.25,-0.7 q 5,1.4 8.55,4.3 l 2.85,6.5 m -4.45,40.3 q 4.55,3 7.1,8.1 3.85,7.65 2.6,16.1 -1.15,5.75 -3.25,10.9 l -4,-2.5 1,-5 -1.25,-1 0.5,-6.9 q 1.15,-5.9 -4.1,-8 -6.85,-2.7 -14.9,-3.05 -8.05,0.35 -14.9,3.05 -5.25,2.1 -4.1,8 l 0.5,6.9 -1.25,1 1,5 -4,2.5 q -2.1,-5.15 -3.25,-10.9 -1.25,-8.45 2.6,-16.1 6.05,-12.05 23.4,-12.5 6.7,0.15 11.75,2.1 l 0.75,3 3.8,-0.7 m 2.7,46.7 7.25,2.25 -0.25,2.25 q -1.15,5.75 -3.25,10.9 l -4,-2.5 1,-5 -1.25,-1 0.5,-6.9 m 3.3,38.4 q 5.05,0.95 6.3,7.1 l -3.15,0.2 q 1.35,5.25 0.55,10.8 -1.15,5.75 -3.25,10.9 l -4,-2.5 1,-5 -1.25,-1 0.5,-6.9 q 1.15,-5.9 -4.1,-8 -6.85,-2.7 -14.9,-3.05 -8.05,0.35 -14.9,3.05 -5.25,2.1 -4.1,8 l 0.5,6.9 -1.25,1 1,5 -4,2.5 q -2.1,-5.15 -3.25,-10.9 -0.35,-2.35 -0.3,-4.65 0.25,-25.3 25.65,-27.7 l -1.05,3.85 0.25,-0.05 q 7.15,-4.9 18.05,-2.8 l -3.15,5.55 q 8.55,-3.25 17.05,3.55 l -8.2,4.15 m 0.45,79 -4,-2.5 1,-5 -1.25,-1 0.5,-6.9 q 1.15,-5.9 -4.1,-8 -6.45,-2.55 -14,-3 -6.35,11.35 -20.05,9.95 l 0.15,1.05 0.5,6.9 -1.25,1 1,5 -4,2.5 q -2.1,-5.15 -3.25,-10.9 -1.25,-8.45 2.6,-16.1 6.05,-12.05 23.4,-12.5 17.35,0.45 23.4,12.5 3.85,7.65 2.6,16.1 -1.15,5.75 -3.25,10.9 m -4.25,41.5 0.5,-6.9 q 1.15,-5.9 -4.1,-8 -6.85,-2.7 -14.9,-3.05 -8.05,0.35 -14.9,3.05 -5.25,2.1 -4.1,8 l 0.5,6.9 -1.25,1 1,5 -4,2.5 q -2.1,-5.15 -3.25,-10.9 -1.25,-8.45 2.6,-16.1 6.05,-12.05 23.4,-12.5 17.35,0.45 23.4,12.5 3.85,7.65 2.6,16.1 -1.15,5.75 -3.25,10.9 l -4,-2.5 1,-5 -1.25,-1 M 592.3,438.6 q -1.15,5.75 -3.25,10.9 l -2.5,-1.5 q 1.75,-7.2 -1.25,-13.55 -12.6,3.45 -26.15,-10.55 -4.05,0.75 -7.75,2.2 -5.25,2.1 -5.85,7.85 l -0.9,8.8 -2.85,1.85 q -0.9,-2.9 -1.5,-6 -1.25,-8.45 2.6,-16.1 6.05,-12.05 23.4,-12.5 17.35,0.45 23.4,12.5 3.85,7.65 2.6,16.1 m 0.55,46.9 q -10.2,-1.4 -18.4,-7.15 3.6,-4.8 3.5,-12.9 5.1,-3.9 8.35,-10.7 8.7,16.85 6.55,30.75 m -103.7,-61.6 q -4.05,0.75 -7.75,2.2 -5.25,2.1 -5.85,7.85 l -0.9,8.8 -2.85,1.85 q -0.9,-2.9 -1.5,-6 -1.25,-8.45 2.6,-16.1 6.05,-12.05 23.4,-12.5 17.35,0.45 23.4,12.5 3.85,7.65 2.6,16.1 -1.15,5.75 -3.25,10.9 l -2.5,-1.5 q 1.75,-7.2 -1.25,-13.55 -12.6,3.45 -26.15,-10.55 m 56.4,110.05 -0.9,8.8 -2.85,1.85 q -0.9,-2.9 -1.5,-6 -1.25,-8.45 2.6,-16.1 6.05,-12.05 23.4,-12.5 17.35,0.45 23.4,12.5 3.85,7.65 2.6,16.1 -1.15,5.75 -3.25,10.9 l -2.5,-1.5 q 1.75,-7.2 -1.25,-13.55 -12.6,3.45 -26.15,-10.55 -4.05,0.75 -7.75,2.2 -5.25,2.1 -5.85,7.85 m -56.4,-10.25 q -4.05,0.75 -7.75,2.2 -5.25,2.1 -5.85,7.85 l -0.9,8.8 -2.85,1.85 q -0.9,-2.9 -1.5,-6 -1.25,-8.45 2.6,-16.1 6.05,-12.05 23.4,-12.5 17.35,0.45 23.4,12.5 3.85,7.65 2.6,16.1 -1.15,5.75 -3.25,10.9 l -2.5,-1.5 q 1.75,-7.2 -1.25,-13.55 -12.6,3.45 -26.15,-10.55 m 68.1,54.65 q -8.2,5.75 -18.4,7.15 -2.15,-13.9 6.55,-30.75 3.25,6.8 8.35,10.7 -0.1,8.1 3.5,12.9 m -52.65,-10.4 q 9.6,-5.45 13.6,-18.85 2.65,32.3 1.25,55.75 L 509.2,588.6 q -4.45,-7.15 -4.6,-20.65 m 69.85,10.4 q 3.6,-4.8 3.5,-12.9 5.1,-3.9 8.35,-10.7 8.7,16.85 6.55,30.75 -10.2,-1.4 -18.4,-7.15 m -101.9,-73.5 q -1.4,-23.45 1.25,-55.75 4,13.4 13.6,18.85 -0.15,13.5 -4.6,20.65 l -10.25,16.25 m 141,113.65 q -2.1,-5.15 -3.25,-10.9 l -0.25,-2.25 7.25,-2.25 0.5,6.9 -1.25,1 1,5 -4,2.5 m -21.25,20.1 q -1.15,5.75 -3.25,10.9 l -2.5,-1.5 q 1.75,-7.2 -1.25,-13.55 -12.6,3.45 -26.15,-10.55 -4.05,0.75 -7.75,2.2 -5.25,2.1 -5.85,7.85 l -0.9,8.8 -2.85,1.85 q -0.9,-2.9 -1.5,-6 -1.25,-8.45 2.6,-16.1 6.05,-12.05 23.4,-12.5 17.35,0.45 23.4,12.5 3.85,7.65 2.6,16.1 m -53.6,41.15 Q 536.25,667.6 545.8,655 l 3.6,5.9 q 1.1,8.65 5.6,18.5 -7.8,2.6 -16.3,0.35 m 6.85,44.2 -0.9,8.8 -2.85,1.85 q -0.9,-2.9 -1.5,-6 -1.25,-8.45 2.6,-16.1 6.05,-12.05 23.4,-12.5 17.35,0.45 23.4,12.5 3.85,7.65 2.6,16.1 -1.15,5.75 -3.25,10.9 l -2.5,-1.5 q 1.75,-7.2 -1.25,-13.55 -12.6,3.45 -26.15,-10.55 -4.05,0.75 -7.75,2.2 -5.25,2.1 -5.85,7.85 m 0.25,21.05 3.6,5.9 q 1.1,8.65 5.6,18.5 -7.8,2.6 -16.3,0.35 -2.45,-12.15 7.1,-24.75 m 37,5.9 3.6,-5.9 q 9.55,12.6 7.1,24.75 -8.5,2.25 -16.3,-0.35 4.5,-9.85 5.6,-18.5 M 487.4,567.95 q -0.15,13.5 -4.6,20.65 l -10.25,16.25 q -1.4,-23.45 1.25,-55.75 4,13.4 13.6,18.85"
     id="path16" />
  <path
     stroke="none"
     fill="#e5e5e5"
     d="m 879.7,422.5 q 3.85,7.65 2.6,16.1 -1.15,5.75 -3.25,10.9 l -2.5,-1.5 q 1.75,-7.2 -1.25,-13.55 -12.6,3.45 -26.15,-10.55 -4.05,0.75 -7.75,2.2 -5.25,2.1 -5.85,7.85 l -0.9,8.8 -2.85,1.85 q -0.9,-2.9 -1.5,-6 -1.25,-8.45 2.6,-16.1 6.05,-12.05 23.4,-12.5 17.35,0.45 23.4,12.5 m -35,37.85 3.95,-6.6 5.8,3.95 2.3,-1.25 q 0.55,3.45 3.3,3.8 14.3,1.55 19.65,12.25 3.85,7.65 2.6,16.1 -1.15,5.75 -3.25,10.9 l -4,-2.5 1,-5 -1.25,-1 0.5,-6.9 q 1,-5.2 -2.95,-7.45 l 0.2,3.2 -7.1,-4.5 -1.45,1.2 -4.45,-3.25 -3.25,-0.25 q -8.05,0.35 -14.9,3.05 -5.25,2.1 -4.1,8 l 0.5,6.9 -1.25,1 1,5 -4,2.5 q -2.1,-5.15 -3.25,-10.9 -1.25,-8.45 2.6,-16.1 2.6,-5.2 7.3,-8.2 1.8,-1.45 1.55,-3.95 h 2.95 m 32.35,55.75 2.65,0.4 q 3.85,7.65 2.6,16.1 -1.15,5.75 -3.25,10.9 l -4,-2.5 1,-5 -1.25,-1 0.5,-6.9 q 1.15,-5.9 -4.1,-8 -6.85,-2.7 -14.9,-3.05 -8.05,0.35 -14.9,3.05 -5.25,2.1 -4.1,8 l 0.5,6.9 -1.25,1 1,5 -4,2.5 q -2.1,-5.15 -3.25,-10.9 -1.25,-8.45 2.6,-16.1 1.3,-2.55 3.1,-4.6 l 8.05,-3.05 1.2,-3 q 4.8,-1.7 11.05,-1.85 l 3.55,0.25 1.55,1.75 4.25,-0.7 q 5,1.4 8.55,4.3 l 2.85,6.5 m -40.5,67.9 1,5 -4,2.5 q -2.1,-5.15 -3.25,-10.9 -1.25,-8.45 2.6,-16.1 6.05,-12.05 23.4,-12.5 6.7,0.15 11.75,2.1 l 0.75,3 3.8,-0.7 q 4.55,3 7.1,8.1 3.85,7.65 2.6,16.1 -1.15,5.75 -3.25,10.9 l -4,-2.5 1,-5 -1.25,-1 0.5,-6.9 q 1.15,-5.9 -4.1,-8 -6.85,-2.7 -14.9,-3.05 -8.05,0.35 -14.9,3.05 -5.25,2.1 -4.1,8 l 0.5,6.9 -1.25,1 m -57.4,-160.1 q -4.05,0.75 -7.75,2.2 -5.25,2.1 -5.85,7.85 l -0.9,8.8 -2.85,1.85 q -0.9,-2.9 -1.5,-6 -1.25,-8.45 2.6,-16.1 6.05,-12.05 23.4,-12.5 17.35,0.45 23.4,12.5 3.85,7.65 2.6,16.1 -1.15,5.75 -3.25,10.9 l -2.5,-1.5 q 1.75,-7.2 -1.25,-13.55 -12.6,3.45 -26.15,-10.55 m -36.85,14.7 q -1.15,5.75 -3.25,10.9 l -2.5,-1.5 q 1.75,-7.2 -1.25,-13.55 -12.6,3.45 -26.15,-10.55 -4.05,0.75 -7.75,2.2 -5.25,2.1 -5.85,7.85 l -0.9,8.8 -2.85,1.85 q -0.9,-2.9 -1.5,-6 -1.25,-8.45 2.6,-16.1 6.05,-12.05 23.4,-12.5 17.35,0.45 23.4,12.5 3.85,7.65 2.6,16.1 m 64,16.15 q 8.7,16.85 6.55,30.75 -10.2,-1.4 -18.4,-7.15 3.6,-4.8 3.5,-12.9 5.1,-3.9 8.35,-10.7 m -98.9,13.2 q -0.15,13.5 -4.6,20.65 l -10.25,16.25 q -1.4,-23.45 1.25,-55.75 4,13.4 13.6,18.85 m -11.85,65.8 -0.9,8.8 -2.85,1.85 q -0.9,-2.9 -1.5,-6 -1.25,-8.45 2.6,-16.1 6.05,-12.05 23.4,-12.5 17.35,0.45 23.4,12.5 3.85,7.65 2.6,16.1 -1.15,5.75 -3.25,10.9 l -2.5,-1.5 q 1.75,-7.2 -1.25,-13.55 -12.6,3.45 -26.15,-10.55 -4.05,0.75 -7.75,2.2 -5.25,2.1 -5.85,7.85 m 11.85,34.2 q -0.15,13.5 -4.6,20.65 l -10.25,16.25 q -1.4,-23.45 1.25,-55.75 4,13.4 13.6,18.85 m 71.75,-44.05 q -4.05,0.75 -7.75,2.2 -5.25,2.1 -5.85,7.85 l -0.9,8.8 -2.85,1.85 q -0.9,-2.9 -1.5,-6 -1.25,-8.45 2.6,-16.1 6.05,-12.05 23.4,-12.5 17.35,0.45 23.4,12.5 3.85,7.65 2.6,16.1 -1.15,5.75 -3.25,10.9 l -2.5,-1.5 q 1.75,-7.2 -1.25,-13.55 -12.6,3.45 -26.15,-10.55 m -20.3,61.6 q -2.15,-13.9 6.55,-30.75 3.25,6.8 8.35,10.7 -0.1,8.1 3.5,12.9 -8.2,5.75 -18.4,7.15 m 47.45,-30.75 q 8.7,16.85 6.55,30.75 -10.2,-1.4 -18.4,-7.15 3.6,-4.8 3.5,-12.9 5.1,-3.9 8.35,-10.7 m -81.7,13.2 q 9.6,-5.45 13.6,-18.85 2.65,32.3 1.25,55.75 L 729.2,588.6 q -4.45,-7.15 -4.6,-20.65 m 54.55,55.95 q -4.05,0.75 -7.75,2.2 -5.25,2.1 -5.85,7.85 l -0.9,8.8 -2.85,1.85 q -0.9,-2.9 -1.5,-6 -1.25,-8.45 2.6,-16.1 6.05,-12.05 23.4,-12.5 17.35,0.45 23.4,12.5 3.85,7.65 2.6,16.1 -1.15,5.75 -3.25,10.9 l -2.5,-1.5 q 1.75,-7.2 -1.25,-13.55 -12.6,3.45 -26.15,-10.55 m -9.75,37 q 1.1,8.65 5.6,18.5 -7.8,2.6 -16.3,0.35 -2.45,-12.15 7.1,-24.75 l 3.6,5.9 m 40.3,51.6 q 3.85,7.65 2.6,16.1 -1.15,5.75 -3.25,10.9 l -2.5,-1.5 q 1.75,-7.2 -1.25,-13.55 -12.6,3.45 -26.15,-10.55 -4.05,0.75 -7.75,2.2 -5.25,2.1 -5.85,7.85 l -0.9,8.8 -2.85,1.85 q -0.9,-2.9 -1.5,-6 -1.25,-8.45 2.6,-16.1 6.05,-12.05 23.4,-12.5 17.35,0.45 23.4,12.5 m -43.9,32.5 3.6,5.9 q 1.1,8.65 5.6,18.5 -7.8,2.6 -16.3,0.35 -2.45,-12.15 7.1,-24.75 m 37,5.9 3.6,-5.9 q 9.55,12.6 7.1,24.75 -8.5,2.25 -16.3,-0.35 4.5,-9.85 5.6,-18.5 m 79.75,-145.55 -0.25,2.25 q -1.15,5.75 -3.25,10.9 l -4,-2.5 1,-5 -1.25,-1 0.5,-6.9 7.25,2.25 m -27.95,25.75 0.25,-0.05 q 7.15,-4.9 18.05,-2.8 l -3.15,5.55 q 8.55,-3.25 17.05,3.55 l -8.2,4.15 q 5.05,0.95 6.3,7.1 l -3.15,0.2 q 1.35,5.25 0.55,10.8 -1.15,5.75 -3.25,10.9 l -4,-2.5 1,-5 -1.25,-1 0.5,-6.9 q 1.15,-5.9 -4.1,-8 -6.85,-2.7 -14.9,-3.05 -8.05,0.35 -14.9,3.05 -5.25,2.1 -4.1,8 l 0.5,6.9 -1.25,1 1,5 -4,2.5 q -2.1,-5.15 -3.25,-10.9 -0.35,-2.35 -0.3,-4.65 0.25,-25.3 25.65,-27.7 l -1.05,3.85 m -18.05,-20.1 1,5 -4,2.5 q -2.1,-5.15 -3.25,-10.9 l -0.25,-2.25 7.25,-2.25 0.5,6.9 -1.25,1 m 38.5,107 1,-5 -1.25,-1 0.5,-6.9 q 1.15,-5.9 -4.1,-8 -6.45,-2.55 -14,-3 -6.35,11.35 -20.05,9.95 l 0.15,1.05 0.5,6.9 -1.25,1 1,5 -4,2.5 q -2.1,-5.15 -3.25,-10.9 -1.25,-8.45 2.6,-16.1 6.05,-12.05 23.4,-12.5 17.35,0.45 23.4,12.5 3.85,7.65 2.6,16.1 -1.15,5.75 -3.25,10.9 l -4,-2.5 m -41.5,52.5 q -2.1,-5.15 -3.25,-10.9 -1.25,-8.45 2.6,-16.1 6.05,-12.05 23.4,-12.5 17.35,0.45 23.4,12.5 3.85,7.65 2.6,16.1 -1.15,5.75 -3.25,10.9 l -4,-2.5 1,-5 -1.25,-1 0.5,-6.9 q 1.15,-5.9 -4.1,-8 -6.85,-2.7 -14.9,-3.05 -8.05,0.35 -14.9,3.05 -5.25,2.1 -4.1,8 l 0.5,6.9 -1.25,1 1,5 -4,2.5"
     id="path18" />
</svg>
