<?xml version="1.0" encoding="UTF-8" standalone="no"?>
<svg
   version="1.1"
   id="svg102"
   sodipodi:docname="vector_skin.svg"
   inkscape:version="1.1.1 (3bf5ae0d25, 2021-09-20)"
   xmlns:inkscape="http://www.inkscape.org/namespaces/inkscape"
   xmlns:sodipodi="http://sodipodi.sourceforge.net/DTD/sodipodi-0.dtd"
   xmlns="http://www.w3.org/2000/svg"
   xmlns:svg="http://www.w3.org/2000/svg">
  <sodipodi:namedview
     id="namedview104"
     pagecolor="#ffffff"
     bordercolor="#666666"
     borderopacity="1.0"
     inkscape:pageshadow="2"
     inkscape:pageopacity="0.0"
     inkscape:pagecheckerboard="0"
     showgrid="false"
     inkscape:zoom="2.8378552"
     inkscape:cx="181.1227"
     inkscape:cy="72.413842"
     inkscape:window-width="3840"
     inkscape:window-height="2136"
     inkscape:window-x="0"
     inkscape:window-y="0"
     inkscape:window-maximized="1"
     inkscape:current-layer="svg102" />
  <defs
     id="defs2" />
  <path
     stroke="none"
     fill="#ffe0b1"
     d="m 188,98.15 q -2.95,6.95 -10.95,10.6 Q 166.9,93.9 148.8,89.5 143.5,88.15 137.55,87.8 l -0.05,-0.05 q -9.15,-11.6 -4.3,-23.95 23.7,3.4 39.9,17.1 8.45,7.2 14.9,17.25"
     id="path4" />
  <path
     stroke="none"
     fill="#ffe0b1"
     d="M 40.3,31.15 Q 49.9,55.65 50.9,82 L 32,84.7 Q 33.95,58.35 20.15,33.55 28.8,28 40.3,31.15"
     id="path6" />
  <path
     stroke="none"
     fill="#ffe0b1"
     d="m 150.7,38.25 q 1.25,4.7 -1.1,8.9 -2.45,4.1 -7.15,5.35 l -2.85,0.55 V 53 q -1.95,-0.4 -3.8,-2.15 -2.9,-2.8 -4.15,-7.5 -1.25,-4.65 -0.15,-8.45 0.75,-2.5 2.25,-3.65 v -0.1 q 1.25,-0.75 2.7,-1.15 4.7,-1.25 8.85,1.2 4.15,2.4 5.4,7.05"
     id="path8" />
  <path
     stroke="none"
     fill="#ffe0b1"
     d="m 69.85,53.4 -0.1,-0.95 -0.2,-4.35 v -0.4 q 0.1,-8.3 7.1,-14.25 7.15,-6 17.25,-6 10.1,0 17.2,6 7,5.95 7.15,14.25 v 0.4 l -0.25,4.35 -0.1,1.25 q -0.95,7.9 -4.1,14.35 l -2.7,4.6 Q 104,83.2 93.9,83.2 83.8,83.2 76.65,72.65 75.1,70.4 73.9,67.95 70.7,61.4 69.85,53.4"
     id="path10" />
  <path
     stroke="none"
     fill="#f5d29d"
     d="m 69.85,53.4 q 0.85,8 4.05,14.55 l -1.7,0.15 q -3.1,0 -5.35,-2.25 -2.1,-2.1 -2.15,-5.05 v -0.4 q 0.05,-3 2.15,-5.2 1.35,-1.3 3,-1.8 m 48.05,0.3 2.1,1.5 q 2.25,2.25 2.25,5.4 0,3.1 -2.25,5.25 -2.15,2.25 -5.3,2.25 l -0.9,-0.05 q 3.15,-6.45 4.1,-14.35"
     id="path12" />
  <path
     stroke="none"
     fill="#f5d29d"
     d="m 94.45,103.2 q -6.65,0 -11.3,-3.2 -3.9,-2.6 -4.55,-6.2 15.4,-5.85 31.7,0 -0.65,3.6 -4.55,6.2 -4.7,3.2 -11.3,3.2"
     id="path14" />
  <path
     stroke="none"
     fill="#f5d29d"
     d="M 212,84.7 Q 213.95,58.35 200.15,33.55 208.8,28 220.3,31.15 229.9,55.65 230.9,82 L 212,84.7"
     id="path16" />
  <path
     stroke="none"
     fill="#e7c38c"
     d="m 290.3,93.8 q -0.65,3.6 -4.55,6.2 -4.7,3.2 -11.3,3.2 -6.65,0 -11.3,-3.2 -3.9,-2.6 -4.55,-6.2 15.4,-5.85 31.7,0"
     id="path18" />
  <path
     stroke="none"
     fill="#f5d29d"
     d="m 249.85,53.4 -0.1,-0.95 -0.2,-4.35 v -0.4 q 0.1,-8.3 7.1,-14.25 7.15,-6 17.25,-6 10.1,0 17.2,6 7,5.95 7.15,14.25 v 0.4 l -0.25,4.35 -0.1,1.25 q -0.95,7.9 -4.1,14.35 l -2.7,4.6 Q 284,83.2 273.9,83.2 263.8,83.2 256.65,72.65 255.1,70.4 253.9,67.95 250.7,61.4 249.85,53.4"
     id="path20" />
  <path
     stroke="none"
     fill="#e7c38c"
     d="m 249.85,53.4 q 0.85,8 4.05,14.55 l -1.7,0.15 q -3.1,0 -5.35,-2.25 -2.1,-2.1 -2.15,-5.05 v -0.4 q 0.05,-3 2.15,-5.2 1.35,-1.3 3,-1.8 m 48.05,0.3 2.1,1.5 q 2.25,2.25 2.25,5.4 0,3.1 -2.25,5.25 -2.15,2.25 -5.3,2.25 l -0.9,-0.05 q 3.15,-6.45 4.1,-14.35"
     id="path22" />
  <path
     stroke="none"
     fill="#f5d29d"
     d="m 329.6,47.15 q -2.45,4.1 -7.15,5.35 l -2.85,0.55 V 53 q -1.95,-0.4 -3.8,-2.15 -2.9,-2.8 -4.15,-7.5 -1.25,-4.65 -0.15,-8.45 0.75,-2.5 2.25,-3.65 v -0.1 q 1.25,-0.75 2.7,-1.15 4.7,-1.25 8.85,1.2 4.15,2.4 5.4,7.05 1.25,4.7 -1.1,8.9"
     id="path24" />
  <path
     stroke="none"
     fill="#f5d29d"
     d="m 368,98.15 q -2.95,6.95 -10.95,10.6 Q 346.9,93.9 328.8,89.5 323.5,88.15 317.55,87.8 l -0.05,-0.05 q -9.15,-11.6 -4.3,-23.95 23.7,3.4 39.9,17.1 8.45,7.2 14.9,17.25"
     id="path26" />
  <path
     stroke="none"
     fill="#ffe9c9"
     d="m 400.3,31.15 q 9.6,24.5 10.6,50.85 L 392,84.7 Q 393.95,58.35 380.15,33.55 388.8,28 400.3,31.15"
     id="path28" />
  <path
     stroke="none"
     fill="#ffe9c9"
     d="m 429.85,53.4 -0.1,-0.95 -0.2,-4.35 v -0.4 q 0.1,-8.3 7.1,-14.25 7.15,-6 17.25,-6 10.1,0 17.2,6 7,5.95 7.15,14.25 v 0.4 l -0.25,4.35 -0.1,1.25 q -0.95,7.9 -4.1,14.35 l -2.7,4.6 Q 464,83.2 453.9,83.2 443.8,83.2 436.65,72.65 435.1,70.4 433.9,67.95 430.7,61.4 429.85,53.4"
     id="path30" />
  <path
     stroke="none"
     fill="#ffe0b1"
     d="m 429.85,53.4 q 0.85,8 4.05,14.55 l -1.7,0.15 q -3.1,0 -5.35,-2.25 -2.1,-2.1 -2.15,-5.05 v -0.4 q 0.05,-3 2.15,-5.2 1.35,-1.3 3,-1.8 m 48.05,0.3 2.1,1.5 q 2.25,2.25 2.25,5.4 0,3.1 -2.25,5.25 -2.15,2.25 -5.3,2.25 l -0.9,-0.05 q 3.15,-6.45 4.1,-14.35"
     id="path32" />
  <path
     stroke="none"
     fill="#ffe9c9"
     d="m 491.5,34.9 q 0.75,-2.5 2.25,-3.65 v -0.1 q 1.25,-0.75 2.7,-1.15 4.7,-1.25 8.85,1.2 4.15,2.4 5.4,7.05 1.25,4.7 -1.1,8.9 -2.45,4.1 -7.15,5.35 l -2.85,0.55 V 53 q -1.95,-0.4 -3.8,-2.15 -2.9,-2.8 -4.15,-7.5 -1.25,-4.65 -0.15,-8.45"
     id="path34" />
  <path
     stroke="none"
     fill="#ffe9c9"
     d="m 497.55,87.8 -0.05,-0.05 q -9.15,-11.6 -4.3,-23.95 23.7,3.4 39.9,17.1 8.45,7.2 14.9,17.25 -2.95,6.95 -10.95,10.6 Q 526.9,93.9 508.8,89.5 503.5,88.15 497.55,87.8"
     id="path36" />
  <path
     stroke="none"
     fill="#ffe0b1"
     d="m 470.3,93.8 q -0.65,3.6 -4.55,6.2 -4.7,3.2 -11.3,3.2 -6.65,0 -11.3,-3.2 -3.9,-2.6 -4.55,-6.2 15.4,-5.85 31.7,0"
     id="path38" />
  <path
     stroke="none"
     fill="#e0bc85"
     d="M 572,84.7 Q 573.95,58.35 560.15,33.55 568.8,28 580.3,31.15 589.9,55.65 590.9,82 L 572,84.7"
     id="path40" />
  <path
     stroke="none"
     fill="#e0bc85"
     d="m 609.85,53.4 -0.1,-0.95 -0.2,-4.35 v -0.4 q 0.1,-8.3 7.1,-14.25 7.15,-6 17.25,-6 10.1,0 17.2,6 7,5.95 7.15,14.25 v 0.4 l -0.25,4.35 -0.1,1.25 q -0.95,7.9 -4.1,14.35 l -2.7,4.6 Q 644,83.2 633.9,83.2 623.8,83.2 616.65,72.65 615.1,70.4 613.9,67.95 610.7,61.4 609.85,53.4"
     id="path42" />
  <path
     stroke="none"
     fill="#d2ac73"
     d="m 609.85,53.4 q 0.85,8 4.05,14.55 l -1.7,0.15 q -3.1,0 -5.35,-2.25 -2.1,-2.1 -2.15,-5.05 v -0.4 q 0.05,-3 2.15,-5.2 1.35,-1.3 3,-1.8 m 48.05,0.3 2.1,1.5 q 2.25,2.25 2.25,5.4 0,3.1 -2.25,5.25 -2.15,2.25 -5.3,2.25 l -0.9,-0.05 q 3.15,-6.45 4.1,-14.35"
     id="path44" />
  <path
     stroke="none"
     fill="#f5d29d"
     d="m 623.15,100 q -3.9,-2.6 -4.55,-6.2 15.4,-5.85 31.7,0 -0.65,3.6 -4.55,6.2 -4.7,3.2 -11.3,3.2 -6.65,0 -11.3,-3.2"
     id="path46" />
  <path
     stroke="none"
     fill="#e0bc85"
     d="m 673.2,63.8 q 23.7,3.4 39.9,17.1 8.45,7.2 14.9,17.25 -2.95,6.95 -10.95,10.6 Q 706.9,93.9 688.8,89.5 683.5,88.15 677.55,87.8 l -0.05,-0.05 q -9.15,-11.6 -4.3,-23.95"
     id="path48" />
  <path
     stroke="none"
     fill="#e0bc85"
     d="m 689.6,47.15 q -2.45,4.1 -7.15,5.35 l -2.85,0.55 V 53 q -1.95,-0.4 -3.8,-2.15 -2.9,-2.8 -4.15,-7.5 -1.25,-4.65 -0.15,-8.45 0.75,-2.5 2.25,-3.65 v -0.1 q 1.25,-0.75 2.7,-1.15 4.7,-1.25 8.85,1.2 4.15,2.4 5.4,7.05 1.25,4.7 -1.1,8.9"
     id="path50" />
  <path
     stroke="none"
     fill="#957544"
     d="m 689.6,147.15 q -2.45,4.1 -7.15,5.35 l -2.85,0.55 V 153 q -1.95,-0.4 -3.8,-2.15 -2.9,-2.8 -4.15,-7.5 -1.25,-4.65 -0.15,-8.45 0.75,-2.5 2.25,-3.65 v -0.1 q 1.25,-0.75 2.7,-1.15 4.7,-1.25 8.85,1.2 4.15,2.4 5.4,7.05 1.25,4.7 -1.1,8.9"
     id="path52" />
  <path
     stroke="none"
     fill="#957544"
     d="m 673.2,163.8 q 23.7,3.4 39.9,17.1 8.45,7.2 14.9,17.25 -2.95,6.95 -10.95,10.6 -10.15,-14.85 -28.25,-19.25 -5.3,-1.35 -11.25,-1.7 l -0.05,-0.05 q -9.15,-11.6 -4.3,-23.95"
     id="path54" />
  <path
     stroke="none"
     fill="#957544"
     d="m 613.9,167.95 q -3.2,-6.55 -4.05,-14.55 l -0.1,-0.95 -0.2,-4.35 v -0.4 q 0.1,-8.3 7.1,-14.25 7.15,-6 17.25,-6 10.1,0 17.2,6 7,5.95 7.15,14.25 v 0.4 l -0.25,4.35 -0.1,1.25 q -0.95,7.9 -4.1,14.35 l -2.7,4.6 q -7.1,10.55 -17.2,10.55 -10.1,0 -17.25,-10.55 -1.55,-2.25 -2.75,-4.7"
     id="path56" />
  <path
     stroke="none"
     fill="#836538"
     d="m 657.9,153.7 2.1,1.5 q 2.25,2.25 2.25,5.4 0,3.1 -2.25,5.25 -2.15,2.25 -5.3,2.25 l -0.9,-0.05 q 3.15,-6.45 4.1,-14.35 m -44,14.25 -1.7,0.15 q -3.1,0 -5.35,-2.25 -2.1,-2.1 -2.15,-5.05 v -0.4 q 0.05,-3 2.15,-5.2 1.35,-1.3 3,-1.8 0.85,8 4.05,14.55"
     id="path58" />
  <path
     stroke="none"
     fill="#836538"
     d="m 634.45,203.2 q -6.65,0 -11.3,-3.2 -3.9,-2.6 -4.55,-6.2 15.4,-5.85 31.7,0 -0.65,3.6 -4.55,6.2 -4.7,3.2 -11.3,3.2"
     id="path60" />
  <path
     stroke="none"
     fill="#957544"
     d="m 572,184.7 q 1.95,-26.35 -11.85,-51.15 8.65,-5.55 20.15,-2.4 9.6,24.5 10.6,50.85 l -18.9,2.7"
     id="path62" />
  <path
     stroke="none"
     fill="#aa8956"
     d="m 497.5,187.75 q -9.15,-11.6 -4.3,-23.95 23.7,3.4 39.9,17.1 8.45,7.2 14.9,17.25 -2.95,6.95 -10.95,10.6 -10.15,-14.85 -28.25,-19.25 -5.3,-1.35 -11.25,-1.7 l -0.05,-0.05"
     id="path64" />
  <path
     stroke="none"
     fill="#aa8956"
     d="m 493.75,131.25 v -0.1 q 1.25,-0.75 2.7,-1.15 4.7,-1.25 8.85,1.2 4.15,2.4 5.4,7.05 1.25,4.7 -1.1,8.9 -2.45,4.1 -7.15,5.35 l -2.85,0.55 V 153 q -1.95,-0.4 -3.8,-2.15 -2.9,-2.8 -4.15,-7.5 -1.25,-4.65 -0.15,-8.45 0.75,-2.5 2.25,-3.65"
     id="path66" />
  <path
     stroke="none"
     fill="#aa8956"
     d="m 429.85,153.4 -0.1,-0.95 -0.2,-4.35 v -0.4 q 0.1,-8.3 7.1,-14.25 7.15,-6 17.25,-6 10.1,0 17.2,6 7,5.95 7.15,14.25 v 0.4 l -0.25,4.35 -0.1,1.25 q -0.95,7.9 -4.1,14.35 l -2.7,4.6 q -7.1,10.55 -17.2,10.55 -10.1,0 -17.25,-10.55 -1.55,-2.25 -2.75,-4.7 -3.2,-6.55 -4.05,-14.55"
     id="path68" />
  <path
     stroke="none"
     fill="#957544"
     d="m 429.85,153.4 q 0.85,8 4.05,14.55 l -1.7,0.15 q -3.1,0 -5.35,-2.25 -2.1,-2.1 -2.15,-5.05 v -0.4 q 0.05,-3 2.15,-5.2 1.35,-1.3 3,-1.8 m 48.05,0.3 2.1,1.5 q 2.25,2.25 2.25,5.4 0,3.1 -2.25,5.25 -2.15,2.25 -5.3,2.25 l -0.9,-0.05 q 3.15,-6.45 4.1,-14.35"
     id="path70" />
  <path
     stroke="none"
     fill="#957544"
     d="m 470.3,193.8 q -0.65,3.6 -4.55,6.2 -4.7,3.2 -11.3,3.2 -6.65,0 -11.3,-3.2 -3.9,-2.6 -4.55,-6.2 15.4,-5.85 31.7,0"
     id="path72" />
  <path
     stroke="none"
     fill="#aa8956"
     d="m 400.3,131.15 q 9.6,24.5 10.6,50.85 l -18.9,2.7 q 1.95,-26.35 -11.85,-51.15 8.65,-5.55 20.15,-2.4"
     id="path74" />
  <path
     stroke="none"
     fill="#bf9c66"
     d="M 357.05,208.75 Q 346.9,193.9 328.8,189.5 q -5.3,-1.35 -11.25,-1.7 l -0.05,-0.05 q -9.15,-11.6 -4.3,-23.95 23.7,3.4 39.9,17.1 8.45,7.2 14.9,17.25 -2.95,6.95 -10.95,10.6"
     id="path76" />
  <path
     stroke="none"
     fill="#bf9c66"
     d="m 330.7,138.25 q 1.25,4.7 -1.1,8.9 -2.45,4.1 -7.15,5.35 l -2.85,0.55 V 153 q -1.95,-0.4 -3.8,-2.15 -2.9,-2.8 -4.15,-7.5 -1.25,-4.65 -0.15,-8.45 0.75,-2.5 2.25,-3.65 v -0.1 q 1.25,-0.75 2.7,-1.15 4.7,-1.25 8.85,1.2 4.15,2.4 5.4,7.05"
     id="path78" />
  <path
     stroke="none"
     fill="#bf9c66"
     d="m 212,184.7 q 1.95,-26.35 -11.85,-51.15 8.65,-5.55 20.15,-2.4 9.6,24.5 10.6,50.85 l -18.9,2.7"
     id="path80" />
  <path
     stroke="none"
     fill="#bf9c66"
     d="m 249.85,153.4 -0.1,-0.95 -0.2,-4.35 v -0.4 q 0.1,-8.3 7.1,-14.25 7.15,-6 17.25,-6 10.1,0 17.2,6 7,5.95 7.15,14.25 v 0.4 l -0.25,4.35 -0.1,1.25 q -0.95,7.9 -4.1,14.35 l -2.7,4.6 q -7.1,10.55 -17.2,10.55 -10.1,0 -17.25,-10.55 -1.55,-2.25 -2.75,-4.7 -3.2,-6.55 -4.05,-14.55"
     id="path82" />
  <path
     stroke="none"
     fill="#aa8956"
     d="m 249.85,153.4 q 0.85,8 4.05,14.55 l -1.7,0.15 q -3.1,0 -5.35,-2.25 -2.1,-2.1 -2.15,-5.05 v -0.4 q 0.05,-3 2.15,-5.2 1.35,-1.3 3,-1.8 m 48.05,0.3 2.1,1.5 q 2.25,2.25 2.25,5.4 0,3.1 -2.25,5.25 -2.15,2.25 -5.3,2.25 l -0.9,-0.05 q 3.15,-6.45 4.1,-14.35"
     id="path84" />
  <path
     stroke="none"
     fill="#aa8956"
     d="m 290.3,193.8 q -0.65,3.6 -4.55,6.2 -4.7,3.2 -11.3,3.2 -6.65,0 -11.3,-3.2 -3.9,-2.6 -4.55,-6.2 15.4,-5.85 31.7,0"
     id="path86" />
  <path
     stroke="none"
     fill="#d2ac73"
     d="m 137.55,187.8 -0.05,-0.05 q -9.15,-11.6 -4.3,-23.95 23.7,3.4 39.9,17.1 8.45,7.2 14.9,17.25 -2.95,6.95 -10.95,10.6 -10.15,-14.85 -28.25,-19.25 -5.3,-1.35 -11.25,-1.7"
     id="path88" />
  <path
     stroke="none"
     fill="#d2ac73"
     d="m 131.5,134.9 q 0.75,-2.5 2.25,-3.65 v -0.1 q 1.25,-0.75 2.7,-1.15 4.7,-1.25 8.85,1.2 4.15,2.4 5.4,7.05 1.25,4.7 -1.1,8.9 -2.45,4.1 -7.15,5.35 l -2.85,0.55 V 153 q -1.95,-0.4 -3.8,-2.15 -2.9,-2.8 -4.15,-7.5 -1.25,-4.65 -0.15,-8.45"
     id="path90" />
  <path
     stroke="none"
     fill="#d2ac73"
     d="m 69.85,153.4 -0.1,-0.95 -0.2,-4.35 v -0.4 q 0.1,-8.3 7.1,-14.25 7.15,-6 17.25,-6 10.1,0 17.2,6 7,5.95 7.15,14.25 v 0.4 l -0.25,4.35 -0.1,1.25 q -0.95,7.9 -4.1,14.35 l -2.7,4.6 Q 104,183.2 93.9,183.2 83.8,183.2 76.65,172.65 75.1,170.4 73.9,167.95 70.7,161.4 69.85,153.4"
     id="path92" />
  <path
     stroke="none"
     fill="#bf9c66"
     d="m 69.85,153.4 q 0.85,8 4.05,14.55 l -1.7,0.15 q -3.1,0 -5.35,-2.25 -2.1,-2.1 -2.15,-5.05 v -0.4 q 0.05,-3 2.15,-5.2 1.35,-1.3 3,-1.8 m 48.05,0.3 2.1,1.5 q 2.25,2.25 2.25,5.4 0,3.1 -2.25,5.25 -2.15,2.25 -5.3,2.25 l -0.9,-0.05 q 3.15,-6.45 4.1,-14.35"
     id="path94" />
  <path
     stroke="none"
     fill="#bf9c66"
     d="m 110.3,193.8 q -0.65,3.6 -4.55,6.2 -4.7,3.2 -11.3,3.2 -6.65,0 -11.3,-3.2 -3.9,-2.6 -4.55,-6.2 15.4,-5.85 31.7,0"
     id="path96" />
  <path
     stroke="none"
     fill="#d2ac73"
     d="m 40.3,131.15 q 9.6,24.5 10.6,50.85 L 32,184.7 Q 33.95,158.35 20.15,133.55 28.8,128 40.3,131.15"
     id="path98" />
</svg>
