<?xml version="1.0" encoding="UTF-8" standalone="no"?>
<svg
   version="1.1"
   id="svg190"
   sodipodi:docname="vector_face.svg"
   inkscape:version="1.1.1 (3bf5ae0d25, 2021-09-20)"
   xmlns:inkscape="http://www.inkscape.org/namespaces/inkscape"
   xmlns:sodipodi="http://sodipodi.sourceforge.net/DTD/sodipodi-0.dtd"
   xmlns="http://www.w3.org/2000/svg"
   xmlns:svg="http://www.w3.org/2000/svg">
  <sodipodi:namedview
     id="namedview192"
     pagecolor="#ffffff"
     bordercolor="#666666"
     borderopacity="1.0"
     inkscape:pageshadow="2"
     inkscape:pageopacity="0.0"
     inkscape:pagecheckerboard="0"
     showgrid="false"
     inkscape:zoom="4.0133333"
     inkscape:cx="149.87542"
     inkscape:cy="74.875415"
     inkscape:window-width="1417"
     inkscape:window-height="1088"
     inkscape:window-x="286"
     inkscape:window-y="468"
     inkscape:window-maximized="0"
     inkscape:current-layer="svg190" />
  <defs
     id="defs2" />
  <path
     stroke="none"
     fill="#ffffff"
     d="m 20,192 11.35,-0.65 -0.3,0.6 q -0.95,2.3 -3.3,3.2 -2.3,0.95 -4.6,0 Q 20.95,194.2 20,192"
     id="path4" />
  <path
     stroke="none"
     fill="#3c3c3c"
     d="M 20,17.8 Q 26.3,15.25 33.05,15 L 32.1,20.45 Q 26.55,18.6 20.6,20.75 L 20,17.8"
     id="path6" />
  <path
     stroke="none"
     fill="#d4cbb9"
     d="M 52.1,20.45 Q 46.55,18.6 40.6,20.75 L 40,17.8 Q 46.3,15.25 53.05,15 l -0.95,5.45"
     id="path8" />
  <path
     stroke="none"
     fill="#d7bf94"
     d="M 72.1,20.45 Q 66.55,18.6 60.6,20.75 L 60,17.8 Q 66.3,15.25 73.05,15 l -0.95,5.45"
     id="path10" />
  <path
     stroke="none"
     fill="#d4946b"
     d="M 93.05,15 92.1,20.45 Q 86.55,18.6 80.6,20.75 L 80,17.8 Q 86.3,15.25 93.05,15"
     id="path12" />
  <path
     stroke="none"
     fill="#694c39"
     d="m 112.1,20.45 q -5.55,-1.85 -11.5,0.3 L 100,17.8 q 6.3,-2.55 13.05,-2.8 l -0.95,5.45"
     id="path14" />
  <path
     stroke="none"
     fill="#5d544e"
     d="m 133.05,15 -0.95,5.45 q -5.55,-1.85 -11.5,0.3 L 120,17.8 q 6.3,-2.55 13.05,-2.8"
     id="path16" />
  <path
     stroke="none"
     fill="#989898"
     d="m 152.1,20.45 q -5.55,-1.85 -11.5,0.3 L 140,17.8 q 6.3,-2.55 13.05,-2.8 l -0.95,5.45"
     id="path18" />
  <path
     stroke="none"
     fill="#e5e5e5"
     d="m 173.05,15 -0.95,5.45 q -5.55,-1.85 -11.5,0.3 L 160,17.8 q 6.3,-2.55 13.05,-2.8"
     id="path20" />
  <path
     stroke="none"
     fill="#3c3c3c"
     d="m 20.05,39.15 0.15,-3 Q 27,35.3 33.55,36.8 l -0.95,1.9 -12.55,0.45"
     id="path22" />
  <path
     stroke="none"
     fill="#d4cbb9"
     d="m 53.55,36.8 -0.95,1.9 -12.55,0.45 0.15,-3 Q 47,35.3 53.55,36.8"
     id="path24" />
  <path
     stroke="none"
     fill="#d7bf94"
     d="m 60.05,39.15 0.15,-3 Q 67,35.3 73.55,36.8 l -0.95,1.9 -12.55,0.45"
     id="path26" />
  <path
     stroke="none"
     fill="#d4946b"
     d="m 93.55,36.8 -0.95,1.9 -12.55,0.45 0.15,-3 Q 87,35.3 93.55,36.8"
     id="path28" />
  <path
     stroke="none"
     fill="#694c39"
     d="m 100.05,39.15 0.15,-3 q 6.8,-0.85 13.35,0.65 l -0.95,1.9 -12.55,0.45"
     id="path30" />
  <path
     stroke="none"
     fill="#5d544e"
     d="m 133.55,36.8 -0.95,1.9 -12.55,0.45 0.15,-3 q 6.8,-0.85 13.35,0.65"
     id="path32" />
  <path
     stroke="none"
     fill="#989898"
     d="m 140.05,39.15 0.15,-3 q 6.8,-0.85 13.35,0.65 l -0.95,1.9 -12.55,0.45"
     id="path34" />
  <path
     stroke="none"
     fill="#e5e5e5"
     d="m 173.55,36.8 -0.95,1.9 -12.55,0.45 0.15,-3 q 6.8,-0.85 13.35,0.65"
     id="path36" />
  <path
     stroke="none"
     fill="#e5e5e5"
     d="m 173.05,55 -0.7,3.05 q -5.8,0.55 -11.75,2.7 L 160,57.8 q 6.3,-2.55 13.05,-2.8"
     id="path38" />
  <path
     stroke="none"
     fill="#989898"
     d="m 153.05,55 -0.7,3.05 q -5.8,0.55 -11.75,2.7 L 140,57.8 q 6.3,-2.55 13.05,-2.8"
     id="path40" />
  <path
     stroke="none"
     fill="#5d544e"
     d="M 120.6,60.75 120,57.8 q 6.3,-2.55 13.05,-2.8 l -0.7,3.05 q -5.8,0.55 -11.75,2.7"
     id="path42" />
  <path
     stroke="none"
     fill="#694c39"
     d="m 113.05,55 -0.7,3.05 q -5.8,0.55 -11.75,2.7 L 100,57.8 q 6.3,-2.55 13.05,-2.8"
     id="path44" />
  <path
     stroke="none"
     fill="#d4946b"
     d="m 93.05,55 -0.7,3.05 q -5.8,0.55 -11.75,2.7 L 80,57.8 Q 86.3,55.25 93.05,55"
     id="path46" />
  <path
     stroke="none"
     fill="#d7bf94"
     d="m 73.05,55 -0.7,3.05 q -5.8,0.55 -11.75,2.7 L 60,57.8 Q 66.3,55.25 73.05,55"
     id="path48" />
  <path
     stroke="none"
     fill="#d4cbb9"
     d="m 52.35,58.05 q -5.8,0.55 -11.75,2.7 L 40,57.8 Q 46.3,55.25 53.05,55 l -0.7,3.05"
     id="path50" />
  <path
     stroke="none"
     fill="#3c3c3c"
     d="M 20.6,60.75 20,57.8 Q 26.3,55.25 33.05,55 l -0.7,3.05 q -5.8,0.55 -11.75,2.7"
     id="path52" />
  <path
     stroke="none"
     fill="#694c39"
     d="M 25.95,84.95 Q 24.95,86 23.5,86 22.05,86 21,84.95 q -1,-1 -1,-2.45 0,-1.45 1,-2.5 1.05,-1 2.5,-1 1.45,0 2.45,1 1.05,1.05 1.05,2.5 0,1.45 -1.05,2.45"
     id="path54" />
  <path
     stroke="none"
     fill="#395269"
     d="m 43.5,79 q 1.45,0 2.45,1 1.05,1.05 1.05,2.5 0,1.45 -1.05,2.45 -1,1.05 -2.45,1.05 -1.45,0 -2.5,-1.05 -1,-1 -1,-2.45 0,-1.45 1,-2.5 1.05,-1 2.5,-1"
     id="path56" />
  <path
     stroke="none"
     fill="#396962"
     d="m 60,82.5 q 0,-1.45 1,-2.5 1.05,-1 2.5,-1 1.45,0 2.45,1 1.05,1.05 1.05,2.5 0,1.45 -1.05,2.45 -1,1.05 -2.45,1.05 -1.45,0 -2.5,-1.05 -1,-1 -1,-2.45"
     id="path58" />
  <path
     stroke="none"
     fill="#4c6939"
     d="m 87,82.5 q 0,1.45 -1.05,2.45 -1,1.05 -2.45,1.05 -1.45,0 -2.5,-1.05 -1,-1 -1,-2.45 0,-1.45 1,-2.5 1.05,-1 2.5,-1 1.45,0 2.45,1 1.05,1.05 1.05,2.5"
     id="path60" />
  <path
     stroke="none"
     fill="#4d4743"
     d="m 103.5,79 q 1.45,0 2.45,1 1.05,1.05 1.05,2.5 0,1.45 -1.05,2.45 -1,1.05 -2.45,1.05 -1.45,0 -2.5,-1.05 -1,-1 -1,-2.45 0,-1.45 1,-2.5 1.05,-1 2.5,-1"
     id="path62" />
  <path
     stroke="none"
     fill="#694c39"
     d="m 22.5,104.05 q -1.05,0 -1.8,-0.75 -0.7,-0.75 -0.7,-1.75 0,-1.05 0.7,-1.8 0.75,-0.7 1.8,-0.7 1,0 1.75,0.7 0.75,0.75 0.75,1.8 0,1 -0.75,1.75 -0.75,0.75 -1.75,0.75"
     id="path64" />
  <path
     stroke="none"
     fill="#395269"
     d="m 44.25,99.75 q 0.75,0.75 0.75,1.8 0,1 -0.75,1.75 -0.7,0.75 -1.75,0.75 -1,0 -1.75,-0.75 -0.75,-0.75 -0.75,-1.75 0,-1.05 0.75,-1.8 0.75,-0.7 1.75,-0.7 1.05,0 1.75,0.7"
     id="path66" />
  <path
     stroke="none"
     fill="#396962"
     d="m 60.7,99.75 q 0.75,-0.7 1.8,-0.7 1.05,0 1.75,0.7 0.75,0.75 0.75,1.8 0,1 -0.75,1.75 -0.7,0.75 -1.75,0.75 -1.05,0 -1.8,-0.75 -0.7,-0.75 -0.7,-1.75 0,-1.05 0.7,-1.8"
     id="path68" />
  <path
     stroke="none"
     fill="#4c6939"
     d="m 80.7,99.75 q 0.75,-0.7 1.8,-0.7 1.05,0 1.75,0.7 0.75,0.75 0.75,1.8 0,1 -0.75,1.75 -0.7,0.75 -1.75,0.75 -1.05,0 -1.8,-0.75 -0.7,-0.75 -0.7,-1.75 0,-1.05 0.7,-1.8"
     id="path70" />
  <path
     stroke="none"
     fill="#4d4743"
     d="m 104.25,99.75 q 0.75,0.75 0.75,1.8 0,1 -0.75,1.75 -0.75,0.75 -1.75,0.75 -1.05,0 -1.8,-0.75 -0.7,-0.75 -0.7,-1.75 0,-1.05 0.7,-1.8 0.75,-0.7 1.8,-0.7 1,0 1.75,0.7"
     id="path72" />
  <path
     stroke="none"
     fill="#4d4743"
     d="m 43.55,193.85 q 1.9,1.15 3.85,0 1.3,-0.8 2.15,-2.4 l 1.8,-0.1 -0.3,0.6 q -0.95,2.3 -3.3,3.2 -2.3,0.95 -4.6,0 Q 40.95,194.2 40,192 l 1.8,-0.1 q 0.7,1.25 1.75,1.95"
     id="path74" />
  <path
     stroke="none"
     fill="#4d4743"
     d="m 67.4,193.05 q -1.95,-1.15 -3.85,0 -1.05,0.7 -1.75,1.95 L 60,194.9 q 0.95,-2.2 3.15,-3.15 2.3,-0.95 4.6,0 2.35,0.9 3.3,3.2 l 0.3,0.6 -1.8,-0.1 q -0.85,-1.6 -2.15,-2.4"
     id="path76" />
  <path
     stroke="none"
     fill="#4d4743"
     d="m 135.6,190.95 h 11.6 v 1.35 l -11.6,0.4 v -1.75"
     id="path78" />
  <path
     stroke="none"
     fill="#4d4743"
     d="m 90.4,193.2 q -1,1.3 -2.65,1.95 -2.3,0.95 -4.6,0 -1.2,-0.5 -2.05,-1.4 l 9.3,-0.55"
     id="path80" />
  <path
     stroke="none"
     fill="#ffffff"
     d="m 90.4,193.2 -9.3,0.55 -1.1,-1.75 11.35,-0.65 -0.3,0.6 -0.65,1.25"
     id="path82" />
  <path
     stroke="none"
     fill="#ffffff"
     d="m 101.25,193.9 8.95,-0.5 q -0.95,1.15 -2.45,1.75 -2.3,0.95 -4.6,0 l -1.9,-1.25"
     id="path84" />
  <path
     stroke="none"
     fill="#4d4743"
     d="m 101.25,193.9 q -0.8,-0.8 -1.25,-1.9 l 11.35,-0.65 -0.3,0.6 -0.85,1.45 -8.95,0.5"
     id="path86" />
  <path
     stroke="none"
     fill="#4d4743"
     d="m 122.4,194.45 q -0.7,-0.7 -0.7,-1.65 0,-0.95 0.7,-1.65 0.7,-0.7 1.65,-0.7 0.95,0 1.65,0.7 0.7,0.7 0.7,1.65 0,0.95 -0.7,1.65 -0.7,0.7 -1.65,0.7 -0.95,0 -1.65,-0.7"
     id="path88" />
  <path
     stroke="none"
     fill="#f5d29d"
     d="m 20,127.85 q 0.15,-1.95 1.55,-3.35 1.5,-1.5 3.6,-1.5 2.15,0 3.65,1.5 1.4,1.4 1.5,3.35 v 0.1 q 0,0.8 -1.5,1.4 l -3.65,0.55 -3.6,-0.55 Q 20,128.75 20,127.95 v -0.1"
     id="path90" />
  <path
     stroke="none"
     fill="#e7c38c"
     d="m 45.15,129.9 -3.6,-0.55 Q 40,128.75 40,127.95 v -0.1 q 0.15,-1.95 1.55,-3.35 1.5,-1.5 3.6,-1.5 2.15,0 3.65,1.5 1.4,1.4 1.5,3.35 v 0.1 q 0,0.8 -1.5,1.4 -1.5,0.55 -3.65,0.55"
     id="path92" />
  <path
     stroke="none"
     fill="#ffe0b1"
     d="m 60,127.85 q 0.15,-1.95 1.55,-3.35 1.5,-1.5 3.6,-1.5 2.15,0 3.65,1.5 1.4,1.4 1.5,3.35 v 0.1 q 0,0.8 -1.5,1.4 l -3.65,0.55 -3.6,-0.55 Q 60,128.75 60,127.95 v -0.1"
     id="path94" />
  <path
     stroke="none"
     fill="#d2ac73"
     d="m 80,127.85 q 0.15,-1.95 1.55,-3.35 1.5,-1.5 3.6,-1.5 2.15,0 3.65,1.5 1.4,1.4 1.5,3.35 v 0.1 q 0,0.8 -1.5,1.4 l -3.65,0.55 -3.6,-0.55 Q 80,128.75 80,127.95 v -0.1"
     id="path96" />
  <path
     stroke="none"
     fill="#bf9c66"
     d="m 100,127.85 q 0.15,-1.95 1.55,-3.35 1.5,-1.5 3.6,-1.5 2.15,0 3.65,1.5 1.4,1.4 1.5,3.35 v 0.1 q 0,0.8 -1.5,1.4 l -3.65,0.55 -3.6,-0.55 q -1.55,-0.6 -1.55,-1.4 v -0.1"
     id="path98" />
  <path
     stroke="none"
     fill="#aa8956"
     d="m 128.8,124.5 q 1.4,1.4 1.5,3.35 v 0.1 q 0,0.8 -1.5,1.4 l -3.65,0.55 -3.6,-0.55 q -1.55,-0.6 -1.55,-1.4 v -0.1 q 0.15,-1.95 1.55,-3.35 1.5,-1.5 3.6,-1.5 2.15,0 3.65,1.5"
     id="path100" />
  <path
     stroke="none"
     fill="#957544"
     d="m 140,127.95 v -0.1 q 0.15,-1.95 1.55,-3.35 1.5,-1.5 3.6,-1.5 2.15,0 3.65,1.5 1.4,1.4 1.5,3.35 v 0.1 q 0,0.8 -1.5,1.4 -1.5,0.55 -3.65,0.55 l -3.6,-0.55 q -1.55,-0.6 -1.55,-1.4"
     id="path102" />
  <path
     stroke="none"
     fill="#836538"
     d="m 170.3,127.95 q 0,0.8 -1.5,1.4 l -3.65,0.55 -3.6,-0.55 q -1.55,-0.6 -1.55,-1.4 v -0.1 q 0.15,-1.95 1.55,-3.35 1.5,-1.5 3.6,-1.5 2.15,0 3.65,1.5 1.4,1.4 1.5,3.35 v 0.1"
     id="path104" />
  <path
     stroke="none"
     fill="#f5d29d"
     d="m 27.8,144.75 q 1.1,1.6 1.2,3.9 v 0.1 q 0,0.95 -1.2,1.6 Q 26.7,151 25,151 23.35,151 22.2,150.35 21,149.7 21,148.75 v -0.1 q 0.1,-2.3 1.2,-3.9 1.15,-1.75 2.8,-1.75 1.7,0 2.8,1.75"
     id="path106" />
  <path
     stroke="none"
     fill="#e7c38c"
     d="m 45,143 q 1.7,0 2.8,1.75 1.1,1.6 1.2,3.9 v 0.1 q 0,0.95 -1.2,1.6 Q 46.7,151 45,151 43.35,151 42.2,150.35 41,149.7 41,148.75 v -0.1 q 0.1,-2.3 1.2,-3.9 Q 43.35,143 45,143"
     id="path108" />
  <path
     stroke="none"
     fill="#ffe0b1"
     d="m 67.8,144.75 q 1.1,1.6 1.2,3.9 v 0.1 q 0,0.95 -1.2,1.6 Q 66.7,151 65,151 63.35,151 62.2,150.35 61,149.7 61,148.75 v -0.1 q 0.1,-2.3 1.2,-3.9 1.15,-1.75 2.8,-1.75 1.7,0 2.8,1.75"
     id="path110" />
  <path
     stroke="none"
     fill="#d2ac73"
     d="m 85,143 q 1.7,0 2.8,1.75 1.1,1.6 1.2,3.9 v 0.1 q 0,0.95 -1.2,1.6 Q 86.7,151 85,151 83.35,151 82.2,150.35 81,149.7 81,148.75 v -0.1 q 0.1,-2.3 1.2,-3.9 Q 83.35,143 85,143"
     id="path112" />
  <path
     stroke="none"
     fill="#bf9c66"
     d="m 105,143 q 1.7,0 2.8,1.75 1.1,1.6 1.2,3.9 v 0.1 q 0,0.95 -1.2,1.6 -1.1,0.65 -2.8,0.65 -1.65,0 -2.8,-0.65 -1.2,-0.65 -1.2,-1.6 v -0.1 q 0.1,-2.3 1.2,-3.9 1.15,-1.75 2.8,-1.75"
     id="path114" />
  <path
     stroke="none"
     fill="#aa8956"
     d="m 127.8,144.75 q 1.1,1.6 1.2,3.9 v 0.1 q 0,0.95 -1.2,1.6 -1.1,0.65 -2.8,0.65 -1.65,0 -2.8,-0.65 -1.2,-0.65 -1.2,-1.6 v -0.1 q 0.1,-2.3 1.2,-3.9 1.15,-1.75 2.8,-1.75 1.7,0 2.8,1.75"
     id="path116" />
  <path
     stroke="none"
     fill="#957544"
     d="m 147.8,144.75 q 1.1,1.6 1.2,3.9 v 0.1 q 0,0.95 -1.2,1.6 -1.1,0.65 -2.8,0.65 -1.65,0 -2.8,-0.65 -1.2,-0.65 -1.2,-1.6 v -0.1 q 0.1,-2.3 1.2,-3.9 1.15,-1.75 2.8,-1.75 1.7,0 2.8,1.75"
     id="path118" />
  <path
     stroke="none"
     fill="#836538"
     d="m 167.8,144.75 q 1.1,1.6 1.2,3.9 v 0.1 q 0,0.95 -1.2,1.6 -1.1,0.65 -2.8,0.65 -1.65,0 -2.8,-0.65 -1.2,-0.65 -1.2,-1.6 v -0.1 q 0.1,-2.3 1.2,-3.9 1.15,-1.75 2.8,-1.75 1.7,0 2.8,1.75"
     id="path120" />
  <path
     stroke="none"
     fill="#f5d29d"
     d="m 28.05,166.4 v 0.05 q -0.1,1.45 -1.05,2.45 -1.05,1.1 -2.45,1.1 -1.5,0 -2.5,-1.1 -0.95,-1 -1.05,-2.45 v -0.05 q 0,-0.6 1.05,-1 l 2.5,-0.4 2.45,0.4 q 1.05,0.4 1.05,1"
     id="path122" />
  <path
     stroke="none"
     fill="#e7c38c"
     d="m 48.05,166.4 v 0.05 q -0.1,1.45 -1.05,2.45 -1.05,1.1 -2.45,1.1 -1.5,0 -2.5,-1.1 -0.95,-1 -1.05,-2.45 v -0.05 q 0,-0.6 1.05,-1 l 2.5,-0.4 2.45,0.4 q 1.05,0.4 1.05,1"
     id="path124" />
  <path
     stroke="none"
     fill="#ffe0b1"
     d="m 68.05,166.45 q -0.1,1.45 -1.05,2.45 -1.05,1.1 -2.45,1.1 -1.5,0 -2.5,-1.1 -0.95,-1 -1.05,-2.45 v -0.05 q 0,-0.6 1.05,-1 l 2.5,-0.4 2.45,0.4 q 1.05,0.4 1.05,1 v 0.05"
     id="path126" />
  <path
     stroke="none"
     fill="#d2ac73"
     d="m 88.05,166.4 v 0.05 q -0.1,1.45 -1.05,2.45 -1.05,1.1 -2.45,1.1 -1.5,0 -2.5,-1.1 -0.95,-1 -1.05,-2.45 v -0.05 q 0,-0.6 1.05,-1 l 2.5,-0.4 2.45,0.4 q 1.05,0.4 1.05,1"
     id="path128" />
  <path
     stroke="none"
     fill="#bf9c66"
     d="m 107,168.9 q -1.05,1.1 -2.45,1.1 -1.5,0 -2.5,-1.1 -0.95,-1 -1.05,-2.45 v -0.05 q 0,-0.6 1.05,-1 l 2.5,-0.4 2.45,0.4 q 1.05,0.4 1.05,1 v 0.05 q -0.1,1.45 -1.05,2.45"
     id="path130" />
  <path
     stroke="none"
     fill="#aa8956"
     d="m 121,166.4 q 0,-0.6 1.05,-1 l 2.5,-0.4 2.45,0.4 q 1.05,0.4 1.05,1 v 0.05 q -0.1,1.45 -1.05,2.45 -1.05,1.1 -2.45,1.1 -1.5,0 -2.5,-1.1 -0.95,-1 -1.05,-2.45 v -0.05"
     id="path132" />
  <path
     stroke="none"
     fill="#957544"
     d="m 142.05,168.9 q -0.95,-1 -1.05,-2.45 v -0.05 q 0,-0.6 1.05,-1 l 2.5,-0.4 2.45,0.4 q 1.05,0.4 1.05,1 v 0.05 q -0.1,1.45 -1.05,2.45 -1.05,1.1 -2.45,1.1 -1.5,0 -2.5,-1.1"
     id="path134" />
  <path
     stroke="none"
     fill="#836538"
     d="m 168.05,166.4 v 0.05 q -0.1,1.45 -1.05,2.45 -1.05,1.1 -2.45,1.1 -1.5,0 -2.5,-1.1 -0.95,-1 -1.05,-2.45 v -0.05 q 0,-0.6 1.05,-1 l 2.5,-0.4 2.45,0.4 q 1.05,0.4 1.05,1"
     id="path136" />
  <path
     stroke="none"
     fill="#f5d29d"
     d="m 246.95,79.75 q -1.5,0.55 -3.65,0.55 l -3.6,-0.55 q -1.55,-0.6 -1.55,-1.4 v -0.1 q 0.15,-1.95 1.55,-3.35 1.5,-1.5 3.6,-1.5 2.15,0 3.65,1.5 1.4,1.4 1.5,3.35 v 0.1 q 0,0.8 -1.5,1.4"
     id="path138" />
  <path
     stroke="none"
     fill="#ffffff"
     d="M 244.3,88.15 Q 242.1,87.2 241.15,85 l 11.35,-0.65 -0.3,0.6 q -0.95,2.3 -3.3,3.2 -2.3,0.95 -4.6,0"
     id="path140" />
  <path
     stroke="none"
     fill="#694c39"
     d="m 251.45,73.05 q -1,-1 -1,-2.45 0,-1.45 1,-2.5 1.05,-1 2.5,-1 1.45,0 2.45,1 1.05,1.05 1.05,2.5 0,1.45 -1.05,2.45 -1,1.05 -2.45,1.05 -1.45,0 -2.5,-1.05"
     id="path142" />
  <path
     stroke="none"
     fill="#694c39"
     d="m 233.15,74.1 q -1.45,0 -2.5,-1.05 -1,-1 -1,-2.45 0,-1.45 1,-2.5 1.05,-1 2.5,-1 1.45,0 2.45,1 1.05,1.05 1.05,2.5 0,1.45 -1.05,2.45 -1,1.05 -2.45,1.05"
     id="path144" />
  <path
     stroke="none"
     fill="#3c3c3c"
     d="M 227.95,57.8 Q 234.25,55.25 241,55 l -0.95,5.45 q -5.55,-1.85 -11.5,0.3 l -0.6,-2.95"
     id="path146" />
  <path
     stroke="none"
     fill="#3c3c3c"
     d="m 247.9,57.35 q 6.75,0.25 13.05,2.8 l -0.6,2.95 q -5.95,-2.15 -11.5,-0.3 l -0.95,-5.45"
     id="path148" />
  <path
     stroke="none"
     fill="#396962"
     d="m 303.45,68.1 q 1.05,-1 2.5,-1 1.45,0 2.45,1 1.05,1.05 1.05,2.5 0,1.45 -1.05,2.45 -1,1.05 -2.45,1.05 -1.45,0 -2.5,-1.05 -1,-1 -1,-2.45 0,-1.45 1,-2.5"
     id="path150" />
  <path
     stroke="none"
     fill="#f5d29d"
     d="m 459.65,70.6 q 2.1,2.1 2.25,5.05 v 0.15 q 0,1.2 -2.25,2.1 -2.3,0.85 -5.55,0.85 -3.15,0 -5.4,-0.85 -2.35,-0.9 -2.35,-2.1 v -0.15 q 0.2,-2.95 2.35,-5.05 2.25,-2.3 5.4,-2.3 3.25,0 5.55,2.3"
     id="path152" />
  <path
     stroke="none"
     fill="#396962"
     d="m 318.95,68.35 q 1.05,-1 2.5,-1 1.45,0 2.45,1 1.05,1.05 1.05,2.5 0,1.45 -1.05,2.45 -1,1.05 -2.45,1.05 -1.45,0 -2.5,-1.05 -1,-1 -1,-2.45 0,-1.45 1,-2.5"
     id="path154" />
  <path
     stroke="none"
     fill="#f5d29d"
     d="m 317.6,79.95 v 0.1 q 0,0.95 -1.2,1.6 -1.1,0.65 -2.8,0.65 -1.65,0 -2.8,-0.65 -1.2,-0.65 -1.2,-1.6 v -0.1 q 0.1,-2.3 1.2,-3.9 1.15,-1.75 2.8,-1.75 1.7,0 2.8,1.75 1.1,1.6 1.2,3.9"
     id="path156" />
  <path
     stroke="none"
     fill="#4d4743"
     d="m 310.55,88.4 9.3,-0.55 q -1,1.3 -2.65,1.95 -2.3,0.95 -4.6,0 -1.2,-0.5 -2.05,-1.4"
     id="path158" />
  <path
     stroke="none"
     fill="#ffffff"
     d="m 310.55,88.4 -1.1,-1.75 11.35,-0.65 -0.3,0.6 -0.65,1.25 -9.3,0.55"
     id="path160" />
  <path
     stroke="none"
     fill="#694c39"
     d="m 308.7,60.6 q -8,2.15 -11.65,4.75 L 296.2,62.5 q 6.05,-3.15 12.7,-4 l -0.2,2.1"
     id="path162" />
  <path
     stroke="none"
     fill="#694c39"
     d="m 328,60.05 q -3.85,-2.2 -12,-3.7 l -0.4,-2.05 q 6.7,0.25 13.05,2.85 l -0.65,2.9"
     id="path164" />
  <path
     stroke="none"
     fill="#4d4743"
     d="m 399.75,73.55 q 0,1 -0.75,1.75 -0.75,0.75 -1.75,0.75 -1.05,0 -1.8,-0.75 -0.7,-0.75 -0.7,-1.75 0,-1.05 0.7,-1.8 0.75,-0.7 1.8,-0.7 1,0 1.75,0.7 0.75,0.75 0.75,1.8"
     id="path166" />
  <path
     stroke="none"
     fill="#4d4743"
     d="m 374.25,74.3 q -0.75,0.75 -1.75,0.75 -1.05,0 -1.8,-0.75 -0.7,-0.75 -0.7,-1.75 0,-1.05 0.7,-1.8 0.75,-0.7 1.8,-0.7 1,0 1.75,0.7 0.75,0.75 0.75,1.8 0,1 -0.75,1.75"
     id="path168" />
  <path
     stroke="none"
     fill="#e7c38c"
     d="M 381.75,75.45 V 75.4 q 0,-0.6 1.05,-1 l 2.5,-0.4 2.45,0.4 q 1.05,0.4 1.05,1 v 0.05 q -0.1,1.45 -1.05,2.45 -1.05,1.1 -2.45,1.1 -1.5,0 -2.5,-1.1 -0.95,-1 -1.05,-2.45"
     id="path170" />
  <path
     stroke="none"
     fill="#4d4743"
     d="m 389.7,82.3 v 1.35 l -11.6,0.4 V 82.3 h 11.6"
     id="path172" />
  <path
     stroke="none"
     fill="#d4cbb9"
     d="m 365.75,65.35 q 6.3,-2.55 13.05,-2.8 L 377.85,68 q -5.55,-1.85 -11.5,0.3 l -0.6,-2.95"
     id="path174" />
  <path
     stroke="none"
     fill="#d4cbb9"
     d="M 402.15,68.3 Q 396.2,66.15 390.65,68 l -0.95,-5.45 q 6.75,0.25 13.05,2.8 l -0.6,2.95"
     id="path176" />
  <path
     stroke="none"
     fill="#4d4743"
     d="m 441.15,70 q -1,-1 -1,-2.45 0,-1.45 1,-2.5 1.05,-1 2.5,-1 1.45,0 2.45,1 1.05,1.05 1.05,2.5 0,1.45 -1.05,2.45 -1,1.05 -2.45,1.05 -1.45,0 -2.5,-1.05"
     id="path178" />
  <path
     stroke="none"
     fill="#4d4743"
     d="m 467.85,66.35 q 1.05,1.05 1.05,2.5 0,1.45 -1.05,2.45 -1,1.05 -2.45,1.05 -1.45,0 -2.5,-1.05 -1,-1 -1,-2.45 0,-1.45 1,-2.5 1.05,-1 2.5,-1 1.45,0 2.45,1"
     id="path180" />
  <path
     stroke="none"
     fill="#4d4743"
     d="m 460.3,81.85 1.8,-0.1 -0.3,0.6 q -0.95,2.3 -3.3,3.2 -2.3,0.95 -4.6,0 -2.2,-0.95 -3.15,-3.15 l 1.8,-0.1 q 0.7,1.25 1.75,1.95 1.9,1.15 3.85,0 1.3,-0.8 2.15,-2.4"
     id="path182" />
  <path
     stroke="none"
     fill="#3c3c3c"
     d="m 437.2,63.1 -0.6,-2.95 q 6.3,-2.55 13.05,-2.8 l -0.7,3.05 q -5.8,0.55 -11.75,2.7"
     id="path184" />
  <path
     stroke="none"
     fill="#3c3c3c"
     d="m 460.75,63.15 -0.7,-3.05 q 6.75,0.25 13.05,2.8 l -0.6,2.95 q -5.95,-2.15 -11.75,-2.7"
     id="path186" />
</svg>
