<?xml version="1.0" standalone="no"?>
<!DOCTYPE svg PUBLIC "-//W3C//DTD SVG 20010904//EN"
 "http://www.w3.org/TR/2001/REC-SVG-20010904/DTD/svg10.dtd">
<svg version="1.0" xmlns="http://www.w3.org/2000/svg"
 width="522.000000pt" height="522.000000pt" viewBox="0 0 522.000000 522.000000"
 preserveAspectRatio="xMidYMid meet">
<metadata>
Created by potrace 1.14, written by Peter Selinger 2001-2017
</metadata>
<g transform="translate(0.000000,522.000000) scale(0.100000,-0.100000)"
fill="#000000" stroke="none">
<path d="M907 5200 c-180 -57 -297 -222 -314 -441 l-6 -76 48 -6 c173 -24 297
-188 290 -382 -7 -184 -125 -331 -282 -353 l-48 -7 -3 -53 c-3 -52 -3 -52 27
-52 49 0 136 -38 184 -80 45 -40 97 -131 115 -200 14 -54 7 -164 -13 -225 -44
-129 -163 -227 -289 -237 -24 -2 -26 -6 -26 -50 0 -31 5 -50 13 -52 6 -2 37
-9 67 -16 154 -36 265 -199 255 -374 -4 -77 -8 -94 -39 -161 -51 -113 -160
-191 -268 -194 -27 -1 -28 -3 -28 -55 l0 -53 48 -5 c127 -12 244 -128 278
-275 33 -144 -23 -316 -130 -398 -43 -32 -126 -65 -166 -65 -29 0 -30 -1 -30
-50 0 -46 2 -50 28 -55 61 -13 107 -28 131 -43 189 -116 235 -395 95 -575 -57
-73 -154 -127 -231 -127 -21 0 -23 -5 -23 -43 0 -115 41 -240 105 -322 59 -76
120 -122 202 -150 l68 -25 1937 0 c1912 0 1937 0 2001 20 155 48 278 197 306
370 8 44 11 769 11 2241 0 2108 -1 2177 -19 2242 -49 170 -165 293 -313 333
-45 11 -361 14 -1988 13 -1857 0 -1937 -1 -1993 -19z"/>
<path d="M143 4529 c-87 -37 -137 -113 -138 -209 0 -100 41 -167 130 -213 36
-19 58 -21 242 -22 224 -1 266 6 323 53 128 106 101 317 -50 386 -41 18 -65
20 -256 21 -176 1 -219 -2 -251 -16z"/>
<path d="M185 3690 c-119 -28 -191 -124 -181 -241 5 -68 22 -102 73 -151 58
-56 105 -65 333 -63 181 1 199 3 242 24 56 27 105 85 123 144 12 40 12 54 0
123 -8 46 -58 109 -111 140 -47 28 -48 28 -248 29 -111 1 -214 -2 -231 -5z"/>
<path d="M159 2833 c-50 -14 -108 -64 -136 -116 -23 -42 -23 -160 -1 -203 22
-41 73 -89 117 -110 29 -14 70 -17 233 -19 220 -1 269 6 326 52 127 103 109
295 -35 380 -47 27 -47 27 -252 28 -142 1 -220 -3 -252 -12z"/>
<path d="M177 1988 c-95 -20 -177 -121 -177 -219 0 -55 30 -126 70 -165 65
-63 99 -70 333 -69 198 1 207 2 253 26 164 84 169 305 11 403 l-48 30 -202 1
c-111 1 -219 -3 -240 -7z"/>
<path d="M170 1137 c-107 -28 -180 -139 -165 -251 8 -60 27 -100 69 -138 59
-55 83 -60 296 -62 107 -2 213 1 235 6 208 46 241 329 49 428 -47 24 -55 25
-249 25 -110 1 -216 -3 -235 -8z"/>
</g>
</svg>
