<?xml version="1.0" encoding="UTF-8" standalone="no"?>
<!-- Created with Inkscape (http://www.inkscape.org/) -->

<svg
   width="210mm"
   height="297mm"
   viewBox="0 0 210 297"
   version="1.1"
   id="svg5"
   inkscape:version="1.1.1 (3bf5ae0d25, 2021-09-20)"
   sodipodi:docname="home-tiles.svg"
   xmlns:inkscape="http://www.inkscape.org/namespaces/inkscape"
   xmlns:sodipodi="http://sodipodi.sourceforge.net/DTD/sodipodi-0.dtd"
   xmlns="http://www.w3.org/2000/svg"
   xmlns:svg="http://www.w3.org/2000/svg">
  <sodipodi:namedview
     id="namedview7"
     pagecolor="#ffffff"
     bordercolor="#666666"
     borderopacity="1.0"
     inkscape:pageshadow="2"
     inkscape:pageopacity="0.0"
     inkscape:pagecheckerboard="true"
     inkscape:document-units="mm"
     showgrid="true"
     inkscape:zoom="0.5499273"
     inkscape:cx="-195.48038"
     inkscape:cy="-200.02644"
     inkscape:window-width="2671"
     inkscape:window-height="1569"
     inkscape:window-x="1020"
     inkscape:window-y="153"
     inkscape:window-maximized="0"
     inkscape:current-layer="layer1"
     inkscape:object-nodes="false"
     inkscape:snap-nodes="false"
     inkscape:snap-global="false"
     showguides="true"
     inkscape:lockguides="true" />
  <defs
     id="defs2" />
  <g
     inkscape:label="Calque 1"
     inkscape:groupmode="layer"
     id="layer1">
    <g
       id="tile_say_something_else"
       transform="translate(-336.46885,-245.09497)">
      <rect
         style="opacity:0.998;fill:#ffffff;fill-opacity:1;stroke:none;stroke-width:0.525033;stroke-linecap:round;stroke-linejoin:miter;stroke-miterlimit:4;stroke-dasharray:none;stroke-opacity:1"
         id="rect1148"
         width="39.6875"
         height="39.6875"
         x="0"
         y="0" />
      <g
         id="g1461"
         transform="translate(-2.1194183,13.102182)">
        <path
           stroke="none"
           fill="#f5d29d"
           d="m 6.4727274,14.802854 -0.02646,-0.251354 -0.05292,-1.150938 v -0.105833 q 0.02646,-2.196042 1.878542,-3.7703128 1.8917696,-1.5875 4.5640616,-1.5875 2.672291,0 4.550833,1.5875 1.852083,1.5742708 1.891771,3.7703128 v 0.105833 l -0.06615,1.150938 -0.02646,0.330729 q -0.25135,2.090208 -1.084787,3.796771 l -0.714375,1.217083 q -1.878542,2.791354 -4.550833,2.791354 -2.672292,0 -4.5640616,-2.791354 -0.410105,-0.595312 -0.727605,-1.243542 -0.846666,-1.73302 -1.071562,-3.849687"
           id="path20"
           style="stroke-width:0.264583" />
        <path
           d="m 12.190628,5.8014746 c 1.261181,-0.864307 2.853089,-1.11125 4.775728,-0.740834 l -0.833437,1.468438 c 1.508125,-0.573265 3.011839,-0.260173 4.511146,0.939271 l -2.169584,1.09802 c 0.890765,0.167569 1.44639,0.79375 1.666875,1.8785424 l -0.833437,0.05292 c 0.238125,0.926042 0.286631,1.878542 0.145521,2.8575 -0.202848,1.014235 -0.489479,1.975556 -0.859896,2.883958 l -1.058333,-0.661458 0.264583,-1.322917 -0.330729,-0.264583 0.132291,-1.825625 c 0.202848,-1.040694 -0.15875,-1.74625 -1.084791,-2.116667 -1.208265,-0.4762504 -2.52236,-0.7452444 -3.942292,-0.8069794 -1.419932,0.06174 -2.7340266,0.330729 -3.9422916,0.8069794 -0.926042,0.370417 -1.28764,1.075973 -1.084792,2.116667 l 0.132292,1.825625 -0.330729,0.264583 0.264583,1.322917 -1.058333,0.661458 c -0.370417,-0.908402 -0.657048,-1.869723 -0.859896,-2.883958 -0.06174,-0.414515 -0.08819,-0.824619 -0.07938,-1.230313 0.0441,-4.4626394 2.306285,-6.9056254 6.7865626,-7.3289584 l -0.277812,1.018646 0.06615,-0.01323"
           style="fill:#3c3c3c;stroke:none;stroke-width:0.264583"
           id="path892" />
        <path
           stroke="none"
           fill="#e7c38c"
           d="m 6.2027114,13.905057 q 0.224896,2.116667 1.071562,3.849687 l -0.449791,0.03969 q -0.820208,0 -1.415521,-0.595312 -0.555625,-0.555625 -0.568854,-1.336146 v -0.105834 q 0.01323,-0.79375 0.568854,-1.375833 0.357188,-0.343958 0.79375,-0.47625 m 12.7132286,0.07938 0.555625,0.396875 q 0.595312,0.595312 0.595312,1.42875 0,0.820208 -0.595312,1.389062 -0.568855,0.595313 -1.402292,0.595313 l -0.238125,-0.01323 q 0.833437,-1.706563 1.084792,-3.796771"
           id="path22"
           style="stroke-width:0.264583" />
        <path
           stroke="none"
           fill="#396962"
           d="m 10.019346,14.868891 q 0.27781,-0.264584 0.66146,-0.264584 0.38364,0 0.64823,0.264584 0.27781,0.277812 0.27781,0.661458 0,0.383646 -0.27781,0.648229 -0.26459,0.277813 -0.64823,0.277813 -0.38365,0 -0.66146,-0.277813 -0.2645796,-0.264583 -0.2645796,-0.648229 0,-0.383646 0.2645796,-0.661458"
           id="path150"
           style="stroke-width:0.264583" />
        <path
           stroke="none"
           fill="#396962"
           d="m 14.120386,14.935037 q 0.27781,-0.264584 0.66146,-0.264584 0.38364,0 0.64823,0.264584 0.27781,0.277812 0.27781,0.661458 0,0.383646 -0.27781,0.648229 -0.26459,0.277813 -0.64823,0.277813 -0.38365,0 -0.66146,-0.277813 -0.26458,-0.264583 -0.26458,-0.648229 0,-0.383646 0.26458,-0.661458"
           id="path154"
           style="stroke-width:0.264583" />
        <path
           stroke="none"
           fill="#f5d29d"
           d="m 13.763196,18.004203 v 0.02646 q 0,0.251354 -0.3175,0.423333 -0.29104,0.171979 -0.74083,0.171979 -0.43656,0 -0.74083,-0.171979 -0.3175,-0.171979 -0.3175,-0.423333 v -0.02646 q 0.0264,-0.608541 0.3175,-1.031875 0.30427,-0.463021 0.74083,-0.463021 0.44979,0 0.74083,0.463021 0.29104,0.423334 0.3175,1.031875"
           id="path156"
           style="stroke-width:0.264583" />
        <path
           stroke="none"
           fill="#694c39"
           d="M 11.408406,12.884516 Q 9.2917364,13.45337 8.3260164,14.141287 l -0.2249,-0.754063 q 1.60073,-0.833437 3.3602096,-1.058333 l -0.0529,0.555625"
           id="path162"
           style="stroke-width:0.264583" />
        <path
           stroke="none"
           fill="#694c39"
           d="m 16.514866,12.738995 q -1.01865,-0.582083 -3.175,-0.978958 l -0.10583,-0.542396 q 1.7727,0.06615 3.45281,0.754062 l -0.17198,0.767292"
           id="path164"
           style="stroke-width:0.264583" />
        <path
           stroke="none"
           fill="#4d4743"
           d="m 11.567853,19.166092 2.46062,-0.14552 q -0.26458,0.343958 -0.70114,0.515937 -0.60854,0.251354 -1.21709,0 -0.3175,-0.132292 -0.54239,-0.370417"
           id="path158"
           style="stroke-width:0.264583" />
      </g>
      <path
         id="path3965"
         style="opacity:0.998;fill:#ffffff;fill-opacity:1;stroke:#000000;stroke-width:0.203608;stroke-linecap:round;stroke-linejoin:miter;stroke-miterlimit:4;stroke-dasharray:none;stroke-opacity:1"
         d="m 29.05577,18.636429 a 7.5720804,5.1025653 0 0 0 -7.572063,5.102523 7.5720804,5.1025653 0 0 0 0.827555,2.31246 l -2.031704,3.519393 5.108488,-1.368786 a 7.5720804,5.1025653 0 0 0 3.667724,0.639456 7.5720804,5.1025653 0 0 0 7.572063,-5.102523 7.5720804,5.1025653 0 0 0 -7.572063,-5.102523 z" />
      <path
         style="opacity:0.998;fill:#000000;fill-opacity:1;stroke:#000000;stroke-width:0.264583;stroke-linecap:round;stroke-linejoin:miter;stroke-miterlimit:4;stroke-dasharray:none;stroke-opacity:1"
         id="path4224"
         d="m 23.407998,22.035266 c 0.164727,-0.143673 0.314018,-0.303563 0.473088,-0.453203 0.02759,-0.02016 0.04947,-0.05282 0.08277,-0.06047 0.01784,-0.0041 -0.03727,0.03244 -0.02718,0.04771 0.01781,0.02695 0.06134,0.0231 0.08696,0.04278 0.03524,0.02707 0.06495,0.06104 0.09303,0.09548 0.07871,0.09657 0.141841,0.206969 0.206958,0.312491 0.08366,0.122597 0.136017,0.266406 0.228937,0.383135 0.01592,0.01999 0.03125,0.04392 0.05497,0.05345 0.07347,0.02952 0.236877,-0.116923 0.238004,-0.11766 0.01914,-0.02627 0.03931,-0.05182 0.05741,-0.07882 0.03554,-0.05297 0.06241,-0.11152 0.09909,-0.163705 0.01161,-0.01652 0.05692,-0.05677 0.0404,-0.04515 -0.09338,0.0657 -0.08185,0.05054 -0.02298,0.100804 0.05223,0.06669 0.08785,0.144038 0.138926,0.211512 0.01265,0.01672 0.02336,0.03643 0.0411,0.04762 0.01481,0.0093 0.03518,0.01729 0.05143,0.01075 0.06175,-0.02483 0.114916,-0.06717 0.172374,-0.100761 0.109199,-0.112897 0.02314,-0.01982 0.125899,-0.142886 0.01797,-0.02152 0.05087,-0.03572 0.05526,-0.06341 0.0035,-0.02194 -0.05523,0.01991 -0.05185,0.04186 0.0032,0.02102 0.04274,0.0076 0.06112,0.01833 0.02946,0.01715 0.05329,0.04253 0.07994,0.0638 0.06784,0.04918 0.15647,0.197589 0.235385,0.223064 0.12111,0.0391 0.328224,-0.151623 0.393756,-0.19846 0.035,-0.0377 0.12338,-0.130598 0.156,-0.174294 0.01085,-0.01454 -0.04591,0.02221 -0.03828,0.03867 0.0105,0.02269 0.04949,0.01336 0.0694,0.02849 0.06773,0.0515 0.120825,0.144414 0.166164,0.211387 0.194005,0.348844 -0.0364,-0.0669 0.142684,0.26051 0.02278,0.04162 0.05417,0.126553 0.113086,0.143746 0.07931,0.02314 0.236106,-0.129247 0.242477,-0.133773 0.147553,-0.211241 0.269462,-0.438267 0.419733,-0.647755 0.04363,-0.05664 0.0658,-0.08868 0.113659,-0.139373 0.01521,-0.01611 0.06978,-0.04966 0.04792,-0.04607 -0.160692,0.02639 -0.0182,0.06352 -0.0064,0.07423 0.02853,0.02599 0.04873,0.05987 0.0731,0.08981 0.09267,0.124304 0.15516,0.268227 0.242943,0.395518 0.04129,0.05988 0.07989,0.125026 0.163825,0.125325 0.03648,1.3e-4 0.06986,-0.02105 0.10478,-0.03158 0.243261,-0.11836 0.340887,-0.274517 0.498967,-0.474831 0.02299,-0.02914 0.05342,-0.05314 0.07081,-0.08594 0.0084,-0.01592 -0.02852,0.02205 -0.04278,0.03308 0.103034,0.03393 0.162269,0.122977 0.226523,0.204285 0.04465,0.05649 0.07081,0.107651 0.13725,0.140531 0.02167,0.01073 0.04718,0.0107 0.07077,0.01605 0.131987,-0.02991 0.06716,-0.0079 0.25082,-0.120725 0.02347,-0.01441 0.04671,-0.02956 0.06749,-0.04763 0.01402,-0.01219 -0.05573,0.01344 -0.04707,0.02988 0.0098,0.01862 0.04273,-0.0046 0.06312,6.09e-4 0.02482,0.0063 0.0462,0.0221 0.0693,0.03314 0.07206,0.04544 0.124701,0.119561 0.212352,0.137306 0.07011,0.01419 0.138139,-0.01515 0.202501,-0.03746 0.122661,-0.03342 0.155567,0.0802 0.24792,0.104495 0.06801,-0.02516 0.0687,-0.02296 0.159004,-0.102751 0.01119,-0.0099 0.071,-0.125809 0.07358,-0.13083 0.187148,-0.364184 -0.105119,0.196855 0.122823,-0.239301 0.151331,-0.271107 0.256532,-0.565549 0.407273,-0.836697 0.01037,-0.01317 0.0468,-0.04543 0.03111,-0.03951 -0.0345,0.013 -0.06593,0.03561 -0.09142,0.06224 -0.0059,0.0062 0.0074,0.01558 0.0089,0.02397 0.01778,0.0978 0.01506,0.202178 0.02024,0.300955 0.0071,0.326616 0.03932,0.65166 0.07468,0.976215 0.02757,0.240459 0.06975,0.478883 0.114779,0.716569 0.01659,0.125858 0.05501,0.246994 0.08033,0.371063 0.01625,0.05067 0.02201,0.104552 0.03752,0.155345 0.0019,0.0059 0.0016,0.01919 0.0074,0.01707 0.04389,-0.01594 0.08278,-0.04325 0.124169,-0.06487 0.0093,-0.282631 0.0076,-0.565543 0.0091,-0.848302 0.0057,-0.182996 -0.0055,-0.366727 0.0074,-0.549519 0.0044,-0.06209 -0.01167,-0.05252 0.02199,-0.06159 -0.03306,0.02806 -0.07614,0.04743 -0.09918,0.08417 -0.0029,0.0046 0.05497,0.150239 0.09105,0.133938 0.05299,-0.02394 0.09918,-0.06074 0.148773,-0.09111 0.0035,-0.005 0.06369,-0.09213 0.06868,-0.09677 0.01161,-0.0108 0.04901,-0.03716 0.04162,-0.02312 -0.01397,0.02656 -0.06001,0.03428 -0.06321,0.06413 -0.0021,0.01907 0.0369,0.01099 0.05428,0.01908 0.01781,0.0083 0.03389,0.01989 0.05084,0.02984 0.110662,0.08369 0.188855,5.29e-4 0.296154,-0.03394 0.02029,-0.0065 0.04189,-0.0078 0.06284,-0.01167 0.02741,0.0091 0.05651,0.01421 0.08222,0.02736 0.07113,0.03638 0.175842,0.121261 0.234619,0.16808 0.108792,0.08666 0.214361,0.176274 0.325589,0.259844 0.101777,0.06982 0.175942,0.06735 0.27977,0.0072 0.154051,-0.08924 0.115004,-0.06011 0.195853,-0.126946 0.05016,-0.04397 0.106984,-0.07995 0.163528,-0.115093 0.01495,-0.0093 0.0602,-0.03644 0.04542,-0.02689 -0.0222,0.01435 -0.04512,0.02752 -0.06768,0.04128 0.04002,-0.02188 0.08272,-0.02706 0.127103,-0.03156 0,0 0.103833,-0.07679 0.103833,-0.07679 v 0 c -0.04528,0.0031 -0.08916,0.0064 -0.130461,0.0277 -0.124097,0.06958 -0.252346,0.136447 -0.361201,0.229372 -0.01273,0.0101 -0.05443,0.0311 -0.0382,0.03031 0.02294,-0.0011 0.03834,-0.0308 0.0613,-0.03143 0.02127,-5.82e-4 -0.03616,0.02273 -0.05565,0.03128 -0.04675,0.0205 -0.08804,0.03259 -0.139777,0.01711 -0.0286,-0.0086 -0.05279,-0.0279 -0.07919,-0.04184 -0.112861,-0.08202 -0.219527,-0.170168 -0.328001,-0.257874 -0.05685,-0.04597 -0.16446,-0.135948 -0.232474,-0.17414 -0.02646,-0.01486 -0.05639,-0.02243 -0.08458,-0.03364 -0.02172,0.003 -0.04413,0.0029 -0.06516,0.0091 -0.103783,0.03086 -0.180229,0.124932 -0.28842,0.04364 -0.01386,-0.0085 -0.08786,-0.05757 -0.107897,-0.05436 -0.0223,0.0036 -0.157665,0.04105 -0.200596,0.08483 -0.0275,0.02804 -0.04113,0.06776 -0.07072,0.09422 0.02596,-0.01047 0.05421,-0.01643 0.07785,-0.03142 0.0071,-0.0045 -0.01826,0.0028 -0.02519,-0.002 -0.01027,-0.007 -0.0158,-0.01941 -0.0218,-0.03031 -0.06314,-0.114609 0.0146,-0.110837 -0.173964,-0.06336 -0.01953,0.03054 -0.01408,0.139863 -0.01429,0.165956 -0.0011,0.150255 0.0031,0.300564 0.0011,0.450824 -7.93e-4,0.183754 -0.0013,0.36753 -0.0057,0.551244 -0.0011,0.04567 -0.0048,0.186904 -0.01029,0.244113 -0.0016,0.01682 -0.0056,0.03333 -0.0085,0.04999 0.03709,-0.01685 0.07668,-0.02901 0.111255,-0.05056 0.0045,-0.0028 -0.0053,-0.0093 -0.007,-0.01442 -0.01654,-0.0502 -0.02241,-0.103927 -0.03875,-0.154233 -0.02635,-0.123581 -0.06445,-0.244479 -0.08213,-0.369903 -0.047,-0.23629 -0.09319,-0.473071 -0.11992,-0.712704 -0.03604,-0.324692 -0.06657,-0.650027 -0.07164,-0.976918 -0.0034,-0.085 0.0016,-0.225314 -0.01635,-0.308065 -0.003,-0.01377 -0.0034,-0.04122 -0.01722,-0.03859 -0.108982,0.02069 -0.115928,0.04417 -0.159642,0.10699 -0.142584,0.274105 -0.250632,0.565504 -0.403035,0.834901 -0.05641,0.105815 -0.108394,0.215728 -0.170238,0.318581 -0.01079,0.01797 -0.05522,0.0473 -0.03487,0.05235 0.03102,0.0077 0.05721,-0.02899 0.08747,-0.03929 0.0082,-0.0028 -0.01349,0.01093 -0.02021,0.0164 -0.0077,-3.17e-4 -0.01601,0.0021 -0.02307,-9.79e-4 -0.01114,-0.0048 -0.01974,-0.01419 -0.02926,-0.02176 -0.06159,-0.04899 -0.116272,-0.101682 -0.201721,-0.08525 -0.06183,0.02251 -0.129882,0.05558 -0.198001,0.04517 -0.08869,-0.01355 -0.141224,-0.08944 -0.211709,-0.136046 -0.03355,-0.01786 -0.09312,-0.06152 -0.139094,-0.04403 -0.06076,0.02313 -0.113956,0.06268 -0.16963,0.09625 -0.0235,0.01417 -0.04802,0.02774 -0.06771,0.04686 -0.01008,0.0098 0.05211,-0.01929 0.0381,-0.01812 -0.02323,0.0019 -0.04455,0.01368 -0.06683,0.02052 -0.02286,-0.0036 -0.04738,-0.0014 -0.06857,-0.01069 -0.0667,-0.02921 -0.09414,-0.08146 -0.137628,-0.136511 -0.06742,-0.08534 -0.128659,-0.177325 -0.233215,-0.220164 -0.05701,0.03166 -0.118914,0.05576 -0.171016,0.09497 -0.02926,0.02202 -0.04639,0.05669 -0.0689,0.08557 -0.06096,0.07819 -0.11177,0.152188 -0.17867,0.226148 -0.113049,0.124981 -0.100097,0.05572 -0.109506,0.12385 -0.03305,0.01248 -0.0639,0.03514 -0.09915,0.03744 -0.08334,0.0054 -0.121039,-0.05703 -0.162642,-0.115759 -0.0897,-0.126608 -0.151625,-0.271441 -0.241748,-0.397886 -0.0011,-0.0016 -0.08662,-0.140408 -0.131876,-0.131221 -0.150238,0.0305 -0.232492,0.153984 -0.316653,0.26548 -0.148572,0.210473 -0.268198,0.439303 -0.422066,0.646021 0.0141,-1.7e-5 0.05246,-0.0098 0.04227,-5e-5 -0.01537,0.01466 -0.0402,0.02178 -0.0611,0.01802 -0.02302,-0.0041 -0.04299,-0.02153 -0.05802,-0.03944 -0.01392,-0.01657 -0.122496,-0.217481 -0.124674,-0.221437 -0.02513,-0.0456 -0.05047,-0.09109 -0.07571,-0.136639 -0.02769,-0.04229 -0.162344,-0.272559 -0.240123,-0.256671 -0.167528,0.03422 -0.224597,0.152021 -0.332038,0.259985 0.02267,0.04925 0.02463,0.03611 -0.08577,0.0754 -0.02774,0.0099 -0.0594,0.01725 -0.08782,0.0096 -0.08272,-0.02237 -0.167881,-0.172059 -0.235561,-0.222001 -0.01225,-0.01054 -0.104953,-0.10573 -0.146259,-0.09494 -0.180171,0.04708 -0.224093,0.17743 -0.348224,0.289735 0.01702,-0.0066 0.04794,-0.0018 0.05107,-0.01978 0.0027,-0.01552 -0.03336,0.0049 -0.04718,-0.0026 -0.01802,-0.0098 -0.02863,-0.02955 -0.0413,-0.04571 -0.05284,-0.06747 -0.08879,-0.145677 -0.13943,-0.214651 -0.01591,-0.01519 -0.0258,-0.04735 -0.04773,-0.04558 -0.147324,0.0119 -0.176016,0.08299 -0.238241,0.184777 -0.06017,0.09843 -0.0444,0.07307 -0.113999,0.1622 0.01573,-0.0037 0.06267,-0.01581 0.04718,-0.01119 -0.01973,0.0059 -0.04019,0.02088 -0.05991,0.01499 -0.06602,-0.01972 -0.169697,-0.225166 -0.197821,-0.273075 -0.03058,-0.05208 -0.0611,-0.104198 -0.09165,-0.156296 -0.08312,-0.135956 -0.171989,-0.314111 -0.297713,-0.417072 -0.0267,-0.02187 -0.05619,-0.05311 -0.09057,-0.05014 -0.121002,0.01044 -0.185513,0.07097 -0.270448,0.13547 -0.160009,0.152191 -0.31205,0.312831 -0.480167,0.456399 0,0 0.120932,-0.04999 0.120932,-0.04999 z" />
      <path
         style="opacity:0.998;fill:#000000;fill-opacity:1;stroke:#000000;stroke-width:0.264583;stroke-linecap:round;stroke-linejoin:miter;stroke-miterlimit:4;stroke-dasharray:none;stroke-opacity:1"
         id="path4226"
         d="m 23.152027,24.35882 c 0.06928,-0.09307 0.139999,-0.18557 0.218877,-0.270828 0.01936,-0.02092 0.04771,-0.0353 0.05981,-0.06111 0.0082,-0.01741 -0.03127,0.02238 -0.0469,0.03358 0.0199,1.81e-4 0.04079,-0.0057 0.05969,5.56e-4 0.104783,0.03452 0.246607,0.220216 0.315964,0.308932 0.07095,0.09185 0.06336,0.08921 0.194797,-0.0078 0.003,-0.0022 0.03234,-0.069 0.03395,-0.07259 0.07961,-0.186772 0.135821,-0.381559 0.19187,-0.576312 0.02626,-0.06443 0.03071,-0.136357 0.05634,-0.201075 0.0054,-0.01352 0.03697,-0.04324 0.02419,-0.03631 -0.03439,0.01864 -0.07362,0.03841 -0.09189,0.073 -0.0095,0.01807 0.01749,0.03712 0.02339,0.05669 0.0098,0.03264 0.01581,0.06632 0.02372,0.09949 0.06421,0.380512 0.106005,0.764232 0.171872,1.144521 0.0545,0.228229 0.0615,0.468317 0.130593,0.69311 0.198369,0.106168 0.190196,-0.42223 0.193211,-0.471608 0.0039,-0.06439 0.0082,-0.128765 0.01232,-0.193148 0.0083,-0.16459 0.02251,-0.329338 0.04736,-0.492338 0.0061,-0.03982 0.02013,-0.141366 0.04646,-0.18325 0.0075,-0.01186 0.02293,-0.01611 0.0344,-0.02417 -0.02497,0.02706 -0.06844,0.04493 -0.07491,0.08117 -0.005,0.02783 0.03329,0.04577 0.04795,0.06994 0.0618,0.101941 0.106975,0.212176 0.179387,0.307378 0.01043,0.0068 0.01941,0.02428 0.03128,0.02048 0.175694,-0.05626 0.144975,-0.102549 0.221392,-0.223767 0.0076,-0.01072 0.01463,-0.02194 0.02293,-0.03215 0.0088,-0.01079 0.05306,-0.05805 0.06322,-0.06612 0.01076,-0.0085 0.04368,-0.03217 0.03533,-0.02125 -0.07321,0.09572 -0.107102,0.03937 -0.0169,0.111329 0.183403,0.193338 -0.04418,-0.04816 0.136995,0.149209 0.07741,0.08433 0.106133,0.122986 0.222954,0.09913 0.148906,-0.0549 0.245865,-0.151652 0.338883,-0.272299 0.08534,-0.123433 0.167298,-0.249739 0.240028,-0.381064 0.0945,-0.152159 0.128181,-0.348818 0.235078,-0.49179 -0.02987,0.02184 -0.06866,0.03502 -0.08961,0.06552 -0.0079,0.01143 0.01439,0.02388 0.01929,0.03686 0.01122,0.02982 0.02021,0.06045 0.02886,0.09112 0.04019,0.142532 0.06792,0.288457 0.09839,0.43325 0.02654,0.133236 0.04791,0.267689 0.08193,0.399348 0.0071,0.02763 0.03077,0.113669 0.04882,0.143487 0.0084,0.01381 0.02212,0.02352 0.03319,0.03527 0.113636,0.04977 0.214096,-0.03018 0.309883,-0.08482 0.07026,-0.04351 -0.04761,0.02555 -0.06986,0.04078 -0.0054,0.0037 0.01257,-0.0061 0.019,-0.0049 0.01082,0.002 0.02093,0.0076 0.02997,0.01391 0.02709,0.01889 0.06377,0.05876 0.08586,0.08128 0.02461,0.02487 0.05576,0.06271 0.09102,0.07545 0.09415,0.034 0.22339,-0.08163 0.275542,-0.121429 0.02,-0.01527 0.03387,-0.03724 0.0508,-0.05586 -0.06582,0.01831 0.119398,-0.100875 0.08494,-0.0819 -0.02551,0.01404 -0.05239,0.02757 -0.07265,0.04848 -0.0084,0.0086 0.02347,-0.0055 0.03483,-0.0094 0.01418,-0.0049 0.02848,-0.0098 0.04166,-0.0169 0.05291,-0.02861 0.104203,-0.06011 0.156305,-0.09016 0.01543,-0.0095 0.06147,-0.03849 0.04624,-0.02864 -0.02162,0.01398 -0.0535,0.01824 -0.06545,0.04106 -0.0075,0.01432 0.0319,-0.0098 0.04789,-0.0075 0.02111,0.003 0.04152,0.01188 0.05966,0.02308 0.05609,0.03462 0.129262,0.110446 0.173778,0.153091 0.06085,0.06009 0.117263,0.124508 0.17762,0.185076 0.05474,0.05493 0.07828,0.08846 0.155752,0.106575 0.07302,0.01708 0.104992,-0.0015 0.174043,-0.021 0.143391,-0.07713 0.04675,-0.02301 0.256077,-0.152527 0.01998,-0.01236 0.04385,-0.05364 0.06013,-0.03671 0.0159,0.01654 -0.05231,0.02271 -0.05155,0.04564 5.29e-4,0.01771 0.03609,-0.0034 0.05313,0.0015 0.02273,0.0065 0.04225,0.02118 0.06337,0.03178 0.08295,0.04709 0.137091,0.155096 0.235296,0.175996 0.05122,0.0109 0.06787,-0.0066 0.113673,-0.02772 0.05486,-0.03907 0.113332,-0.07352 0.16459,-0.117217 0.0227,-0.01935 0.03743,-0.04646 0.05536,-0.07029 0.06696,-0.08899 0.122483,-0.183677 0.168833,-0.284741 0.0062,-0.01437 0.04082,-0.09802 0.05423,-0.114429 0.0076,-0.0093 0.03894,-0.02778 0.0305,-0.01923 -0.02614,0.02649 -0.06942,0.03927 -0.08406,0.07349 -0.0073,0.01704 0.02408,0.02839 0.0337,0.04422 0.01257,0.02067 0.02178,0.04322 0.03266,0.06482 0.05479,0.125063 0.05558,0.176757 0.206309,0.04821 0.0099,-0.0085 0.01365,-0.09646 0.01402,-0.101442 -0.01204,-0.23442 0.03193,-0.465559 0.06857,-0.696088 0.03865,-0.190502 0.0611,-0.385023 0.110546,-0.573353 0.0092,-0.03515 0.04996,-0.07088 0.03408,-0.103569 -0.01119,-0.02307 -0.05874,0.01917 -0.06277,0.0445 -0.0035,0.02188 0.0323,0.03033 0.04844,0.0455 0.01961,0.034 0.0418,0.06662 0.05879,0.101992 0.04016,0.08362 0.113567,0.281596 0.141359,0.359834 0.07523,0.211781 0.139081,0.426983 0.202938,0.642369 0.04592,0.157239 0.0796,0.317493 0.114269,0.477432 0.006,0.0275 0.01236,0.0549 0.01834,0.08239 0.0028,0.01304 -0.004,0.04476 0.0081,0.03919 0.0395,-0.01814 0.06455,-0.05825 0.09682,-0.08738 -0.0472,-0.07737 -0.05256,-0.07738 -0.167521,0.02066 -0.0109,0.0093 -0.02125,0.168636 -0.02278,0.186993 0.0047,0.03076 -0.01714,0.108527 0.01979,0.132203 0.03571,0.0229 0.107323,-0.01424 0.139703,-0.02463 0.04931,-0.01371 0.09848,-0.02976 0.149973,-0.03385 0.156356,-0.01243 0.317945,0.02222 0.472504,0.04108 0.300572,0.03409 0.574619,-0.09546 0.838695,-0.221035 0.08317,-0.03762 0.174694,-0.09682 0.271258,-0.09089 0.08149,0.005 0.151175,0.06445 0.215824,0.107266 0.05666,0.03608 0.111164,0.05319 0.1719,0.0152 0.146589,-0.0917 0.146356,-0.0858 0.210491,-0.206939 0.0062,-0.01266 0.03212,-0.0424 0.01873,-0.03797 -0.0361,0.01193 -0.06686,0.03758 -0.09497,0.06317 -0.0043,0.0039 0.007,0.0096 0.009,0.01503 0.01206,0.03147 0.01812,0.0651 0.03019,0.09675 0.141925,0.05908 0.158769,-0.181002 0.1733,-0.24974 0.02593,-0.122633 0.01974,-0.0929 0.05313,-0.215693 0.04412,-0.134133 0.09591,-0.269733 0.176514,-0.386958 0.04707,-0.06845 0.07539,-0.09347 0.132577,-0.153712 0.0508,-0.04852 0.09206,-0.08918 0.144963,-0.135017 0.02098,-0.01819 0.04553,-0.03252 0.06435,-0.05294 0.01371,-0.01488 -0.05248,0.01618 -0.04881,0.03608 0.0034,0.01825 0.03795,-0.0044 0.05566,0.0011 0.02066,0.0064 0.03705,0.02238 0.05558,0.03357 0.123285,0.135426 0.199996,0.306523 0.275603,0.471543 0,0 0.108101,-0.06111 0.108101,-0.06111 v 0 c -0.07774,-0.166721 -0.155072,-0.339387 -0.276537,-0.479348 -0.01955,-0.01311 -0.03665,-0.03097 -0.05864,-0.03934 -0.13693,-0.05212 -0.340384,0.18901 -0.435478,0.273579 -0.058,0.06234 -0.08436,0.08568 -0.131847,0.156377 -0.07957,0.118467 -0.130111,0.254906 -0.174088,0.389557 -0.02822,0.104307 -0.0501,0.209218 -0.07525,0.314219 -0.0055,0.02306 -0.04069,0.06095 -0.01831,0.06873 0.02678,0.0093 0.138941,-0.06424 0.09301,-0.03445 -0.0064,-0.01557 -0.03858,-0.130029 -0.04847,-0.127253 -0.118856,0.03339 -0.112128,0.03787 -0.145492,0.106404 -0.0085,0.01572 -0.01622,0.03193 -0.02558,0.04717 -0.01069,0.01739 -0.05021,0.03752 -0.03453,0.05058 0.0182,0.01516 0.04363,-0.02685 0.06707,-0.02348 0.01783,0.0026 -0.02979,0.02181 -0.04724,0.02633 -0.0532,0.01379 -0.07191,-0.0068 -0.11866,-0.02959 -0.06599,-0.04378 -0.13793,-0.106972 -0.220597,-0.114701 -0.09843,-0.0092 -0.193106,0.05126 -0.277198,0.09023 -0.262245,0.126135 -0.534483,0.258249 -0.833875,0.226136 -0.146192,-0.01814 -0.326281,-0.05432 -0.471881,-0.04603 -0.05113,0.0029 -0.10092,0.01856 -0.149948,0.03155 -0.01299,0.0042 -0.11327,0.04263 -0.128349,0.037 -0.03541,-0.01322 -0.01328,-0.103396 -0.01844,-0.122921 0.0035,-0.03835 0.0077,-0.09808 0.01619,-0.136383 0.0033,-0.01462 0.02929,-0.04329 0.01431,-0.04259 -0.168931,0.0079 -0.09468,0.04225 -0.06628,0.09406 0.04311,-0.01339 0.09159,-0.01539 0.12932,-0.04018 0.0109,-0.0072 -0.0075,-0.02502 -0.01087,-0.03762 -0.0072,-0.02682 -0.01453,-0.05365 -0.02114,-0.08063 -0.03888,-0.158711 -0.07279,-0.31872 -0.119931,-0.475335 -0.06514,-0.215192 -0.130153,-0.43026 -0.203485,-0.642852 -0.02545,-0.07383 -0.09963,-0.284092 -0.136237,-0.364929 -0.01667,-0.03681 -0.03849,-0.07107 -0.05774,-0.106602 -0.07807,-0.08291 -0.07125,-0.114579 -0.206525,0.02947 -0.02447,0.02605 -0.02178,0.06815 -0.03008,0.102914 -0.0451,0.188703 -0.06813,0.382079 -0.106632,0.572065 -0.03903,0.232508 -0.0895,0.465098 -0.07874,0.702105 -0.0019,0.018 -0.0021,0.03629 -0.0058,0.05399 -0.0029,0.01379 -0.02834,0.04062 -0.01426,0.03983 0.03613,-0.002 0.06953,-0.02357 0.099,-0.04458 0.0063,-0.0045 -0.01516,-0.0057 -0.02035,-0.0115 -0.02344,-0.02642 -0.04081,-0.07507 -0.0537,-0.104532 -2.38e-4,-4.76e-4 -0.0531,-0.117717 -0.06851,-0.118104 -0.150665,-0.0038 -0.179089,0.07717 -0.224314,0.184656 -0.03399,0.07237 -0.07126,0.142167 -0.116046,0.208641 -0.0168,0.02493 -0.03469,0.04911 -0.0531,0.07288 -0.01826,0.02357 -0.05449,0.03934 -0.05682,0.06906 -0.0013,0.01773 0.03484,-0.0072 0.05225,-0.01078 -0.03961,0.02222 -0.05937,0.04296 -0.106796,0.03628 -0.09352,-0.01318 -0.159166,-0.127848 -0.235493,-0.174272 -0.0218,-0.01237 -0.04171,-0.02895 -0.06542,-0.0371 -0.07881,-0.02709 -0.167716,0.04491 -0.224509,0.07367 -0.02069,0.01048 -0.04308,0.02003 -0.059,0.0369 -0.0095,0.01007 0.04964,-0.02362 0.0386,-0.01528 -0.02381,0.01799 -0.05169,0.0298 -0.07754,0.04471 -0.06547,0.02134 -0.09824,0.04142 -0.168902,0.02803 -0.07696,-0.01459 -0.100459,-0.04732 -0.155093,-0.10097 -0.02506,-0.0246 -0.157483,-0.163327 -0.178329,-0.1851 -0.05776,-0.05723 -0.148876,-0.169515 -0.234884,-0.188691 -0.08483,-0.01891 -0.177094,0.08075 -0.251823,0.118142 0.02162,-0.01202 0.04473,-0.02168 0.06485,-0.03607 0.01191,-0.0085 -0.02609,0.01345 -0.03991,0.01824 -0.01169,0.0041 -0.02506,0.0028 -0.03623,0.0081 -0.100651,0.04776 -0.166463,0.07913 -0.230947,0.162437 -0.15966,0.167852 -0.0029,-0.01398 0.0029,0.03614 0.0021,0.01945 -0.03491,0.01885 -0.05405,0.02302 -0.06285,0.01367 -0.101745,-0.03162 -0.140158,-0.07282 -0.03256,-0.03403 -0.07339,-0.09075 -0.120324,-0.107394 -0.04003,-0.01419 -0.127418,0.06433 -0.175244,0.08966 0.02941,-0.01654 0.0598,-0.03146 0.08823,-0.04963 0.0087,-0.0055 -0.01894,0.0079 -0.02857,0.01149 -0.04494,0.0168 -0.0916,0.02654 -0.137922,0.0089 -0.01061,-0.01013 -0.02386,-0.01807 -0.03182,-0.0304 -0.01834,-0.02841 -0.04373,-0.113789 -0.05097,-0.139972 -0.0361,-0.130678 -0.05823,-0.264637 -0.08476,-0.397412 -0.0016,-0.0072 -0.06231,-0.299795 -0.06463,-0.310217 -0.0087,-0.03919 -0.04056,-0.174967 -0.05713,-0.221017 -0.0062,-0.01722 -0.0066,-0.05043 -0.02484,-0.04895 -0.04935,0.004 -0.09002,0.04128 -0.135025,0.06192 -0.09867,0.152208 -0.136321,0.337331 -0.232088,0.491832 -0.07406,0.130224 -0.154754,0.257134 -0.241202,0.379454 -0.04051,0.05076 -0.0804,0.09987 -0.129611,0.142577 -0.01002,0.0087 -0.04359,0.02953 -0.03126,0.02463 0.02775,-0.01101 0.05241,-0.02861 0.07838,-0.04334 0.01234,-0.007 -0.025,0.01344 -0.0375,0.02015 -0.112414,0.03461 -0.14191,-0.0029 -0.218406,-0.08543 -0.0462,-0.04987 -0.08892,-0.102889 -0.136128,-0.151856 -0.01872,-0.01668 -0.0311,-0.05039 -0.05617,-0.05004 -0.123385,0.0017 -0.212106,0.08567 -0.274871,0.178015 -0.02095,0.03534 -0.03701,0.07341 -0.05795,0.1086 -0.007,0.01181 -0.03734,0.0354 -0.0237,0.03371 0.15233,-0.01883 0.0976,-0.03662 0.05748,-0.05703 -0.0755,-0.09265 -0.12115,-0.202418 -0.180503,-0.305462 -0.01512,-0.02624 -0.01881,-0.07105 -0.04854,-0.07681 -0.0516,-0.01 -0.102059,0.02518 -0.153089,0.03777 -0.0098,0.0098 -0.02299,0.01718 -0.02931,0.02953 -0.02334,0.04566 -0.03516,0.139828 -0.04116,0.18353 -0.02238,0.162876 -0.03552,0.327129 -0.04369,0.491265 -0.01122,0.162907 -0.01448,0.329696 -0.04489,0.490619 -0.005,0.0264 -0.04101,0.06131 -0.02002,0.07807 0.02086,0.01666 0.136874,-0.02778 0.07784,-0.01888 -0.07535,-0.221161 -0.08297,-0.46061 -0.139096,-0.68654 -0.0665,-0.381216 -0.110714,-0.76546 -0.166093,-1.148326 -0.0074,-0.03417 -0.01274,-0.06887 -0.0223,-0.102502 -0.0065,-0.02278 -0.0021,-0.06403 -0.02566,-0.06624 -0.143137,-0.01342 -0.153244,0.08326 -0.178449,0.176761 -0.01007,0.03736 -0.02019,0.0747 -0.03029,0.112056 -0.05619,0.195801 -0.114995,0.39076 -0.198255,0.577123 -0.0065,0.01358 -0.01243,0.0275 -0.01964,0.04073 -0.0053,0.0097 -0.02866,0.03062 -0.01786,0.0281 0.03583,-0.0084 0.06651,-0.03151 0.09977,-0.04726 -0.0047,-7.93e-4 -0.01013,3.18e-4 -0.014,-0.0024 -0.02085,-0.01468 -0.02947,-0.0435 -0.05028,-0.05765 -0.07337,-0.08983 -0.217632,-0.277145 -0.32151,-0.318231 -0.01991,-0.0079 -0.04266,-0.0036 -0.064,-0.0055 -0.05635,0.03148 -0.115772,0.05801 -0.169055,0.09444 -0.0234,0.016 -0.03975,0.04043 -0.05882,0.06138 -0.07914,0.08692 -0.150165,0.180732 -0.223091,0.272795 0,0 0.1197,-0.05071 0.1197,-0.05071 z" />
      <path
         style="opacity:0.998;fill:#000000;fill-opacity:1;stroke:#000000;stroke-width:0.264583;stroke-linecap:round;stroke-linejoin:miter;stroke-miterlimit:4;stroke-dasharray:none;stroke-opacity:1"
         id="path4228"
         d="m 25.159771,26.758883 c 0.199901,-0.0087 0.395645,-0.06889 0.588649,-0.118217 0.113934,-0.02883 0.233343,-0.06903 0.352731,-0.0453 0.09953,0.01979 0.186916,0.08196 0.270392,0.13547 0.182417,0.103 0.209058,0.03056 0.380458,-0.06495 0.02815,-0.01569 -0.05401,0.03519 -0.08102,0.05278 0.0082,7.94e-4 0.0172,-0.0011 0.02471,0.0024 0.05641,0.02616 0.09316,0.166958 0.114636,0.220983 0.01209,0.01096 0.02061,0.0282 0.03624,0.0329 0.06068,0.01824 0.200771,-0.08752 0.222991,-0.103605 0.04181,-0.03026 0.155863,-0.169827 0.1807,-0.198537 0.0347,-0.04011 0.06983,-0.07983 0.104748,-0.119747 0.08332,-0.08567 0.156512,-0.188297 0.263084,-0.248 0.01392,-0.0078 -0.04911,0.0229 -0.03582,0.03172 0.02048,0.0136 0.0489,-0.0076 0.07347,-0.0067 0.02357,8.2e-4 0.04654,0.0078 0.06981,0.01173 0.09287,0.0153 0.192292,0.09293 0.288224,0.08361 0.02677,-0.0026 0.05231,-0.01252 0.07846,-0.01878 0.237723,-0.09141 0.42421,-0.264888 0.624195,-0.415211 -0.01551,0.01978 -0.05111,0.03463 -0.04655,0.05936 0.0048,0.02618 0.04698,0.02641 0.06584,0.04519 0.02661,0.0265 0.04834,0.05771 0.06897,0.08908 0.07937,0.120637 0.132792,0.258058 0.189376,0.390026 0.05057,0.117242 0.09159,0.239278 0.151953,0.352187 0.01638,0.03065 0.04276,0.08686 0.08505,0.0968 0.01844,0.0043 0.03755,-0.0049 0.05632,-0.0074 0.177414,-0.08418 0.208415,-0.142166 0.320435,-0.28111 0.02278,-0.02825 0.04532,-0.0567 0.06833,-0.08475 0.01868,-0.02278 0.04087,-0.04294 0.05676,-0.06775 0.01196,-0.01869 -0.02991,0.03279 -0.04487,0.04919 0.02336,0.0118 0.04919,0.01964 0.07006,0.03542 0.08428,0.0637 0.146762,0.163099 0.20891,0.246712 0.01738,0.02338 0.02895,0.05233 0.05182,0.07037 0.01659,0.01308 0.04042,0.01223 0.06064,0.01834 0.02193,-0.01015 0.0458,-0.01685 0.06577,-0.03045 0.05838,-0.03976 0.116175,-0.08109 0.168182,-0.128883 0.0232,-0.02132 0.03719,-0.05086 0.0554,-0.07656 0.0433,-0.06109 0.07874,-0.111826 0.137419,-0.158163 -0.02204,0.02368 -0.06262,0.03888 -0.06616,0.07104 -0.0024,0.02265 0.03756,0.0262 0.05369,0.04228 0.06085,0.06066 0.100462,0.139073 0.161425,0.199694 0.01614,0.01604 0.03529,0.02871 0.05293,0.04306 0.01818,0.0073 0.035,0.02025 0.05451,0.02176 0.0516,0.004 0.103902,-0.02802 0.144587,-0.05273 0.153995,-0.09354 0.186531,-0.118321 0.301903,-0.224962 -0.04039,0.03175 0.112313,-0.102377 0.09424,-0.06809 -0.01318,0.02499 -0.06107,0.02886 -0.06265,0.05707 -0.0011,0.01985 0.03949,0.0051 0.05893,0.0092 0.03367,0.0073 0.08608,0.02441 0.119139,0.03473 0.07298,0.02314 0.03435,0.01511 0.116279,0.02223 0,0 0.103907,-0.07437 0.103907,-0.07437 v 0 c -0.07992,-0.0044 -0.04185,0.0027 -0.11448,-0.01986 -0.02706,-0.0085 -0.158308,-0.05382 -0.180279,-0.04854 -0.09998,0.02403 -0.180538,0.06766 -0.252455,0.135679 -0.01847,0.01704 -0.03664,0.03439 -0.05539,0.05111 -0.02127,0.01897 -0.04886,0.03222 -0.06465,0.05595 -0.0065,0.0097 0.04259,-0.01687 0.03366,-0.0094 -0.02466,0.0207 -0.09843,0.06038 -0.136451,0.06033 -0.01863,-2.4e-5 -0.03527,-0.01199 -0.05291,-0.01799 -0.06278,-0.04844 -0.05117,-0.03393 -0.104989,-0.101141 -0.02111,-0.02637 -0.13293,-0.189847 -0.165071,-0.189515 -0.05558,5.82e-4 -0.105947,0.03367 -0.158922,0.0505 -0.0551,0.048 -0.09067,0.100597 -0.133437,0.15986 -0.01836,0.02543 -0.05253,0.04422 -0.05636,0.07535 -0.0019,0.01556 0.05194,-0.01433 0.04702,5.55e-4 -0.0074,0.02228 -0.03972,0.02498 -0.05958,0.03747 -0.01916,-0.0033 -0.04172,0.0015 -0.0575,-0.0099 -0.02368,-0.01706 -0.03535,-0.04646 -0.05298,-0.06972 -0.06433,-0.08485 -0.126826,-0.184246 -0.210286,-0.252136 -0.02228,-0.01812 -0.04955,-0.02904 -0.07432,-0.04356 -0.05754,0.02577 -0.119399,0.04353 -0.172636,0.07731 -0.02453,0.01557 -0.03702,0.04477 -0.05531,0.06734 -0.03223,0.03978 -0.111853,0.140693 -0.143685,0.177252 -0.02387,0.02741 -0.0592,0.04676 -0.0743,0.07982 -0.0068,0.01493 0.03062,-0.01181 0.04593,-0.01772 -0.0168,0.0052 -0.03294,0.01741 -0.05044,0.01554 -0.04166,-0.0044 -0.06961,-0.06234 -0.08462,-0.08902 -0.06262,-0.111334 -0.10459,-0.232837 -0.154917,-0.349756 -0.06409,-0.151061 -0.143409,-0.367113 -0.257312,-0.487506 -0.01998,-0.02111 -0.04031,-0.05404 -0.06935,-0.05285 -0.06163,0.0025 -0.116038,0.04185 -0.174056,0.06278 -0.0797,0.06103 -0.156356,0.12616 -0.236659,0.186357 -0.03159,0.02368 -0.06528,0.04449 -0.09656,0.06858 -0.0038,0.0029 0.01778,-0.0067 0.01352,-0.0046 -0.02856,0.01427 -0.05768,0.02739 -0.08652,0.04108 -0.0249,0.0071 -0.04907,0.01772 -0.07472,0.02125 -0.09027,0.01242 -0.200306,-0.06528 -0.28828,-0.08191 -0.04124,-0.0081 -0.105341,-0.02673 -0.148058,-0.01066 -0.189825,0.07142 -0.310137,0.191606 -0.437973,0.341747 -0.0039,0.0045 -0.201435,0.230087 -0.207433,0.236396 -0.02705,0.02845 -0.06578,0.04708 -0.08545,0.08106 -0.0099,0.01704 0.04472,-0.0078 0.05329,-0.02554 0.01201,-0.02487 -0.09873,0.06306 -0.08194,-0.01235 -0.02561,-0.06372 -0.05782,-0.195778 -0.119618,-0.233153 -0.0086,-0.0052 -0.01939,-0.0052 -0.0291,-0.0078 -0.04718,0.02482 -0.09448,0.04941 -0.141531,0.07447 -0.02431,0.01295 0.0481,-0.02699 0.07329,-0.03812 0.01566,-0.0069 -0.02848,0.01965 -0.04458,0.02543 -0.06615,0.02376 -0.126732,-0.005 -0.183575,-0.03749 -0.08478,-0.054 -0.174332,-0.118482 -0.274669,-0.140196 -0.120835,-0.02615 -0.241885,0.0138 -0.357223,0.04382 -0.189829,0.04847 -0.383212,0.107561 -0.579741,0.115511 0,0 -0.105647,0.07676 -0.105647,0.07676 z" />
    </g>
    <rect
       style="opacity:0.998;fill:#ffffff;fill-opacity:1;stroke:none;stroke-width:0.525033;stroke-linecap:round;stroke-linejoin:miter;stroke-miterlimit:4;stroke-dasharray:none;stroke-opacity:1"
       id="rect4713"
       width="39.6875"
       height="39.6875"
       x="-286.68015"
       y="-245.11656"
       inkscape:export-filename="/home/anthony/git/personnel/librepodd/public/img/tiles/blank.png"
       inkscape:export-xdpi="512"
       inkscape:export-ydpi="512" />
    <g
       id="tile_something_is_wrong"
       inkscape:export-filename="/home/anthony/git/personnel/librepodd/public/img/tiles/something_is_wrong.png"
       inkscape:export-xdpi="512"
       inkscape:export-ydpi="512"
       transform="translate(36.010316,-233.07668)">
      <rect
         style="opacity:0.998;fill:#ffffff;fill-opacity:1;stroke:none;stroke-width:0.525033;stroke-linecap:round;stroke-linejoin:miter;stroke-miterlimit:4;stroke-dasharray:none;stroke-opacity:1"
         id="rect4748"
         width="39.6875"
         height="39.6875"
         x="-0.60198992"
         y="52.776463" />
      <g
         id="g5440"
         transform="translate(8.0892992,-3.6248175)">
        <path
           stroke="none"
           fill="#f5d29d"
           d="m 4.7946386,85.206024 -0.02646,-0.251354 -0.05292,-1.150938 v -0.105833 q 0.02646,-2.196042 1.878542,-3.770313 1.8917696,-1.5875 4.5640614,-1.5875 2.672291,0 4.550833,1.5875 1.852083,1.574271 1.891771,3.770313 v 0.105833 l -0.06615,1.150938 -0.02646,0.330729 q -0.25135,2.090208 -1.084787,3.796771 l -0.714375,1.217083 q -1.878542,2.791354 -4.550833,2.791354 -2.6722918,0 -4.5640614,-2.791354 -0.410105,-0.595312 -0.727605,-1.243542 -0.846666,-1.73302 -1.071562,-3.849687"
           id="path4750"
           style="stroke-width:0.264583" />
        <path
           d="m 10.512539,76.204645 c 1.261181,-0.864307 2.853089,-1.11125 4.775728,-0.740834 l -0.833437,1.468438 c 1.508125,-0.573265 3.011839,-0.260173 4.511146,0.939271 l -2.169584,1.09802 c 0.890765,0.167569 1.44639,0.79375 1.666875,1.878542 l -0.833437,0.05292 c 0.238125,0.926042 0.286631,1.878542 0.145521,2.8575 -0.202848,1.014235 -0.489479,1.975556 -0.859896,2.883958 l -1.058333,-0.661458 0.264583,-1.322917 -0.330729,-0.264583 0.132291,-1.825625 c 0.202848,-1.040694 -0.15875,-1.74625 -1.084791,-2.116667 -1.208265,-0.47625 -2.52236,-0.745244 -3.942292,-0.806979 -1.4199318,0.06174 -2.7340264,0.330729 -3.9422914,0.806979 -0.926042,0.370417 -1.28764,1.075973 -1.084792,2.116667 l 0.132292,1.825625 -0.330729,0.264583 0.264583,1.322917 -1.058333,0.661458 c -0.370417,-0.908402 -0.657048,-1.869723 -0.859896,-2.883958 -0.06174,-0.414515 -0.08819,-0.824619 -0.07938,-1.230313 0.0441,-4.462639 2.306285,-6.905625 6.7865624,-7.328958 l -0.277812,1.018646 0.06615,-0.01323"
           style="fill:#3c3c3c;stroke:none;stroke-width:0.264583"
           id="path4752" />
        <path
           stroke="none"
           fill="#e7c38c"
           d="m 4.7015497,84.340037 q 0.224896,2.116667 1.071562,3.849687 l -0.449791,0.03969 q -0.820208,0 -1.415521,-0.595312 -0.555625,-0.555625 -0.568854,-1.336146 v -0.105834 q 0.01323,-0.79375 0.568854,-1.375833 0.357188,-0.343958 0.79375,-0.47625 m 12.7132283,0.07938 0.555625,0.396875 q 0.595312,0.595312 0.595312,1.42875 0,0.820208 -0.595312,1.389062 -0.568855,0.595313 -1.402292,0.595313 l -0.238125,-0.01323 q 0.833437,-1.706563 1.084792,-3.796771"
           id="path4754"
           style="stroke-width:0.264583" />
        <path
           stroke="none"
           fill="#396962"
           d="m 8.3412572,85.272061 q 0.27781,-0.264584 0.66146,-0.264584 0.38364,0 0.64823,0.264584 0.27781,0.277812 0.27781,0.661458 0,0.383646 -0.27781,0.648229 -0.26459,0.277813 -0.64823,0.277813 -0.38365,0 -0.66146,-0.277813 -0.2645796,-0.264583 -0.2645796,-0.648229 0,-0.383646 0.2645796,-0.661458"
           id="path4756"
           style="stroke-width:0.264583" />
        <path
           stroke="none"
           fill="#396962"
           d="m 12.442297,85.338207 q 0.27781,-0.264584 0.66146,-0.264584 0.38364,0 0.64823,0.264584 0.27781,0.277812 0.27781,0.661458 0,0.383646 -0.27781,0.648229 -0.26459,0.277813 -0.64823,0.277813 -0.38365,0 -0.66146,-0.277813 -0.26458,-0.264583 -0.26458,-0.648229 0,-0.383646 0.26458,-0.661458"
           id="path4758"
           style="stroke-width:0.264583" />
        <path
           stroke="none"
           fill="#694c39"
           d="m 10.01749,84.670834 q -1.8554393,1.166717 -2.5758757,2.108427 l -0.436903,-0.654452 q 1.2844762,-1.267704 2.8997996,-2.00056 l 0.1129991,0.54658"
           id="path4762"
           style="stroke-width:0.264583" />
        <path
           stroke="none"
           fill="#694c39"
           d="m 14.969645,86.73833 q -0.839874,-0.819194 -2.827507,-1.744761 l 0.03374,-0.551593 q 1.699308,0.509111 3.152883,1.59682 l -0.359118,0.699534"
           id="path4764"
           style="stroke-width:0.264583" />
        <path
           stroke="none"
           fill="#4d4743"
           d="m 11.453224,89.521142 q -0.515937,-0.304271 -1.018645,0 -0.277813,0.185208 -0.4630208,0.515937 l -0.47625,-0.02646 q 0.251354,-0.582083 0.8334368,-0.833437 0.608542,-0.251355 1.217084,0 0.62177,0.238125 0.873125,0.846666 l 0.07937,0.15875 -0.47625,-0.02646 q -0.224896,-0.423333 -0.568855,-0.635"
           id="path76"
           style="stroke-width:0.264583" />
      </g>
    </g>
    <text
       xml:space="preserve"
       style="font-style:normal;font-weight:normal;font-size:10.5833px;line-height:1.25;font-family:sans-serif;fill:#000000;fill-opacity:1;stroke:none;stroke-width:0.264583"
       x="-259.5596"
       y="-259.74442"
       id="text9053"><tspan
         sodipodi:role="line"
         id="tspan9051"
         style="stroke-width:0.264583"
         x="-259.5596"
         y="-259.74442">Page 1a</tspan></text>
    <text
       xml:space="preserve"
       style="font-style:normal;font-weight:normal;font-size:10.5833px;line-height:1.25;font-family:sans-serif;fill:#000000;fill-opacity:1;stroke:none;stroke-width:0.264583"
       x="-27.047346"
       y="-260.83521"
       id="text9053-3"><tspan
         sodipodi:role="line"
         id="tspan9051-6"
         style="stroke-width:0.264583"
         x="-27.047346"
         y="-260.83521">Page 2</tspan></text>
  </g>
</svg>
