<?xml version="1.0" encoding="UTF-8" standalone="no"?>
<!-- Created with Inkscape (http://www.inkscape.org/) -->

<svg
   width="44.456676mm"
   height="39.467354mm"
   viewBox="0 0 44.456676 39.467354"
   version="1.1"
   id="svg5"
   inkscape:version="1.1.1 (3bf5ae0d25, 2021-09-20)"
   sodipodi:docname="icon.svg"
   xmlns:inkscape="http://www.inkscape.org/namespaces/inkscape"
   xmlns:sodipodi="http://sodipodi.sourceforge.net/DTD/sodipodi-0.dtd"
   xmlns="http://www.w3.org/2000/svg"
   xmlns:svg="http://www.w3.org/2000/svg">
  <sodipodi:namedview
     id="namedview7"
     pagecolor="#ffffff"
     bordercolor="#666666"
     borderopacity="1.0"
     inkscape:pageshadow="2"
     inkscape:pageopacity="0.0"
     inkscape:pagecheckerboard="0"
     inkscape:document-units="mm"
     showgrid="false"
     inkscape:zoom="1.5554293"
     inkscape:cx="321.77612"
     inkscape:cy="227.91136"
     inkscape:window-width="2345"
     inkscape:window-height="1448"
     inkscape:window-x="1356"
     inkscape:window-y="319"
     inkscape:window-maximized="0"
     inkscape:current-layer="layer1"
     inkscape:snap-global="false"
     fit-margin-top="0"
     fit-margin-left="0"
     fit-margin-right="0"
     fit-margin-bottom="0" />
  <defs
     id="defs2" />
  <g
     inkscape:label="Calque 1"
     inkscape:groupmode="layer"
     id="layer1"
     transform="translate(-25.789164,-37.497453)">
    <g
       id="g14427"
       inkscape:export-filename="/home/anthony/git/personnel/librepodd/public/logo.png"
       inkscape:export-xdpi="90"
       inkscape:export-ydpi="90">
      <path
         id="rect846"
         clip-path="none"
         style="opacity:0.998;fill:#ad7fa8;stroke-width:3.77953;stroke-linecap:round;stroke-linejoin:bevel"
         d="m 130.23438,141.72266 c -7.70455,0 -13.90625,6.20171 -13.90626,13.90625 v 1.52734 a 10.639113,10.639113 0 0 1 0.19532,-0.0195 10.639113,10.639113 0 0 1 10.63867,10.63867 10.639113,10.639113 0 0 1 -10.63867,10.63867 10.639113,10.639113 0 0 1 -0.19532,-0.0195 v 3.04688 a 10.639113,10.639113 0 0 1 0.19532,-0.0391 10.639113,10.639113 0 0 1 10.63867,10.63868 10.639113,10.639113 0 0 1 -10.63867,10.63867 10.639113,10.639113 0 0 1 -0.19532,-0.0391 v 3.06641 a 10.639113,10.639113 0 0 1 0.19532,-0.0391 10.639113,10.639113 0 0 1 10.63867,10.63867 10.639113,10.639113 0 0 1 -10.63867,10.63867 10.639113,10.639113 0 0 1 -0.19532,-0.0391 v 3.06445 a 10.639113,10.639113 0 0 1 0.19532,-0.0391 10.639113,10.639113 0 0 1 10.63867,10.64063 10.639113,10.639113 0 0 1 -10.63867,10.63867 10.639113,10.639113 0 0 1 -0.19532,-0.0391 v 3.06445 a 10.639113,10.639113 0 0 1 0.19532,-0.0391 10.639113,10.639113 0 0 1 10.63867,10.64062 10.639113,10.639113 0 0 1 -10.63867,10.63867 10.639113,10.639113 0 0 1 -0.19532,-0.0391 v 1.54492 c 0,7.70454 6.20171,13.9082 13.90626,13.9082 h 121.35546 c 7.70455,0 13.90625,-6.20366 13.90625,-13.9082 V 155.62891 c 0,-7.70454 -6.2017,-13.90625 -13.90625,-13.90625 z"
         transform="scale(0.26458333)" />
      <text
         xml:space="preserve"
         style="font-style:normal;font-weight:normal;font-size:33.4016px;line-height:1.25;font-family:sans-serif;fill:#ffffff;fill-opacity:1;stroke:none;stroke-width:0.835041"
         x="39.58202"
         y="68.348267"
         id="text2720"><tspan
           sodipodi:role="line"
           id="tspan2718"
           style="font-style:normal;font-variant:normal;font-weight:bold;font-stretch:normal;font-family:sans-serif;-inkscape-font-specification:'sans-serif Bold';fill:#ffffff;stroke-width:0.835041"
           x="39.58202"
           y="68.348267">P</tspan></text>
      <rect
         style="opacity:0.998;fill:#ad7fa8;stroke-width:0.895958;stroke-linecap:round;stroke-linejoin:bevel"
         id="rect14249"
         width="6.585732"
         height="3.4848342"
         x="25.789164"
         y="42.541248"
         ry="1.7424171" />
      <rect
         style="opacity:0.998;fill:#ad7fa8;stroke-width:0.895958;stroke-linecap:round;stroke-linejoin:bevel"
         id="rect14249-3"
         width="6.585732"
         height="3.4848342"
         x="25.789164"
         y="49.31142"
         ry="1.7424171" />
      <rect
         style="opacity:0.998;fill:#ad7fa8;stroke-width:0.895958;stroke-linecap:round;stroke-linejoin:bevel"
         id="rect14249-6"
         width="6.585732"
         height="3.4848342"
         x="25.789164"
         y="55.6413"
         ry="1.7424171" />
      <rect
         style="opacity:0.998;fill:#ad7fa8;stroke-width:0.895958;stroke-linecap:round;stroke-linejoin:bevel"
         id="rect14249-7"
         width="6.585732"
         height="3.4848342"
         x="25.789164"
         y="62.051571"
         ry="1.7424171" />
      <rect
         style="opacity:0.998;fill:#ad7fa8;stroke-width:0.895958;stroke-linecap:round;stroke-linejoin:bevel"
         id="rect14249-5"
         width="6.585732"
         height="3.4848342"
         x="25.789164"
         y="68.524239"
         ry="1.7424171" />
    </g>
  </g>
</svg>
